<?xml version="1.0" encoding="utf-8"?>
<!-- Generator: Adobe Illustrator 16.0.0, SVG Export Plug-In . SVG Version: 6.00 Build 0)  -->
<!DOCTYPE svg PUBLIC "-//W3C//DTD SVG 1.1//EN" "http://www.w3.org/Graphics/SVG/1.1/DTD/svg11.dtd">
<svg version="1.1" id="Layer_1" xmlns="http://www.w3.org/2000/svg" xmlns:xlink="http://www.w3.org/1999/xlink" x="0px" y="0px"
	 width="105.996px" height="94.951px" viewBox="0 0 105.996 94.951" enable-background="new 0 0 105.996 94.951"
	 xml:space="preserve">
<path fill-rule="evenodd" clip-rule="evenodd" fill="#00FFAA" d="M103.595,52.201H78.798c-1.324,0-2.398-1.073-2.398-2.399V22.606
	c0-1.325,1.074-2.399,2.398-2.399h24.797c1.325,0,2.4,1.074,2.4,2.399v27.195C105.996,51.128,104.92,52.201,103.595,52.201z
	 M55.523,33.56c-2.159,0-3.909-1.75-3.909-3.908c0-12.039-9.794-21.835-21.833-21.835c-12.04,0-21.833,9.796-21.833,21.835
	c0,2.158-1.75,3.908-3.909,3.908s-3.909-1.75-3.909-3.908C0.131,13.302,13.432,0,29.781,0c16.35,0,29.65,13.302,29.65,29.651
	C59.431,31.81,57.681,33.56,55.523,33.56z M2.968,39.54h53.299c1.639,0,2.967,1.328,2.967,2.967v10.387
	c0,1.639-1.328,2.968-2.967,2.968H2.968C1.33,55.861,0,54.532,0,52.894V42.507C0,40.868,1.33,39.54,2.968,39.54z M49.827,88.869
	c-0.334,2.368-2.361,4.128-4.752,4.128H14.161c-2.391,0-4.417-1.76-4.752-4.128L5.874,63.862h47.487L49.827,88.869z M85.248,60.217
	h11.898v20.545c1.48,1.507,2.396,3.568,2.396,5.843c0,4.603-3.744,8.347-8.346,8.347s-8.346-3.744-8.346-8.347
	c0-2.274,0.917-4.336,2.396-5.843V60.217z M91.197,90.633c2.222,0,4.029-1.807,4.029-4.028s-1.808-4.028-4.029-4.028
	c-2.221,0-4.027,1.807-4.027,4.028S88.976,90.633,91.197,90.633z"/>
</svg>
