<?xml version="1.0" encoding="utf-8"?>
<!-- Generator: Adobe Illustrator 16.0.0, SVG Export Plug-In . SVG Version: 6.00 Build 0)  -->
<!DOCTYPE svg PUBLIC "-//W3C//DTD SVG 1.1//EN" "http://www.w3.org/Graphics/SVG/1.1/DTD/svg11.dtd">
<svg version="1.1" id="Layer_1" xmlns="http://www.w3.org/2000/svg" xmlns:xlink="http://www.w3.org/1999/xlink" x="0px" y="0px"
	 width="800px" height="267px" viewBox="0 0 800 267" enable-background="new 0 0 800 267" xml:space="preserve">
<rect x="499" y="211.057" fill="#02FCAA" width="98" height="34.947"/>
<rect x="704" y="98" fill="#02FCAA" width="72" height="64"/>
<rect x="21" y="87.703" fill="#02FCAA" width="140" height="34.947"/>
<rect x="21" y="138.027" fill="#02FCAA" width="140" height="34.947"/>
<text transform="matrix(1 1.688302e-05 -1.688302e-05 1 29.4551 109.4326)" font-family="'MyriadPro-Regular'" font-size="16">Content directory</text>
<text transform="matrix(1 1.688302e-05 -1.688302e-05 1 51.4629 159.7568)" font-family="'MyriadPro-Regular'" font-size="16">Generators</text>
<text transform="matrix(1 1.688302e-05 -1.688302e-05 1 715.5762 135.3047)" font-family="'MyriadPro-Regular'" font-size="16">Output</text>
<rect x="499" y="22.248" fill="#02FCAA" width="98" height="34.947"/>
<text transform="matrix(1 1.688302e-05 -1.688302e-05 1 527.8359 234.5103)" font-family="'MyriadPro-Regular'" font-size="16">Locals</text>
<text transform="matrix(1 1.688302e-05 -1.688302e-05 1 513.7246 45.5103)" font-family="'MyriadPro-Regular'" font-size="16">Templates</text>
<path fill="#02FCAA" d="M612,146.396c0,3.252-1.933,5.604-4.934,5.604H490.434c-3,0-5.434-2.352-5.434-5.604v-29.508
	c0-3.252,2.433-5.889,5.434-5.889h116.633c3.001,0,4.934,2.637,4.934,5.889V146.396z"/>
<circle fill="#02FCAA" cx="337.272" cy="129.624" r="60.808"/>
<text transform="matrix(1 0 0 1 295.4487 134.5464)" font-family="'MyriadPro-Regular'" font-size="16">ContentTree</text>
<text transform="matrix(1 0 0 1 532.2681 137.1963)" font-family="'MyriadPro-Regular'" font-size="16">View</text>
<path fill="none" stroke="#808080" stroke-width="3" stroke-miterlimit="10" d="M174.471,158.07c13.46,0,22.054-25.57,33.476-25.57
	c23.909,0,49.053,0,49.053,0"/>
<path fill="none" stroke="#808080" stroke-width="3" stroke-miterlimit="10" d="M174.471,105.93c13.46,0,22.054,25.57,33.476,25.57
	c23.909,0,49.053,0,49.053,0"/>
<g>
	<g>
		<line fill="none" stroke="#808080" stroke-width="4" stroke-miterlimit="10" x1="238" y1="132" x2="254" y2="132"/>
		<g>
			<path fill="#808080" d="M263.437,132.037c-4.544,1.686-10.181,4.562-13.676,7.609l2.752-7.609l-2.752-7.608
				C253.255,127.476,258.893,130.353,263.437,132.037z"/>
		</g>
	</g>
</g>
<g>
	<g>
		<line fill="none" stroke="#808080" stroke-width="4" stroke-miterlimit="10" x1="415" y1="132" x2="458" y2="132"/>
		<g>
			<path fill="#808080" d="M468,132.037c-4.544,1.686-10.181,4.562-13.676,7.609l2.752-7.609l-2.752-7.608
				C457.819,127.476,463.456,130.353,468,132.037z"/>
		</g>
	</g>
</g>
<g>
	<g>
		<line fill="none" stroke="#808080" stroke-width="4" stroke-miterlimit="10" x1="630" y1="132" x2="679" y2="132"/>
		<g>
			<path fill="#808080" d="M688.437,132.037c-4.544,1.686-10.182,4.562-13.676,7.609l2.752-7.609l-2.752-7.608
				C678.255,127.476,683.893,130.353,688.437,132.037z"/>
		</g>
	</g>
</g>
<g>
	<g>
		<line fill="none" stroke="#808080" stroke-width="3" stroke-miterlimit="10" x1="548.5" y1="70" x2="548.5" y2="71"/>
		
			<line fill="none" stroke="#808080" stroke-width="3" stroke-miterlimit="10" stroke-dasharray="2,2" x1="548.5" y1="73" x2="548.5" y2="90"/>
		<line fill="none" stroke="#808080" stroke-width="3" stroke-miterlimit="10" x1="548.5" y1="91" x2="548.5" y2="92"/>
		<g>
			<path fill="#808080" d="M548.468,99.005c-1.265-3.408-3.422-7.636-5.707-10.257l5.707,2.064l5.706-2.064
				C551.889,91.37,549.731,95.598,548.468,99.005z"/>
		</g>
	</g>
</g>
<g>
	<g>
		<line fill="none" stroke="#808080" stroke-width="3" stroke-miterlimit="10" x1="547.5" y1="198" x2="547.5" y2="197"/>
		
			<line fill="none" stroke="#808080" stroke-width="3" stroke-miterlimit="10" stroke-dasharray="2,2" x1="547.5" y1="195" x2="547.5" y2="179"/>
		<line fill="none" stroke="#808080" stroke-width="3" stroke-miterlimit="10" x1="547.5" y1="177" x2="547.5" y2="176"/>
		<g>
			<path fill="#808080" d="M547.532,169.248c1.265,3.408,3.422,7.636,5.707,10.257l-5.707-2.064l-5.706,2.064
				C544.111,176.883,546.269,172.655,547.532,169.248z"/>
		</g>
	</g>
</g>
</svg>
