<svg viewBox="0 0 512 512" xmlns="http://www.w3.org/2000/svg">
<path d="M256 0C114.6151 0 0 114.6151 0 256C0 397.3849 114.6151 512 256 512C397.3849 512 512 397.3849 512 256C512 114.6151 397.3849 0 256 0 z M 256 27.875C381.99 27.875 484.125 130.01 484.125 256C484.125 381.99 381.99 484.125 256 484.125C130.01 484.125 27.875 381.99 27.875 256C27.875 130.01 130.01 27.875 256 27.875 z M 142.7812 94.6875C136.2842 113.5717 134.0318 134.0679 139.8438 151.9688C132.822 159.761 127.3699 168.7125 123.4688 178.8438C113.0704 211.7085 115.6102 253.6917 138.375 279.0938C146.3721 287.8609 157.2218 295.0686 170.875 300.7188C184.5281 306.3683 202.0758 309.9724 223.5312 311.5312C209.131 318.2602 198.9798 322.3717 195.4375 337.25C179.3748 347.9833 159.8422 345.4221 145.6875 333.75C134.5015 325.5826 129.434 311.0668 117.0312 305.6875C116.2512 304.9084 113.8147 304.3273 109.7188 303.9375C105.6227 303.5476 102.4031 304.7097 100.0625 307.4375C98.8922 308.6064 98.9786 309.8552 100.3438 311.2188C109.7332 318.8552 118.77 326.9487 124.0625 336.6562C129.1339 347.1768 134.3826 354.8796 139.8438 359.75C154.9934 369.9871 175.3111 375.3131 193.0938 368.8125C191.0201 381.3263 196.6145 400.8678 192.5 412.0625C190.9394 415.1797 188.707 417.9121 185.7812 420.25C183.1736 422.7937 175.0891 425.976 176.7188 429.875C177.4988 431.6284 180.2251 432.7041 184.9062 433.0938C195.2108 432.8307 205.4689 428.6646 211.5312 420.5312C213.677 417.6089 214.75 413.8008 214.75 409.125L214.75 361.2188C214.75 355.7638 215.9094 351.8691 218.25 349.5312C220.5906 347.1934 223.1441 345.6229 225.875 344.8438L225.875 407.9688C225.875 413.4238 225.3817 418.1035 224.4062 422C223.4308 425.8965 222.5613 428.6289 221.7812 430.1875C219.9905 433.1909 216.567 435.9624 216.5 439.5312C216.5 440.7002 217.1974 441.3677 218.5625 441.5625C228.8108 441.1179 240.7015 435.106 244.875 426.6562C248.191 419.6426 249.8438 412.2617 249.8438 404.4688L249.8438 342.5L262.7188 342.5L262.7188 404.4688C262.7188 412.2617 264.4891 419.6426 268 426.6562C271.5109 433.6699 277.3705 438.1768 285.5625 440.125C289.8533 441.2939 292.7519 441.7573 294.3125 441.5625C295.8731 441.3677 296.5699 440.7002 296.375 439.5312C295.4353 435.9909 293.4775 432.9615 291.4062 430.1875C288.6754 426.6806 287.3125 419.2686 287.3125 407.9688L287.3125 344.8438C290.0433 345.6229 292.6833 347.1934 295.2188 349.5312C297.7542 351.8691 299 355.7638 299 361.2188L299 409.125C299 413.8008 300.073 417.6089 302.2188 420.5312C308.7398 428.824 318.5669 433.031 328.8438 433.0938C333.5249 432.7041 336.2513 431.6284 337.0312 429.875C337.8113 428.1216 337.2315 426.6689 335.2812 425.5C333.331 424.331 330.8945 422.5879 327.9688 420.25C325.043 417.9121 322.8106 415.1797 321.25 412.0625C319.4988 391.9625 321.2053 370.4162 319.7812 350.0938C316.9699 327.916 308.4337 320.6198 291.4062 312.125C311.6914 310.5662 328.3695 306.8447 341.4375 301C380.5021 282.0194 391.3043 252.6768 391.4688 213.3438C390.8527 188.0297 383.5454 165.9471 366.875 149.0312C369.2156 140.0695 369.9129 130.7414 368.9375 121C367.9621 111.2586 365.9018 102.4803 362.7812 94.6875C348.3493 95.4666 336.2537 98.3718 326.5 103.4375C316.7474 108.5031 309.7284 112.8056 305.4375 116.3125C270.8711 108.465 233.8673 108.4177 200.7188 117.4688C183.7566 103.5959 162.735 95.8672 142.7812 94.6875z"/>
</svg>
