<?xml version="1.0" encoding="utf-8"?>
<!-- Generator: Adobe Illustrator 16.0.0, SVG Export Plug-In . SVG Version: 6.00 Build 0)  -->
<!DOCTYPE svg PUBLIC "-//W3C//DTD SVG 1.1//EN" "http://www.w3.org/Graphics/SVG/1.1/DTD/svg11.dtd">
<svg version="1.1" id="Layer_1" xmlns="http://www.w3.org/2000/svg" xmlns:xlink="http://www.w3.org/1999/xlink" x="0px" y="0px"
	 width="60.771px" height="80.996px" viewBox="0 0 60.771 80.996" enable-background="new 0 0 60.771 80.996" xml:space="preserve">
<g>
	<g>
		<path fill="#00FFAA" d="M55.967,4.805v31.127H4.805V4.805H55.967 M60.771,0H0v40.736h60.771V0L60.771,0z"/>
	</g>
	<rect x="19.83" y="52.468" fill="#00FFAA" width="29.635" height="5.146"/>
	<rect x="2.826" y="67.926" fill="#00FFAA" width="34.626" height="2.956"/>
	<rect x="2.826" y="78.039" fill="#00FFAA" width="47.696" height="2.957"/>
	<path fill="#00FFAA" d="M4.565,48.581l-0.527,3.291H1.974v1.457h1.833l-0.403,2.622H1.322v1.458h1.85L2.611,60.93h1.582
		l0.573-3.521H6.66L6.102,60.93h1.582l0.57-3.521h2.021v-1.458H8.49l0.406-2.622h2.03v-1.457h-1.8l0.53-3.291H8.058L7.53,51.872
		H5.637l0.526-3.291H4.565z M5.402,53.329h1.893l-0.401,2.622H4.999L5.402,53.329z"/>
</g>
</svg>
