<?xml version="1.0" encoding="utf-8"?>
<!-- Generator: Adobe Illustrator 16.0.0, SVG Export Plug-In . SVG Version: 6.00 Build 0)  -->
<!DOCTYPE svg PUBLIC "-//W3C//DTD SVG 1.1//EN" "http://www.w3.org/Graphics/SVG/1.1/DTD/svg11.dtd">
<svg version="1.1" id="Layer_1" xmlns="http://www.w3.org/2000/svg" xmlns:xlink="http://www.w3.org/1999/xlink" x="0px" y="0px"
	 width="55.588px" height="77.714px" viewBox="0 0 55.588 77.714" enable-background="new 0 0 55.588 77.714" xml:space="preserve">
<path fill="#00FFAA" d="M0,77.714V0h37.19l1.367,1.366l15.664,15.667l1.367,1.367v59.312H0V77.714z M50.92,24.569
	c-0.207-7.354-16.245-3.456-16.245-3.456s3.34-16.446-3.594-16.446H4.668v68.377l46.252,0.002
	C50.92,73.046,50.92,37.09,50.92,24.569z M17.865,24.622H15.32v4.67h-4.67v-4.67H8.099v-4.201h9.767L17.865,24.622L17.865,24.622z
	 M15.32,38.633h-4.67v-4.67h4.67V38.633z M15.32,47.972h-4.67v-4.668h4.67V47.972z M15.32,55.013v2.333h-4.67v-4.704h4.67V55.013z
	 M24.622,57.346h-4.67v-4.671h4.67V57.346z M33.963,57.346h-4.67v-4.671h4.67V57.346z M43.301,50.298h4.201v9.77h-4.201v-2.722
	h-4.67v-4.671h4.67V50.298z M23.132,20.421l24.371,24.368H23.132V20.421z"/>
</svg>
