<?xml version="1.0" encoding="utf-8"?>
<!-- Generator: Adobe Illustrator 15.1.0, SVG Export Plug-In . SVG Version: 6.00 Build 0)  -->
<!DOCTYPE svg PUBLIC "-//W3C//DTD SVG 1.1//EN" "http://www.w3.org/Graphics/SVG/1.1/DTD/svg11.dtd">
<svg version="1.1" id="Layer_1" xmlns="http://www.w3.org/2000/svg" xmlns:xlink="http://www.w3.org/1999/xlink" x="0px" y="0px"
	 width="488.241px" height="81.93px" viewBox="0 0 488.241 81.93" enable-background="new 0 0 488.241 81.93" xml:space="preserve">
<g>
	<g>
		<path d="M145.425,0c0.697,0,1.412,0.098,2.15,0.291c0.734,0.194,1.063,0.447,0.987,0.755L136.825,81
			c-0.078,0.387-0.447,0.639-1.104,0.756c-0.66,0.115-1.377,0.174-2.15,0.174c-0.854,0-1.589-0.059-2.208-0.174
			c-0.621-0.117-0.97-0.369-1.046-0.756l-3.719-25.102c-0.465-3.098-0.93-6.178-1.395-9.239c-0.465-3.06-0.871-5.771-1.221-8.135
			c-0.348-2.362-0.621-4.3-0.812-5.811c-0.195-1.511-0.291-2.304-0.291-2.382c-0.078-0.309-0.137-0.425-0.174-0.349
			c-0.041,0.078-0.059,0.194-0.059,0.349c0,0.078-0.116,0.854-0.349,2.324c-0.232,1.473-0.522,3.39-0.872,5.752
			c-0.348,2.364-0.755,5.055-1.22,8.076s-0.93,6.121-1.395,9.297c-1.086,7.438-2.325,15.846-3.72,25.219
			c0,0.387-0.367,0.639-1.104,0.756c-0.736,0.115-1.453,0.174-2.15,0.174c-0.62,0-1.298-0.059-2.033-0.174
			c-0.736-0.117-1.104-0.369-1.104-0.756L96.849,1.046c0-0.232,0.25-0.465,0.755-0.697C98.106,0.116,98.899,0,99.985,0
			c1.084,0,1.918,0.02,2.499,0.058c0.581,0.04,0.909,0.252,0.987,0.639l8.135,54.852c0.154,0.775,0.35,0.738,0.582-0.115
			c1.395-10.07,2.633-19.097,3.719-27.078c0.465-3.408,0.93-6.74,1.395-9.994c0.465-3.254,0.871-6.178,1.221-8.774
			c0.348-2.595,0.639-4.687,0.871-6.275c0.232-1.587,0.349-2.42,0.349-2.499c0-0.541,0.93-0.813,2.789-0.813
			s2.827,0.272,2.905,0.813c0,0.078,0.116,0.93,0.349,2.557s0.522,3.719,0.872,6.275c0.348,2.557,0.773,5.462,1.277,8.716
			c0.504,3.254,0.988,6.586,1.453,9.994c1.162,7.98,2.44,17.044,3.835,27.193c0.076,0.389,0.175,0.563,0.29,0.523
			c0.117-0.038,0.213-0.25,0.291-0.639c0.465-3.176,0.89-6.062,1.278-8.658c0.387-2.595,0.831-5.52,1.337-8.774
			c0.502-3.254,0.987-6.584,1.452-9.994c1.162-7.979,2.517-17.043,4.067-27.194c0.076-0.309,0.482-0.523,1.221-0.639
			C143.894,0.058,144.649,0,145.425,0z"/>
		<path d="M160.531,81.93c-2.48,0-3.719-0.349-3.719-1.046V1.278c0-0.309,0.271-0.599,0.813-0.872
			C158.167,0.136,159.097,0,160.415,0c1.316,0,2.266,0.136,2.848,0.407c0.58,0.272,0.871,0.563,0.871,0.872v79.373
			C164.134,81.503,162.932,81.93,160.531,81.93z"/>
		<path d="M202.368,81.523c-0.543,0.27-1.436,0.406-2.674,0.406c-1.24,0-2.111-0.156-2.614-0.465
			c-0.505-0.309-0.833-0.619-0.987-0.93c0-0.076-0.35-1.336-1.047-3.777c-0.697-2.439-1.568-5.461-2.614-9.064
			c-1.046-3.602-2.15-7.495-3.312-11.68c-1.162-4.184-2.267-8.057-3.312-11.621c-1.047-3.562-1.918-6.545-2.615-8.948
			c-0.697-2.4-1.046-3.641-1.046-3.719c-0.078-0.232-0.156-0.367-0.232-0.407c-0.078-0.038-0.116,0.098-0.116,0.407v48.925
			c0,0.232-0.311,0.505-0.93,0.813c-0.621,0.309-1.511,0.465-2.673,0.465c-1.086,0-1.958-0.137-2.614-0.406
			c-0.66-0.271-0.988-0.6-0.988-0.988V1.395c0-0.619,0.291-1.006,0.871-1.162C176.046,0.078,176.955,0,178.195,0
			c2.324,0,3.641,0.311,3.951,0.93c2.401,8.91,4.608,16.929,6.624,24.056c0.852,3.021,1.686,5.985,2.498,8.89
			c0.814,2.905,1.529,5.502,2.15,7.786c0.619,2.286,1.143,4.146,1.569,5.578c0.425,1.435,0.64,2.189,0.64,2.266
			c0.076,0.232,0.154,0.428,0.232,0.582c0.076,0.156,0.115-0.076,0.115-0.697V1.162c0-0.773,1.201-1.162,3.604-1.162
			c2.479,0,3.719,0.427,3.719,1.278l-0.117,79.373C203.181,80.962,202.909,81.252,202.368,81.523z"/>
		<path d="M242.46,1.395c0.154,0.543,0.232,1.24,0.232,2.092c0,0.854-0.098,1.569-0.291,2.15s-0.484,0.872-0.871,0.872h-10.691
			c-0.389,0-0.581,0.232-0.581,0.697v73.446c0,0.389-0.466,0.697-1.396,0.93s-1.666,0.349-2.207,0.349
			c-0.621,0-1.377-0.059-2.267-0.174c-0.892-0.117-1.337-0.369-1.337-0.756V7.205c0-0.465-0.271-0.697-0.812-0.697h-10.576
			c-0.93,0-1.395-0.968-1.395-2.905c0-2.014,0.426-3.021,1.279-3.021h29.866C241.955,0.581,242.304,0.854,242.46,1.395z"/>
		<path d="M271.86,75.887c0.232,0.311,0.348,1.124,0.348,2.44c0,1.24-0.115,2.054-0.348,2.44c-0.232,0.389-0.506,0.581-0.814,0.581
			l-20.453-0.116c-0.621,0-0.93-0.271-0.93-0.813V1.627c0-0.697,0.35-1.046,1.047-1.046h20.104c0.387,0,0.697,0.272,0.93,0.813
			c0.232,0.543,0.35,1.202,0.35,1.976c0,0.697-0.098,1.376-0.291,2.034c-0.193,0.659-0.484,0.988-0.871,0.988h-13.48
			c-0.465,0-0.697,0.232-0.697,0.697v29.286c0,0.465,0.191,0.697,0.58,0.697h12.318c0.232,0,0.484,0.174,0.756,0.523
			s0.406,1.182,0.406,2.499c0,1.318-0.135,2.15-0.406,2.499s-0.562,0.523-0.871,0.523h-11.971c-0.543,0-0.812,0.311-0.812,0.93
			v30.563c0,0.543,0.27,0.813,0.812,0.813h13.365C271.317,75.422,271.628,75.578,271.86,75.887z"/>
		<path d="M308.116,34.748c0,1.24-0.406,2.519-1.219,3.835c-0.814,1.318-1.996,1.976-3.545,1.976c1.549,0,2.73,0.543,3.545,1.627
			c0.812,1.086,1.219,2.208,1.219,3.37v35.097c0,0.852-1.162,1.278-3.486,1.278c-1.086,0-1.975-0.116-2.672-0.349
			s-1.047-0.541-1.047-0.93V46.02c0-0.619-0.098-1.142-0.289-1.568c-0.195-0.425-0.719-0.639-1.57-0.639H288.36
			c-0.543,0-0.812,0.193-0.812,0.58v36.259c0,0.232-0.33,0.485-0.988,0.755c-0.658,0.271-1.531,0.407-2.615,0.407
			c-1.086,0-1.957-0.136-2.613-0.407c-0.66-0.27-0.988-0.561-0.988-0.871V1.395c0-0.541,0.309-0.813,0.93-0.813h18.709
			c2.711,0,4.746,0.892,6.102,2.673c1.355,1.783,2.033,3.719,2.033,5.811V34.748z M297.657,37.769c2.168,0,3.254-1.084,3.254-3.254
			V9.878c0-0.852-0.252-1.627-0.754-2.324c-0.506-0.697-1.453-1.046-2.848-1.046h-8.949c-0.543,0-0.812,0.232-0.812,0.697v29.867
			c0,0.465,0.232,0.697,0.697,0.697H297.657z"/>
		<path d="M340.423,17.2c-1.086,0-1.957-0.155-2.615-0.465c-0.658-0.309-0.988-0.581-0.988-0.813v-5.695
			c0-1.084-0.289-1.976-0.871-2.673c-0.58-0.697-1.531-1.046-2.848-1.046h-1.277h-4.766c-1.24,0-2.17,0.427-2.789,1.278
			c-0.621,0.854-0.93,1.899-0.93,3.138v9.762c0,2.17,0.504,4.125,1.512,5.869c1.006,1.743,2.283,3.428,3.834,5.055
			c1.549,1.627,3.215,3.254,4.998,4.881c1.781,1.627,3.445,3.41,4.996,5.346c1.549,1.937,2.828,4.087,3.836,6.45
			c1.006,2.364,1.51,5.056,1.51,8.077v14.991c0,3.486-0.854,6.024-2.557,7.612c-1.705,1.588-4.223,2.382-7.553,2.382h-7.555
			c-3.332,0-5.85-0.755-7.553-2.267c-1.705-1.51-2.557-3.969-2.557-7.379v-5.694c0-0.232,0.27-0.522,0.812-0.872
			c0.541-0.348,1.471-0.522,2.789-0.522c2.324,0,3.486,0.465,3.486,1.395v5.694c0,1.086,0.309,1.976,0.93,2.673
			c0.619,0.697,1.588,1.046,2.906,1.046h5.926c1.238,0,2.168-0.425,2.789-1.278c0.619-0.852,0.93-1.897,0.93-3.138V56.014
			c0-1.936-0.504-3.814-1.51-5.636c-1.008-1.819-2.287-3.641-3.836-5.462c-1.551-1.819-3.195-3.603-4.938-5.346
			c-1.744-1.743-3.391-3.524-4.939-5.346c-1.551-1.819-2.83-3.641-3.836-5.462c-1.008-1.819-1.51-3.699-1.51-5.636V10.575
			c0-3.486,0.852-6.023,2.557-7.612c1.703-1.587,4.221-2.382,7.553-2.382h7.555c3.33,0,5.848,0.755,7.553,2.266
			c1.703,1.511,2.557,3.971,2.557,7.379v5.695C344.024,16.774,342.823,17.2,340.423,17.2z"/>
		<path d="M383.886,1.743c0.154-0.465,0.715-0.872,1.686-1.22C386.538,0.174,387.798,0,389.347,0c1.551,0,2.848,0.194,3.895,0.581
			c1.045,0.389,1.568,0.892,1.568,1.511v78.443c0,0.311-0.291,0.621-0.871,0.93c-0.582,0.309-1.453,0.465-2.615,0.465
			s-2.092-0.156-2.789-0.465s-1.047-0.581-1.047-0.813V19.408c0-0.309-0.02-0.503-0.057-0.581c-0.041-0.077-0.098,0-0.176,0.232
			c-1.859,6.896-3.486,13.094-4.881,18.594c-0.621,2.324-1.219,4.63-1.801,6.915c-0.58,2.286-1.104,4.34-1.568,6.159
			c-0.465,1.821-0.854,3.294-1.162,4.416c-0.311,1.124-0.465,1.725-0.465,1.801c-0.156,0.389-0.506,0.718-1.047,0.988
			c-0.543,0.272-1.473,0.406-2.789,0.406c-1.318,0-2.266-0.134-2.846-0.406c-0.582-0.271-0.951-0.6-1.105-0.988
			c0-0.076-0.156-0.677-0.465-1.801c-0.311-1.122-0.697-2.595-1.162-4.416c-0.465-1.819-0.986-3.873-1.568-6.159
			c-0.58-2.284-1.182-4.59-1.801-6.915c-1.395-5.5-3.021-11.697-4.881-18.594c-0.078-0.309-0.117-0.193-0.117,0.349v61.244
			c0,0.232-0.348,0.505-1.045,0.813s-1.668,0.465-2.906,0.465c-1.162,0-2.033-0.156-2.613-0.465
			c-0.582-0.309-0.873-0.619-0.873-0.93V2.092c0-0.619,0.541-1.122,1.627-1.511C354.87,0.194,356.149,0,357.622,0
			c1.549,0,2.826,0.174,3.834,0.523c1.006,0.349,1.549,0.755,1.627,1.22l10.459,39.977L383.886,1.743z"/>
		<path d="M408.985,81.93c-2.48,0-3.719-0.349-3.719-1.046V1.278c0-0.309,0.271-0.599,0.814-0.872C406.622,0.136,407.552,0,408.87,0
			c1.316,0,2.266,0.136,2.848,0.407c0.58,0.272,0.871,0.563,0.871,0.872v79.373C412.589,81.503,411.386,81.93,408.985,81.93z"/>
		<path d="M452.913,1.395c0.154,0.543,0.232,1.24,0.232,2.092c0,0.854-0.098,1.569-0.289,2.15c-0.195,0.581-0.486,0.872-0.873,0.872
			h-10.691c-0.389,0-0.58,0.232-0.58,0.697v73.446c0,0.389-0.465,0.697-1.395,0.93s-1.668,0.349-2.209,0.349
			c-0.621,0-1.375-0.059-2.266-0.174c-0.891-0.117-1.336-0.369-1.336-0.756V7.205c0-0.465-0.273-0.697-0.814-0.697h-10.574
			c-0.93,0-1.395-0.968-1.395-2.905c0-2.014,0.424-3.021,1.277-3.021h29.867C452.409,0.581,452.757,0.854,452.913,1.395z"/>
		<path d="M487.138,81.697c-0.738,0.154-1.57,0.232-2.5,0.232c-0.854,0-1.666-0.078-2.439-0.232
			c-0.775-0.156-1.162-0.387-1.162-0.697V43.812c0-0.541-0.273-0.814-0.814-0.814h-12.318c-0.389,0-0.58,0.273-0.58,0.814v36.839
			c0,0.389-0.369,0.697-1.104,0.93c-0.738,0.232-1.57,0.349-2.5,0.349s-1.762-0.059-2.498-0.174
			c-0.736-0.117-1.104-0.369-1.104-0.756V1.162c0-0.232,0.232-0.483,0.697-0.755C461.28,0.136,462.247,0,463.72,0
			c1.395,0,2.344,0.136,2.848,0.407c0.504,0.272,0.756,0.563,0.756,0.872v34.748c0,0.543,0.232,0.813,0.697,0.813h12.201
			c0.541,0,0.814-0.232,0.814-0.697V1.162c0-0.232,0.291-0.483,0.871-0.755c0.582-0.271,1.49-0.407,2.73-0.407
			c2.4,0,3.604,0.427,3.604,1.278v79.605C488.241,81.272,487.872,81.541,487.138,81.697z"/>
	</g>
	<g>
		<path fill="#00FFAA" d="M31.644,57.437c-0.389-0.433-0.748-0.635-0.983-0.558c-1.797,0.604-3.453,1.146-4.861,1.588
			c-1.25,0.377-2.429,0.72-3.511,1.059c-1.057,0.35-1.595,0.513-1.689,0.513c-0.29,0.17-0.431,0.077-0.431-0.21V49.756
			c0-0.301-0.312-0.588-0.884-0.85c-0.532-0.279-1.455-0.396-2.774-0.396c-1.27,0-2.2,0.116-2.771,0.396
			c-0.524,0.262-0.814,0.549-0.814,0.85v10.188c0,0.294-0.103,0.411-0.364,0.311c-0.136,0-0.707-0.165-1.703-0.526
			c-0.941-0.402-2.087-0.789-3.249-1.146c-1.361-0.465-2.91-1.02-4.679-1.703c-0.276-0.147-0.66,0.017-1.099,0.512
			c-0.45,0.479-0.881,1.361-1.218,2.554c-0.497,1.194-0.687,2.107-0.59,2.702c0.094,0.596,0.188,0.944,0.436,1.014
			c1.899,0.612,3.561,1.162,5.013,1.714c1.267,0.423,2.432,0.856,3.5,1.229c1.085,0.394,1.609,0.557,1.698,0.557
			c0.188,0.172,0.257,0.318,0.094,0.465c-0.094,0.077-0.431,0.572-1.062,1.464c-0.626,0.919-1.414,1.896-2.189,2.941
			c-0.928,1.292-1.99,2.671-3.216,4.179c-0.141,0.328-0.094,0.736,0.215,1.271c0.234,0.533,0.903,1.199,1.932,2.021
			c1.03,0.751,1.803,1.191,2.435,1.315c0.585,0.093,0.958,0.045,1.085-0.17c1.049-1.44,2.073-2.771,2.962-3.964
			c0.767-1.052,1.466-1.998,2.134-2.825c0.692-0.836,1.109-1.31,1.25-1.479c0.155-0.371,0.392-0.418,0.679-0.093
			c0.05,0.139,0.406,0.619,1.024,1.455c0.607,0.805,1.272,1.764,2.06,2.82c0.809,1.221,1.777,2.529,2.909,3.962
			c0.141,0.31,0.53,0.387,1.184,0.294c0.572-0.124,1.408-0.564,2.424-1.315c1.054-0.759,1.75-1.394,2.045-1.929
			c0.281-0.51,0.37-0.89,0.229-1.107l-6.374-8.84c-0.202-0.389-0.141-0.604,0.141-0.674l10.089-3.166
			c0.809-0.326,0.856-1.58,0.094-3.841C32.431,58.752,32.042,57.893,31.644,57.437z"/>
		<path fill="#00FFAA" d="M76.624,57.437c-0.39-0.433-0.746-0.635-0.982-0.558c-1.798,0.604-3.451,1.146-4.859,1.588
			c-1.253,0.377-2.429,0.72-3.514,1.059c-1.057,0.35-1.595,0.513-1.689,0.513c-0.29,0.17-0.431,0.077-0.431-0.21V49.756
			c0-0.301-0.31-0.588-0.881-0.85c-0.533-0.279-1.455-0.396-2.774-0.396c-1.272,0-2.2,0.116-2.774,0.396
			c-0.524,0.262-0.814,0.549-0.814,0.85v10.188c0,0.294-0.1,0.411-0.362,0.311c-0.135,0-0.707-0.165-1.703-0.526
			c-0.944-0.402-2.086-0.789-3.251-1.146c-1.361-0.465-2.907-1.02-4.679-1.703c-0.276-0.147-0.66,0.017-1.096,0.512
			c-0.45,0.479-0.881,1.361-1.218,2.554c-0.5,1.194-0.687,2.107-0.593,2.702c0.094,0.596,0.188,0.944,0.439,1.014
			c1.896,0.612,3.558,1.162,5.013,1.714c1.264,0.423,2.429,0.856,3.5,1.229c1.085,0.394,1.609,0.557,1.695,0.557
			c0.19,0.172,0.257,0.318,0.097,0.465c-0.097,0.077-0.431,0.572-1.065,1.464c-0.624,0.919-1.414,1.896-2.186,2.941
			c-0.931,1.292-1.993,2.671-3.219,4.179c-0.141,0.328-0.094,0.736,0.215,1.271c0.237,0.533,0.903,1.199,1.932,2.021
			c1.03,0.751,1.806,1.191,2.438,1.315c0.585,0.093,0.955,0.045,1.082-0.17c1.052-1.44,2.076-2.771,2.962-3.964
			c0.768-1.052,1.468-1.998,2.134-2.825c0.695-0.836,1.112-1.31,1.253-1.479c0.155-0.371,0.39-0.418,0.679-0.093
			c0.047,0.139,0.403,0.619,1.024,1.455c0.604,0.805,1.272,1.764,2.06,2.82c0.809,1.221,1.778,2.529,2.907,3.962
			c0.143,0.31,0.533,0.387,1.184,0.294c0.574-0.124,1.408-0.564,2.424-1.315c1.057-0.759,1.75-1.394,2.045-1.929
			c0.285-0.51,0.373-0.89,0.229-1.107l-6.374-8.84c-0.201-0.389-0.141-0.604,0.145-0.674L77.7,63.785
			c0.809-0.326,0.855-1.58,0.096-3.841C77.413,58.752,77.021,57.893,76.624,57.437z"/>
	</g>
	<path fill="#00FFAA" d="M54.129,11.172c-0.389-0.432-0.745-0.634-0.974-0.556c-1.797,0.603-3.453,1.146-4.867,1.588
		c-1.253,0.377-2.423,0.718-3.514,1.059c-1.049,0.35-1.587,0.512-1.684,0.512c-0.295,0.168-0.436,0.077-0.436-0.21V3.493
		c0-0.301-0.309-0.588-0.88-0.852C41.247,2.364,40.32,2.248,39,2.248c-1.265,0-2.195,0.116-2.766,0.394
		c-0.533,0.264-0.823,0.551-0.823,0.852v10.188c0,0.292-0.094,0.411-0.356,0.311c-0.141,0-0.712-0.165-1.703-0.526
		c-0.95-0.403-2.092-0.791-3.257-1.147c-1.358-0.465-2.906-1.02-4.67-1.703c-0.276-0.148-0.668,0.017-1.099,0.512
		c-0.45,0.479-0.88,1.36-1.223,2.553c-0.5,1.194-0.682,2.107-0.593,2.702c0.094,0.596,0.188,0.944,0.436,1.013
		c1.904,0.613,3.561,1.162,5.015,1.714c1.272,0.424,2.429,0.857,3.5,1.23c1.085,0.393,1.609,0.556,1.703,0.556
		c0.188,0.171,0.249,0.319,0.094,0.465c-0.094,0.077-0.436,0.573-1.071,1.464c-0.619,0.919-1.405,1.896-2.181,2.939
		c-0.928,1.293-1.999,2.671-3.225,4.181c-0.132,0.327-0.085,0.735,0.216,1.271c0.237,0.533,0.902,1.2,1.94,2.021
		c1.021,0.751,1.797,1.191,2.435,1.315c0.588,0.092,0.958,0.045,1.079-0.169c1.055-1.441,2.079-2.771,2.959-3.964
		c0.776-1.052,1.474-1.999,2.134-2.827c0.693-0.835,1.118-1.309,1.253-1.478c0.16-0.372,0.389-0.42,0.687-0.093
		c0.039,0.138,0.403,0.618,1.021,1.455c0.599,0.805,1.267,1.764,2.054,2.818c0.806,1.223,1.783,2.531,2.915,3.964
		c0.141,0.309,0.524,0.386,1.176,0.294c0.574-0.124,1.408-0.564,2.432-1.315c1.049-0.759,1.75-1.394,2.045-1.929
		c0.276-0.509,0.37-0.889,0.229-1.107l-6.382-8.84c-0.201-0.388-0.135-0.605,0.141-0.674l10.097-3.167
		c0.801-0.324,0.848-1.579,0.088-3.839C54.919,12.488,54.535,11.63,54.129,11.172z"/>
</g>
</svg>
