<?xml version="1.0" encoding="utf-8"?>
<!-- Generator: Adobe Illustrator 16.0.0, SVG Export Plug-In . SVG Version: 6.00 Build 0)  -->
<!DOCTYPE svg PUBLIC "-//W3C//DTD SVG 1.1//EN" "http://www.w3.org/Graphics/SVG/1.1/DTD/svg11.dtd">
<svg version="1.1" id="Layer_1" xmlns="http://www.w3.org/2000/svg" xmlns:xlink="http://www.w3.org/1999/xlink" x="0px" y="0px"
	 width="126.006px" height="126.005px" viewBox="0 0 126.006 126.005" enable-background="new 0 0 126.006 126.005"
	 xml:space="preserve">
<path fill-rule="evenodd" clip-rule="evenodd" fill="#00FFAA" d="M109.77,85.136V58.562H83.196
	c-2.032-9.283-10.299-16.235-20.193-16.235c-9.895,0-18.162,6.952-20.194,16.235H25.118V40.869
	c9.284-2.032,16.235-10.298,16.235-20.193C41.353,9.256,32.096,0,20.677,0C9.258,0,0,9.256,0,20.675
	c0,9.895,6.952,18.161,16.236,20.193v26.574H42.81c2.033,9.285,10.299,16.236,20.194,16.236c9.894,0,18.16-6.951,20.193-16.236
	h17.691v17.693c-9.284,2.032-16.235,10.298-16.235,20.192c0,11.419,9.257,20.677,20.677,20.677c11.419,0,20.677-9.258,20.677-20.677
	C126.006,95.434,119.054,87.168,109.77,85.136z M8.881,20.675c0-6.503,5.292-11.794,11.796-11.794
	c6.504,0,11.795,5.291,11.795,11.794c0,6.504-5.291,11.796-11.795,11.796C14.173,32.471,8.881,27.179,8.881,20.675z M63.003,74.798
	c-6.504,0-11.795-5.292-11.795-11.796c0-6.504,5.291-11.794,11.795-11.794c6.503,0,11.794,5.29,11.794,11.794
	C74.798,69.505,69.507,74.798,63.003,74.798z M105.329,117.123c-6.505,0-11.796-5.292-11.796-11.795
	c0-6.504,5.291-11.794,11.796-11.794c6.504,0,11.796,5.29,11.796,11.794C117.125,111.832,111.833,117.123,105.329,117.123z"/>
</svg>
