<?xml version="1.0" encoding="utf-8"?>
<!-- Generator: Adobe Illustrator 16.0.0, SVG Export Plug-In . SVG Version: 6.00 Build 0)  -->
<!DOCTYPE svg PUBLIC "-//W3C//DTD SVG 1.1//EN" "http://www.w3.org/Graphics/SVG/1.1/DTD/svg11.dtd">
<svg version="1.1" id="Layer_1" xmlns="http://www.w3.org/2000/svg" xmlns:xlink="http://www.w3.org/1999/xlink" x="0px" y="0px"
	 width="66.454px" height="59.239px" viewBox="0 0 66.454 59.239" enable-background="new 0 0 66.454 59.239" xml:space="preserve">
<path fill="#00FFAA" d="M63.733,0H2.722C1.217,0,0,1.221,0,2.722v5.466v3.103v47.95h66.454V11.29V8.188V2.722
	C66.454,1.221,65.234,0,63.733,0z M22.399,4.565c1.185,0,2.143,0.961,2.143,2.143c0,1.187-0.958,2.145-2.143,2.145
	c-1.182,0-2.142-0.958-2.142-2.145C20.258,5.526,21.218,4.565,22.399,4.565z M14.731,4.565c1.182,0,2.143,0.961,2.143,2.143
	c0,1.187-0.961,2.145-2.143,2.145c-1.184,0-2.142-0.958-2.142-2.145C12.59,5.526,13.548,4.565,14.731,4.565z M7.061,4.565
	c1.185,0,2.145,0.961,2.145,2.143c0,1.187-0.96,2.145-2.145,2.145c-1.182,0-2.142-0.958-2.142-2.145
	C4.919,5.526,5.879,4.565,7.061,4.565z M4.684,12.869h26.408v41.687H4.684V12.869z M61.771,54.556H33.918V12.869h27.853V54.556z"/>
</svg>
