<?xml version="1.0" encoding="utf-8"?>
<!-- Generator: Adobe Illustrator 16.0.0, SVG Export Plug-In . SVG Version: 6.00 Build 0)  -->
<!DOCTYPE svg PUBLIC "-//W3C//DTD SVG 1.1//EN" "http://www.w3.org/Graphics/SVG/1.1/DTD/svg11.dtd">
<svg version="1.1" id="Layer_1" xmlns="http://www.w3.org/2000/svg" xmlns:xlink="http://www.w3.org/1999/xlink" x="0px" y="0px"
	 width="67.859px" height="90.575px" viewBox="0 0 67.859 90.575" enable-background="new 0 0 67.859 90.575" xml:space="preserve">
<g>
	<g>
		<g>
			<path fill="#00FFAA" d="M52.133,51.978h-2.269l-0.748,4.665H46.43l0.748-4.665h-2.268l-0.75,4.665h-2.926v2.07h2.598l-0.57,3.719
				h-2.951v2.066h2.623l-0.795,4.996h2.243l0.817-4.996h2.683l-0.79,4.996h2.244l0.81-4.996h2.865v-2.066H50.48l0.574-3.719h2.882
				v-2.07h-2.554L52.133,51.978z M48.214,62.432h-2.688l0.574-3.719h2.683L48.214,62.432z M14.695,55.693l-2.333,2.022l0.685-3.059
				h-2.266l0.704,3.059L9.153,55.67l-1.104,1.806l2.995,0.966l-2.951,0.991l1.079,1.805l2.333-2.11l-0.723,3.103h2.266l-0.704-3.103
				l2.333,2.11l1.055-1.805l-2.948-0.991l2.992-0.966L14.695,55.693z M33.929,80.211l6.82,3.676l-6.82,3.695v2.992l10.74-6.119
				v-1.117l-10.74-6.123V80.211z M24.585,60.06h-2.556v5.218h-5.214v2.531h5.214v5.214h2.556v-5.214h5.214v-2.531h-5.214V60.06z
				 M59.512,75.557H56.1c-0.884,0-1.434-0.044-2.067-0.133v2.926c0.724-0.107,1.209-0.133,2.067-0.133h3.412
				c0.901,0,1.362,0.025,2.087,0.133v-2.926C60.961,75.513,60.414,75.557,59.512,75.557z"/>
		</g>
	</g>
	<path fill="none" stroke="#00FFAA" stroke-width="4.8052" d="M56.787,21.046c0.312-1.207,0.482-2.468,0.482-3.771
		c0-8.213-6.663-14.873-14.875-14.873c-6.172,0-11.47,3.765-13.723,9.125c-1.927-2.269-4.797-3.709-8.013-3.709
		c-5.816,0-10.531,4.712-10.531,10.527c0,0.997,0.145,1.963,0.403,2.882c-4.745,1.739-8.129,6.299-8.129,11.651
		c0,6.849,5.548,12.408,12.405,12.408h38.244c6.855,0,12.404-5.56,12.404-12.408C65.457,27.325,61.813,22.627,56.787,21.046z"/>
</g>
</svg>
