<?xml version="1.0" encoding="utf-8"?>
<!-- Generator: Adobe Illustrator 15.1.0, SVG Export Plug-In . SVG Version: 6.00 Build 0)  -->
<!DOCTYPE svg PUBLIC "-//W3C//DTD SVG 1.1//EN" "http://www.w3.org/Graphics/SVG/1.1/DTD/svg11.dtd">
<svg version="1.1" id="Layer_1" xmlns="http://www.w3.org/2000/svg" xmlns:xlink="http://www.w3.org/1999/xlink" x="0px" y="0px"
	 width="55.588px" height="77.714px" viewBox="0 0 55.588 77.714" enable-background="new 0 0 55.588 77.714" xml:space="preserve">
<g>
	<path d="M1.16-342.075c0.697,0,1.413,0.098,2.15,0.291c0.735,0.194,1.064,0.447,0.988,0.755L-7.44-261.075
		c-0.078,0.387-0.447,0.639-1.104,0.755c-0.659,0.116-1.376,0.174-2.15,0.174c-0.854,0-1.589-0.058-2.208-0.174
		c-0.621-0.116-0.97-0.369-1.046-0.755l-3.719-25.102c-0.465-3.098-0.93-6.177-1.395-9.239c-0.465-3.06-0.872-5.771-1.22-8.135
		c-0.349-2.362-0.621-4.3-0.813-5.811c-0.194-1.511-0.291-2.304-0.291-2.382c-0.078-0.309-0.136-0.425-0.174-0.349
		c-0.04,0.078-0.058,0.194-0.058,0.349c0,0.078-0.116,0.854-0.349,2.324c-0.232,1.473-0.523,3.39-0.872,5.752
		c-0.349,2.364-0.755,5.055-1.22,8.077s-0.93,6.121-1.395,9.297c-1.086,7.438-2.325,15.845-3.719,25.218
		c0,0.387-0.368,0.639-1.104,0.755c-0.737,0.116-1.453,0.174-2.15,0.174c-0.621,0-1.298-0.058-2.034-0.174
		c-0.737-0.116-1.104-0.369-1.104-0.755l-11.854-79.954c0-0.232,0.25-0.465,0.755-0.697c0.503-0.232,1.296-0.349,2.382-0.349
		c1.084,0,1.917,0.02,2.499,0.058c0.581,0.04,0.91,0.252,0.988,0.639l8.135,54.852c0.154,0.775,0.349,0.737,0.581-0.116
		c1.395-10.07,2.633-19.097,3.719-27.077c0.465-3.408,0.93-6.74,1.395-9.994c0.465-3.254,0.872-6.178,1.22-8.774
		c0.349-2.595,0.639-4.687,0.872-6.275c0.232-1.587,0.349-2.42,0.349-2.499c0-0.541,0.93-0.813,2.789-0.813s2.827,0.272,2.905,0.813
		c0,0.078,0.116,0.93,0.349,2.557s0.523,3.719,0.872,6.275s0.773,5.462,1.278,8.716c0.503,3.254,0.988,6.586,1.453,9.994
		c1.162,7.98,2.44,17.045,3.835,27.193c0.076,0.389,0.174,0.563,0.291,0.523c0.116-0.038,0.212-0.25,0.291-0.639
		c0.465-3.176,0.89-6.061,1.278-8.658c0.387-2.595,0.832-5.52,1.336-8.774c0.503-3.254,0.988-6.584,1.453-9.994
		c1.162-7.979,2.517-17.043,4.067-27.194c0.076-0.309,0.483-0.523,1.22-0.639C-0.371-342.017,0.384-342.075,1.16-342.075z"/>
	<path d="M16.266-260.146c-2.48,0-3.719-0.349-3.719-1.046v-79.605c0-0.309,0.271-0.599,0.813-0.872
		c0.541-0.271,1.471-0.407,2.789-0.407c1.316,0,2.266,0.136,2.847,0.407c0.581,0.272,0.872,0.563,0.872,0.872v79.373
		C19.869-260.572,18.667-260.146,16.266-260.146z"/>
	<path d="M58.103-260.552c-0.543,0.271-1.435,0.407-2.673,0.407c-1.24,0-2.112-0.156-2.615-0.465
		c-0.505-0.309-0.833-0.619-0.988-0.93c0-0.076-0.349-1.336-1.046-3.777s-1.569-5.462-2.615-9.064
		c-1.046-3.603-2.15-7.496-3.312-11.68c-1.162-4.184-2.266-8.057-3.312-11.621c-1.046-3.562-1.917-6.546-2.615-8.948
		c-0.697-2.4-1.046-3.641-1.046-3.719c-0.078-0.232-0.156-0.367-0.232-0.407c-0.078-0.038-0.116,0.098-0.116,0.407v48.925
		c0,0.232-0.311,0.505-0.93,0.813c-0.621,0.309-1.511,0.465-2.673,0.465c-1.086,0-1.958-0.136-2.615-0.407
		c-0.659-0.271-0.988-0.599-0.988-0.988v-79.141c0-0.619,0.291-1.006,0.872-1.162c0.581-0.154,1.491-0.232,2.731-0.232
		c2.324,0,3.641,0.311,3.951,0.93c2.401,8.91,4.609,16.929,6.624,24.056c0.852,3.021,1.685,5.985,2.499,8.89
		c0.814,2.905,1.529,5.502,2.15,7.786c0.619,2.286,1.142,4.146,1.569,5.578c0.425,1.435,0.639,2.19,0.639,2.266
		c0.076,0.232,0.154,0.427,0.232,0.581c0.076,0.156,0.116-0.076,0.116-0.697v-48.228c0-0.773,1.2-1.162,3.603-1.162
		c2.479,0,3.719,0.427,3.719,1.278l-0.116,79.373C58.916-261.113,58.644-260.823,58.103-260.552z"/>
	<path d="M98.195-340.681c0.154,0.543,0.232,1.24,0.232,2.092c0,0.854-0.098,1.569-0.291,2.15c-0.194,0.581-0.485,0.872-0.872,0.872
		H86.574c-0.389,0-0.581,0.232-0.581,0.697v73.446c0,0.389-0.465,0.697-1.395,0.93s-1.667,0.349-2.208,0.349
		c-0.621,0-1.376-0.058-2.266-0.174c-0.892-0.116-1.336-0.369-1.336-0.755v-73.795c0-0.465-0.272-0.697-0.813-0.697H67.398
		c-0.93,0-1.395-0.968-1.395-2.905c0-2.014,0.425-3.021,1.278-3.021h29.867C97.69-341.494,98.039-341.222,98.195-340.681z"/>
	<path d="M127.595-266.188c0.232,0.311,0.349,1.124,0.349,2.44c0,1.24-0.116,2.054-0.349,2.44c-0.232,0.389-0.505,0.581-0.813,0.581
		l-20.453-0.116c-0.621,0-0.93-0.271-0.93-0.813v-78.792c0-0.697,0.349-1.046,1.046-1.046h20.104c0.387,0,0.697,0.272,0.93,0.813
		c0.232,0.543,0.349,1.202,0.349,1.976c0,0.697-0.098,1.376-0.29,2.034c-0.194,0.659-0.485,0.988-0.872,0.988h-13.48
		c-0.465,0-0.697,0.232-0.697,0.697v29.286c0,0.465,0.192,0.697,0.581,0.697h12.318c0.232,0,0.483,0.174,0.756,0.523
		c0.271,0.349,0.406,1.182,0.406,2.499c0,1.318-0.136,2.15-0.406,2.499c-0.272,0.349-0.563,0.523-0.872,0.523h-11.97
		c-0.543,0-0.813,0.311-0.813,0.93v30.564c0,0.543,0.271,0.813,0.813,0.813h13.364C127.052-266.653,127.362-266.497,127.595-266.188
		z"/>
	<path d="M163.852-307.328c0,1.24-0.406,2.519-1.22,3.835c-0.813,1.318-1.996,1.976-3.545,1.976c1.549,0,2.731,0.543,3.545,1.627
		c0.813,1.086,1.22,2.208,1.22,3.37v35.096c0,0.852-1.162,1.278-3.486,1.278c-1.086,0-1.976-0.116-2.673-0.349
		s-1.046-0.541-1.046-0.93v-34.631c0-0.619-0.098-1.142-0.29-1.569c-0.194-0.425-0.718-0.639-1.569-0.639h-10.691
		c-0.543,0-0.813,0.194-0.813,0.581v36.258c0,0.232-0.33,0.485-0.987,0.755c-0.659,0.271-1.531,0.407-2.615,0.407
		c-1.086,0-1.957-0.136-2.614-0.407c-0.659-0.271-0.988-0.561-0.988-0.872v-79.141c0-0.541,0.309-0.813,0.93-0.813h18.71
		c2.711,0,4.745,0.892,6.102,2.673c1.354,1.783,2.033,3.719,2.033,5.811V-307.328z M153.393-304.306
		c2.168,0,3.254-1.084,3.254-3.254v-24.637c0-0.852-0.252-1.627-0.755-2.324c-0.505-0.697-1.453-1.046-2.848-1.046h-8.948
		c-0.543,0-0.813,0.232-0.813,0.697v29.867c0,0.465,0.232,0.697,0.697,0.697H153.393z"/>
	<path d="M196.157-324.875c-1.086,0-1.957-0.155-2.614-0.465c-0.659-0.309-0.988-0.581-0.988-0.813v-5.695
		c0-1.084-0.29-1.976-0.871-2.673s-1.531-1.046-2.848-1.046h-1.278h-4.765c-1.24,0-2.17,0.427-2.789,1.278
		c-0.621,0.854-0.93,1.899-0.93,3.138v9.762c0,2.17,0.503,4.125,1.511,5.869c1.006,1.743,2.284,3.428,3.835,5.055
		c1.549,1.627,3.214,3.254,4.997,4.881c1.781,1.627,3.446,3.41,4.997,5.346c1.549,1.938,2.827,4.087,3.835,6.45
		c1.006,2.364,1.511,5.055,1.511,8.077v14.992c0,3.486-0.854,6.025-2.557,7.612c-1.705,1.589-4.224,2.382-7.554,2.382h-7.554
		c-3.332,0-5.851-0.755-7.554-2.266c-1.705-1.511-2.557-3.969-2.557-7.379v-5.694c0-0.232,0.271-0.523,0.813-0.872
		c0.541-0.349,1.471-0.523,2.789-0.523c2.324,0,3.486,0.465,3.486,1.395v5.694c0,1.086,0.309,1.976,0.93,2.673
		c0.619,0.697,1.587,1.046,2.905,1.046h5.927c1.238,0,2.168-0.425,2.789-1.278c0.619-0.852,0.93-1.897,0.93-3.138v-14.992
		c0-1.936-0.505-3.815-1.511-5.636c-1.008-1.819-2.286-3.641-3.835-5.462c-1.551-1.819-3.195-3.603-4.938-5.346
		s-3.391-3.524-4.939-5.346c-1.551-1.819-2.829-3.641-3.835-5.462c-1.008-1.819-1.511-3.699-1.511-5.636V-331.5
		c0-3.486,0.852-6.023,2.557-7.612c1.703-1.587,4.222-2.382,7.554-2.382h7.554c3.33,0,5.849,0.755,7.554,2.266
		c1.703,1.511,2.557,3.971,2.557,7.379v5.695C199.76-325.301,198.558-324.875,196.157-324.875z"/>
	<path d="M239.62-340.332c0.154-0.465,0.716-0.872,1.686-1.22c0.968-0.349,2.227-0.523,3.776-0.523s2.848,0.194,3.894,0.581
		c1.046,0.389,1.569,0.892,1.569,1.511v78.443c0,0.311-0.291,0.621-0.872,0.93s-1.452,0.465-2.615,0.465
		c-1.162,0-2.092-0.156-2.789-0.465s-1.046-0.581-1.046-0.813v-61.244c0-0.309-0.02-0.503-0.058-0.581
		c-0.04-0.077-0.098,0-0.175,0.232c-1.859,6.896-3.486,13.094-4.881,18.594c-0.621,2.324-1.22,4.63-1.801,6.915
		c-0.581,2.286-1.104,4.34-1.569,6.159c-0.465,1.821-0.854,3.294-1.162,4.416c-0.311,1.124-0.465,1.725-0.465,1.801
		c-0.156,0.389-0.505,0.717-1.046,0.988c-0.543,0.272-1.473,0.407-2.789,0.407c-1.318,0-2.266-0.134-2.847-0.407
		c-0.581-0.271-0.95-0.599-1.104-0.988c0-0.076-0.156-0.677-0.465-1.801c-0.311-1.122-0.697-2.595-1.162-4.416
		c-0.465-1.819-0.987-3.873-1.568-6.159c-0.581-2.284-1.183-4.59-1.802-6.915c-1.395-5.5-3.021-11.697-4.881-18.594
		c-0.078-0.309-0.116-0.193-0.116,0.349v61.244c0,0.232-0.349,0.505-1.046,0.813s-1.667,0.465-2.905,0.465
		c-1.162,0-2.033-0.156-2.614-0.465s-0.872-0.619-0.872-0.93v-78.443c0-0.619,0.541-1.122,1.627-1.511
		c1.084-0.387,2.362-0.581,3.835-0.581c1.549,0,2.827,0.174,3.835,0.523c1.006,0.349,1.549,0.755,1.627,1.22l10.459,39.977
		L239.62-340.332z"/>
	<path d="M264.721-260.146c-2.48,0-3.719-0.349-3.719-1.046v-79.605c0-0.309,0.271-0.599,0.813-0.872
		c0.541-0.271,1.471-0.407,2.789-0.407c1.316,0,2.267,0.136,2.848,0.407c0.581,0.272,0.871,0.563,0.871,0.872v79.373
		C268.323-260.572,267.121-260.146,264.721-260.146z"/>
	<path d="M308.648-340.681c0.154,0.543,0.232,1.24,0.232,2.092c0,0.854-0.098,1.569-0.29,2.15c-0.194,0.581-0.485,0.872-0.872,0.872
		h-10.691c-0.389,0-0.581,0.232-0.581,0.697v73.446c0,0.389-0.465,0.697-1.395,0.93s-1.667,0.349-2.208,0.349
		c-0.621,0-1.376-0.058-2.266-0.174c-0.892-0.116-1.337-0.369-1.337-0.755v-73.795c0-0.465-0.272-0.697-0.813-0.697h-10.575
		c-0.93,0-1.395-0.968-1.395-2.905c0-2.014,0.425-3.021,1.278-3.021h29.866C308.144-341.494,308.492-341.222,308.648-340.681z"/>
	<path d="M342.872-260.378c-0.737,0.154-1.569,0.232-2.499,0.232c-0.854,0-1.667-0.078-2.44-0.232
		c-0.775-0.156-1.162-0.387-1.162-0.697v-37.188c0-0.541-0.272-0.813-0.813-0.813h-12.318c-0.389,0-0.581,0.272-0.581,0.813v36.839
		c0,0.389-0.368,0.697-1.104,0.93c-0.737,0.232-1.569,0.349-2.499,0.349s-1.763-0.058-2.498-0.174
		c-0.737-0.116-1.104-0.369-1.104-0.755v-79.838c0-0.232,0.232-0.483,0.697-0.755c0.465-0.271,1.433-0.407,2.905-0.407
		c1.395,0,2.343,0.136,2.848,0.407c0.503,0.272,0.755,0.563,0.755,0.872v34.748c0,0.543,0.232,0.813,0.697,0.813h12.202
		c0.541,0,0.813-0.232,0.813-0.697v-34.98c0-0.232,0.291-0.483,0.872-0.755c0.581-0.271,1.49-0.407,2.73-0.407
		c2.4,0,3.603,0.427,3.603,1.278v79.605C343.976-260.803,343.607-260.534,342.872-260.378z"/>
</g>
<g>
	<path fill="#00FFAA" d="M-112.621-284.639c-0.389-0.432-0.748-0.635-0.983-0.558c-1.797,0.603-3.453,1.147-4.861,1.588
		c-1.25,0.377-2.429,0.719-3.511,1.059c-1.057,0.349-1.595,0.512-1.689,0.512c-0.29,0.17-0.431,0.077-0.431-0.21v-10.072
		c0-0.301-0.312-0.588-0.884-0.85c-0.532-0.279-1.455-0.395-2.774-0.395c-1.27,0-2.2,0.116-2.771,0.395
		c-0.524,0.262-0.814,0.549-0.814,0.85v10.188c0,0.294-0.103,0.411-0.364,0.311c-0.136,0-0.707-0.165-1.703-0.526
		c-0.941-0.403-2.087-0.79-3.249-1.147c-1.361-0.465-2.91-1.02-4.679-1.703c-0.276-0.147-0.66,0.017-1.099,0.512
		c-0.45,0.479-0.881,1.361-1.218,2.554c-0.497,1.194-0.687,2.107-0.59,2.702c0.094,0.596,0.188,0.944,0.436,1.013
		c1.899,0.613,3.561,1.162,5.013,1.714c1.267,0.423,2.432,0.857,3.5,1.229c1.085,0.394,1.609,0.556,1.698,0.556
		c0.188,0.172,0.257,0.319,0.094,0.465c-0.094,0.077-0.431,0.572-1.062,1.464c-0.626,0.919-1.414,1.896-2.189,2.941
		c-0.928,1.292-1.99,2.671-3.216,4.179c-0.141,0.327-0.094,0.736,0.215,1.271c0.234,0.533,0.903,1.199,1.932,2.021
		c1.03,0.751,1.803,1.191,2.435,1.315c0.585,0.093,0.958,0.045,1.085-0.17c1.049-1.44,2.073-2.771,2.962-3.964
		c0.767-1.052,1.466-1.998,2.134-2.825c0.692-0.836,1.109-1.31,1.25-1.479c0.155-0.371,0.392-0.418,0.679-0.092
		c0.05,0.138,0.406,0.618,1.024,1.455c0.607,0.805,1.272,1.764,2.06,2.82c0.809,1.221,1.777,2.53,2.909,3.962
		c0.141,0.309,0.53,0.387,1.184,0.294c0.572-0.124,1.408-0.564,2.424-1.315c1.054-0.759,1.75-1.394,2.045-1.929
		c0.281-0.509,0.37-0.889,0.229-1.107l-6.374-8.84c-0.202-0.388-0.141-0.604,0.141-0.674l10.089-3.166
		c0.809-0.326,0.856-1.58,0.094-3.841C-111.834-283.323-112.224-284.182-112.621-284.639z"/>
	<path fill="#00FFAA" d="M-67.642-284.639c-0.389-0.432-0.745-0.635-0.982-0.558c-1.797,0.603-3.451,1.147-4.858,1.588
		c-1.253,0.377-2.429,0.719-3.514,1.059c-1.058,0.349-1.596,0.512-1.689,0.512c-0.29,0.17-0.431,0.077-0.431-0.21v-10.072
		c0-0.301-0.31-0.588-0.881-0.85c-0.533-0.279-1.455-0.395-2.774-0.395c-1.272,0-2.2,0.116-2.774,0.395
		c-0.524,0.262-0.814,0.549-0.814,0.85v10.188c0,0.294-0.1,0.411-0.362,0.311c-0.135,0-0.707-0.165-1.703-0.526
		c-0.944-0.403-2.086-0.79-3.251-1.147c-1.361-0.465-2.907-1.02-4.679-1.703c-0.276-0.147-0.66,0.017-1.096,0.512
		c-0.45,0.479-0.881,1.361-1.218,2.554c-0.5,1.194-0.687,2.107-0.593,2.702c0.094,0.596,0.188,0.944,0.439,1.013
		c1.896,0.613,3.558,1.162,5.013,1.714c1.264,0.423,2.429,0.857,3.5,1.229c1.085,0.394,1.609,0.556,1.695,0.556
		c0.19,0.172,0.257,0.319,0.097,0.465c-0.097,0.077-0.431,0.572-1.065,1.464c-0.624,0.919-1.414,1.896-2.186,2.941
		c-0.931,1.292-1.993,2.671-3.219,4.179c-0.141,0.327-0.094,0.736,0.215,1.271c0.237,0.533,0.903,1.199,1.932,2.021
		c1.03,0.751,1.806,1.191,2.438,1.315c0.585,0.093,0.955,0.045,1.082-0.17c1.052-1.44,2.076-2.771,2.962-3.964
		c0.768-1.052,1.468-1.998,2.134-2.825c0.695-0.836,1.112-1.31,1.253-1.479c0.155-0.371,0.39-0.418,0.679-0.092
		c0.047,0.138,0.403,0.618,1.024,1.455c0.604,0.805,1.272,1.764,2.06,2.82c0.809,1.221,1.777,2.53,2.906,3.962
		c0.144,0.309,0.533,0.387,1.185,0.294c0.574-0.124,1.408-0.564,2.423-1.315c1.057-0.759,1.75-1.394,2.045-1.929
		c0.284-0.509,0.373-0.889,0.229-1.107l-6.374-8.84c-0.201-0.388-0.141-0.604,0.144-0.674l10.086-3.166
		c0.809-0.326,0.855-1.58,0.096-3.841C-66.852-283.323-67.244-284.182-67.642-284.639z"/>
</g>
<path fill="#00FFAA" d="M-90.136-330.903c-0.389-0.432-0.745-0.634-0.974-0.556c-1.797,0.603-3.453,1.146-4.867,1.588
	c-1.253,0.377-2.423,0.718-3.514,1.059c-1.049,0.35-1.587,0.512-1.684,0.512c-0.295,0.168-0.436,0.077-0.436-0.21v-10.072
	c0-0.301-0.309-0.588-0.88-0.852c-0.527-0.277-1.455-0.394-2.774-0.394c-1.265,0-2.195,0.116-2.766,0.394
	c-0.533,0.264-0.823,0.551-0.823,0.852v10.188c0,0.292-0.094,0.411-0.356,0.311c-0.141,0-0.712-0.165-1.703-0.526
	c-0.95-0.403-2.092-0.791-3.257-1.147c-1.358-0.465-2.906-1.02-4.67-1.703c-0.276-0.148-0.668,0.017-1.099,0.512
	c-0.45,0.479-0.88,1.36-1.223,2.553c-0.5,1.194-0.682,2.107-0.593,2.702c0.094,0.596,0.188,0.944,0.436,1.013
	c1.904,0.613,3.561,1.162,5.015,1.714c1.272,0.424,2.429,0.857,3.5,1.23c1.085,0.393,1.609,0.556,1.703,0.556
	c0.188,0.171,0.249,0.319,0.094,0.465c-0.094,0.077-0.436,0.573-1.071,1.464c-0.619,0.919-1.405,1.896-2.181,2.939
	c-0.928,1.293-1.999,2.671-3.225,4.181c-0.132,0.327-0.085,0.735,0.216,1.271c0.237,0.533,0.902,1.2,1.94,2.021
	c1.021,0.751,1.797,1.191,2.435,1.315c0.588,0.092,0.958,0.045,1.079-0.169c1.055-1.441,2.079-2.771,2.959-3.964
	c0.776-1.052,1.474-1.999,2.134-2.827c0.693-0.835,1.118-1.309,1.253-1.478c0.16-0.372,0.389-0.42,0.687-0.093
	c0.039,0.138,0.403,0.618,1.021,1.455c0.599,0.805,1.267,1.764,2.054,2.818c0.806,1.223,1.783,2.531,2.915,3.964
	c0.141,0.309,0.524,0.386,1.176,0.294c0.574-0.124,1.408-0.564,2.432-1.315c1.049-0.759,1.75-1.394,2.045-1.929
	c0.276-0.509,0.37-0.889,0.229-1.107l-6.382-8.84c-0.201-0.388-0.135-0.605,0.141-0.674l10.097-3.167
	c0.801-0.324,0.848-1.579,0.088-3.839C-89.346-329.587-89.73-330.445-90.136-330.903z"/>
<line fill="none" stroke="#B2B2B2" stroke-width="8.4797" x1="-166.26" y1="-228.752" x2="386.336" y2="-228.752"/>
<g>
	<path d="M-135.187-200.229h10.588v2.048h-8.143v4.818h7.384v2.047h-7.384v9.07h-2.445V-200.229z"/>
	<path d="M-109.65-190.099v1.084h-9.6v0.072c-0.064,1.839,0.287,3.16,1.054,3.963c0.767,0.803,1.849,1.205,3.246,1.205
		c0.707,0,1.445-0.112,2.216-0.337c0.771-0.225,1.594-0.566,2.469-1.024v2.205c-0.843,0.345-1.656,0.604-2.439,0.777
		c-0.783,0.172-1.54,0.259-2.271,0.259c-2.096,0-3.734-0.628-4.914-1.885c-1.181-1.257-1.771-2.989-1.771-5.198
		c0-2.152,0.578-3.871,1.735-5.155c1.156-1.285,2.698-1.927,4.625-1.927c1.719,0,3.074,0.582,4.065,1.747
		S-109.715-191.745-109.65-190.099z M-111.867-190.749c-0.096-0.932-0.436-1.736-1.018-2.415c-0.583-0.679-1.42-1.018-2.512-1.018
		c-1.068,0-1.947,0.354-2.638,1.06c-0.691,0.707-1.068,1.502-1.132,2.385L-111.867-190.749z"/>
	<path d="M-99.629-187.124c0,0.996,0.183,1.747,0.548,2.252c0.366,0.506,0.905,0.759,1.62,0.759h2.59v1.867h-2.807
		c-1.325,0-2.351-0.423-3.078-1.271c-0.727-0.847-1.09-2.049-1.09-3.607v-12.202h-3.553v-1.735h5.77V-187.124z"/>
	<path d="M-79.971-195.736l-4.83,6.456l5.3,7.035h-2.566l-3.951-5.408l-3.939,5.408h-2.565l5.3-7.035l-4.83-6.456h2.457l3.578,4.878
		l3.553-4.878H-79.971z"/>
	<path d="M-74.779-195.688h5.673v11.72h4.397v1.723h-11.01v-1.723h4.396v-9.998h-3.457V-195.688z M-71.322-200.927h2.216v2.794
		h-2.216V-200.927z"/>
	<path d="M-59.193-194.013c0.354-0.659,0.841-1.165,1.463-1.518c0.623-0.353,1.343-0.53,2.162-0.53c1.622,0,2.899,0.625,3.831,1.873
		s1.397,2.969,1.397,5.161c0,2.225-0.468,3.969-1.403,5.234s-2.218,1.897-3.849,1.897c-0.803,0-1.512-0.174-2.126-0.524
		c-0.614-0.349-1.106-0.857-1.476-1.523v1.698h-2.216v-18.743h2.216V-194.013z M-52.676-188.979c0-1.718-0.273-3.015-0.819-3.891
		c-0.546-0.875-1.354-1.313-2.421-1.313c-1.076,0-1.891,0.44-2.445,1.319c-0.554,0.879-0.831,2.174-0.831,3.885
		c0,1.703,0.277,2.996,0.831,3.878c0.554,0.884,1.369,1.325,2.445,1.325c1.068,0,1.875-0.438,2.421-1.313
		C-52.949-185.963-52.676-187.26-52.676-188.979z"/>
	<path d="M-40.221-187.124c0,0.996,0.183,1.747,0.548,2.252c0.366,0.506,0.905,0.759,1.62,0.759h2.59v1.867h-2.807
		c-1.325,0-2.351-0.423-3.078-1.271c-0.727-0.847-1.09-2.049-1.09-3.607v-12.202h-3.553v-1.735h5.77V-187.124z"/>
	<path d="M-20.539-190.099v1.084h-9.6v0.072c-0.064,1.839,0.287,3.16,1.054,3.963c0.767,0.803,1.849,1.205,3.246,1.205
		c0.707,0,1.445-0.112,2.216-0.337c0.771-0.225,1.594-0.566,2.469-1.024v2.205c-0.843,0.345-1.656,0.604-2.439,0.777
		c-0.783,0.172-1.54,0.259-2.271,0.259c-2.096,0-3.734-0.628-4.914-1.885c-1.181-1.257-1.771-2.989-1.771-5.198
		c0-2.152,0.578-3.871,1.735-5.155c1.156-1.285,2.698-1.927,4.625-1.927c1.719,0,3.074,0.582,4.065,1.747
		S-20.604-191.745-20.539-190.099z M-22.755-190.749c-0.096-0.932-0.436-1.736-1.018-2.415c-0.583-0.679-1.42-1.018-2.512-1.018
		c-1.068,0-1.947,0.354-2.638,1.06c-0.691,0.707-1.068,1.502-1.132,2.385L-22.755-190.749z"/>
	<path d="M3.816-194.363c0.273-0.578,0.621-1.006,1.042-1.283s0.929-0.416,1.524-0.416c1.084,0,1.849,0.419,2.294,1.259
		c0.446,0.839,0.668,2.419,0.668,4.74v7.817H7.322v-7.721c0-1.903-0.106-3.085-0.319-3.547c-0.213-0.461-0.601-0.692-1.162-0.692
		c-0.643,0-1.083,0.247-1.319,0.741s-0.355,1.66-0.355,3.499v7.721H2.142v-7.721c0-1.927-0.114-3.115-0.343-3.565
		c-0.229-0.45-0.641-0.674-1.234-0.674c-0.586,0-0.994,0.247-1.223,0.741c-0.229,0.494-0.343,1.66-0.343,3.499v7.721h-2.012v-13.491
		h2.012v1.156c0.265-0.482,0.596-0.849,0.994-1.102s0.849-0.379,1.355-0.379c0.61,0,1.118,0.141,1.524,0.421
		C3.276-195.358,3.592-194.933,3.816-194.363z"/>
	<path d="M23.282-189.942v7.697h-2.228v-2c-0.474,0.803-1.07,1.396-1.789,1.777s-1.592,0.572-2.62,0.572
		c-1.373,0-2.469-0.387-3.289-1.162c-0.819-0.775-1.229-1.813-1.229-3.114c0-1.501,0.504-2.642,1.512-3.421s2.487-1.168,4.438-1.168
		h2.976v-0.349c-0.008-1.076-0.281-1.857-0.819-2.343s-1.397-0.729-2.578-0.729c-0.755,0-1.518,0.108-2.289,0.325
		s-1.522,0.534-2.252,0.952v-2.216c0.819-0.313,1.604-0.548,2.355-0.705c0.75-0.157,1.479-0.235,2.186-0.235
		c1.116,0,2.07,0.165,2.861,0.494c0.791,0.33,1.431,0.823,1.921,1.482c0.305,0.401,0.522,0.897,0.651,1.487
		C23.217-192.008,23.282-191.123,23.282-189.942z M18.982-189.027h-0.735c-1.293,0-2.267,0.227-2.921,0.681
		c-0.655,0.454-0.982,1.13-0.982,2.03c0,0.811,0.245,1.441,0.735,1.891c0.49,0.45,1.168,0.674,2.036,0.674
		c1.221,0,2.18-0.423,2.879-1.271s1.052-2.018,1.06-3.511v-0.494H18.982z"/>
	<path d="M39.291-192.954c-0.474-0.369-0.956-0.638-1.446-0.807c-0.49-0.169-1.028-0.253-1.614-0.253
		c-1.381,0-2.438,0.434-3.168,1.301c-0.731,0.867-1.096,2.12-1.096,3.758v6.709h-2.229v-13.491h2.229v2.638
		c0.369-0.956,0.938-1.688,1.705-2.198c0.767-0.51,1.676-0.765,2.728-0.765c0.546,0,1.056,0.068,1.53,0.205
		c0.474,0.137,0.927,0.35,1.361,0.639V-192.954z"/>
	<path d="M43.072-200.988h2.289v10.853l5.818-5.601h2.698l-5.312,5.083l6.143,8.408h-2.71l-4.986-6.962l-1.65,1.554v5.408h-2.289
		V-200.988z"/>
	<path d="M65.417-194.013v-6.975h2.216v18.743h-2.216v-1.698c-0.37,0.667-0.861,1.174-1.476,1.523
		c-0.614,0.35-1.323,0.524-2.126,0.524c-1.63,0-2.913-0.632-3.849-1.897s-1.403-3.009-1.403-5.234c0-2.192,0.47-3.913,1.41-5.161
		c0.939-1.249,2.22-1.873,3.842-1.873c0.811,0,1.525,0.175,2.144,0.524C64.577-195.188,65.063-194.68,65.417-194.013z M58.9-188.979
		c0,1.719,0.273,3.016,0.819,3.891c0.546,0.875,1.353,1.313,2.421,1.313s1.881-0.441,2.439-1.325
		c0.558-0.883,0.837-2.176,0.837-3.878c0-1.71-0.279-3.005-0.837-3.885c-0.558-0.879-1.371-1.319-2.439-1.319
		s-1.875,0.438-2.421,1.313C59.173-191.994,58.9-190.697,58.9-188.979z"/>
	<path d="M77.354-196.061c1.871,0,3.302,0.606,4.294,1.819s1.488,2.967,1.488,5.264c0,2.305-0.494,4.062-1.481,5.27
		s-2.421,1.812-4.3,1.812c-1.871,0-3.3-0.604-4.288-1.812s-1.481-2.965-1.481-5.27c0-2.296,0.494-4.051,1.481-5.264
		S75.482-196.061,77.354-196.061z M77.354-194.182c-1.125,0-1.976,0.438-2.554,1.313c-0.578,0.875-0.867,2.172-0.867,3.891
		c0,1.71,0.289,3.005,0.867,3.885s1.429,1.319,2.554,1.319c1.132,0,1.987-0.439,2.565-1.319c0.579-0.879,0.868-2.174,0.868-3.885
		c0-1.718-0.289-3.015-0.868-3.891C79.341-193.744,78.486-194.182,77.354-194.182z"/>
	<path d="M84.785-195.736h2.192l2.349,10.901l1.927-6.962h1.891l1.952,6.962l2.349-10.901h2.192l-3.156,13.491h-2.12l-2.156-7.396
		l-2.144,7.396h-2.12L84.785-195.736z"/>
	<path d="M112.297-190.604v8.359h-2.229v-8.359c0-1.212-0.213-2.104-0.638-2.674c-0.426-0.57-1.092-0.855-2-0.855
		c-1.036,0-1.833,0.367-2.391,1.102s-0.837,1.789-0.837,3.162v7.625h-2.216v-13.491h2.216v2.023
		c0.394-0.771,0.928-1.355,1.602-1.752c0.675-0.397,1.474-0.596,2.397-0.596c1.373,0,2.399,0.452,3.077,1.355
		C111.958-193.803,112.297-192.436,112.297-190.604z"/>
	<path d="M141.061-195.266v2.168c-0.634-0.369-1.272-0.646-1.915-0.831c-0.643-0.185-1.297-0.277-1.963-0.277
		c-1.004,0-1.753,0.163-2.247,0.488c-0.493,0.325-0.74,0.821-0.74,1.488c0,0.602,0.185,1.052,0.554,1.349
		c0.369,0.297,1.289,0.586,2.759,0.868l0.891,0.168c1.101,0.209,1.934,0.626,2.5,1.253c0.566,0.626,0.849,1.441,0.849,2.445
		c0,1.333-0.474,2.375-1.421,3.126s-2.265,1.126-3.951,1.126c-0.666,0-1.365-0.07-2.096-0.21c-0.73-0.141-1.521-0.352-2.373-0.632
		v-2.289c0.827,0.426,1.618,0.745,2.373,0.958s1.47,0.319,2.145,0.319c0.979,0,1.738-0.199,2.276-0.596s0.807-0.953,0.807-1.668
		c0-1.028-0.983-1.739-2.951-2.132l-0.096-0.024l-0.831-0.168c-1.277-0.249-2.209-0.669-2.795-1.259
		c-0.586-0.59-0.879-1.396-0.879-2.415c0-1.293,0.438-2.291,1.312-2.994c0.875-0.703,2.124-1.054,3.746-1.054
		c0.723,0,1.417,0.066,2.084,0.199C139.764-195.73,140.418-195.531,141.061-195.266z"/>
	<path d="M148-195.688h5.673v11.72h4.396v1.723h-11.009v-1.723h4.396v-9.998H148V-195.688z M151.457-200.927h2.216v2.794h-2.216
		V-200.927z"/>
	<path d="M166.44-199.566v3.831h5.035v1.723h-5.035v7.323c0,0.996,0.188,1.69,0.566,2.084c0.377,0.394,1.036,0.59,1.976,0.59h2.493
		v1.771h-2.71c-1.662,0-2.835-0.333-3.518-1c-0.683-0.666-1.023-1.814-1.023-3.445v-7.323h-3.602v-1.723h3.602v-3.831H166.44z"/>
	<path d="M187.388-190.099v1.084h-9.601v0.072c-0.064,1.839,0.287,3.16,1.054,3.963c0.767,0.803,1.85,1.205,3.246,1.205
		c0.707,0,1.446-0.112,2.217-0.337c0.771-0.225,1.594-0.566,2.47-1.024v2.205c-0.844,0.345-1.656,0.604-2.439,0.777
		s-1.54,0.259-2.271,0.259c-2.096,0-3.734-0.628-4.915-1.885c-1.18-1.257-1.771-2.989-1.771-5.198c0-2.152,0.578-3.871,1.734-5.155
		s2.698-1.927,4.626-1.927c1.718,0,3.073,0.582,4.065,1.747C186.795-193.15,187.323-191.745,187.388-190.099z M185.171-190.749
		c-0.097-0.932-0.436-1.736-1.018-2.415c-0.583-0.679-1.42-1.018-2.512-1.018c-1.068,0-1.947,0.354-2.638,1.06
		c-0.691,0.707-1.068,1.502-1.133,2.385L185.171-190.749z"/>
	<path d="M216.151-183.112c0,2.023-0.478,3.557-1.433,4.601c-0.956,1.044-2.361,1.566-4.216,1.566c-0.61,0-1.249-0.056-1.916-0.168
		c-0.666-0.113-1.333-0.277-1.999-0.494v-2.192c0.787,0.369,1.502,0.642,2.144,0.819c0.643,0.177,1.233,0.265,1.771,0.265
		c1.196,0,2.067-0.325,2.613-0.976s0.819-1.683,0.819-3.096v-0.096v-1.506c-0.354,0.755-0.835,1.317-1.445,1.687
		c-0.61,0.369-1.354,0.554-2.229,0.554c-1.574,0-2.831-0.63-3.771-1.891c-0.939-1.26-1.409-2.947-1.409-5.059
		c0-2.12,0.47-3.81,1.409-5.071s2.196-1.891,3.771-1.891c0.867,0,1.602,0.173,2.204,0.518s1.092,0.879,1.47,1.602v-1.747h2.216
		V-183.112z M213.936-189.099c0-1.662-0.271-2.925-0.813-3.788s-1.331-1.295-2.366-1.295c-1.084,0-1.911,0.432-2.481,1.295
		s-0.855,2.126-0.855,3.788c0,1.663,0.287,2.929,0.861,3.8c0.574,0.872,1.407,1.307,2.499,1.307c1.021,0,1.801-0.438,2.343-1.313
		C213.664-186.18,213.936-187.444,213.936-189.099z"/>
	<path d="M231.943-190.099v1.084h-9.601v0.072c-0.064,1.839,0.287,3.16,1.054,3.963c0.767,0.803,1.85,1.205,3.246,1.205
		c0.707,0,1.446-0.112,2.217-0.337c0.771-0.225,1.594-0.566,2.47-1.024v2.205c-0.844,0.345-1.656,0.604-2.439,0.777
		s-1.54,0.259-2.271,0.259c-2.096,0-3.734-0.628-4.915-1.885c-1.18-1.257-1.771-2.989-1.771-5.198c0-2.152,0.578-3.871,1.734-5.155
		s2.698-1.927,4.626-1.927c1.718,0,3.073,0.582,4.065,1.747C231.351-193.15,231.879-191.745,231.943-190.099z M229.727-190.749
		c-0.097-0.932-0.436-1.736-1.018-2.415c-0.583-0.679-1.42-1.018-2.512-1.018c-1.068,0-1.947,0.354-2.638,1.06
		c-0.691,0.707-1.068,1.502-1.133,2.385L229.727-190.749z"/>
	<path d="M245.964-190.604v8.359h-2.228v-8.359c0-1.212-0.213-2.104-0.639-2.674c-0.426-0.57-1.092-0.855-2-0.855
		c-1.035,0-1.833,0.367-2.391,1.102c-0.559,0.735-0.837,1.789-0.837,3.162v7.625h-2.217v-13.491h2.217v2.023
		c0.394-0.771,0.927-1.355,1.602-1.752s1.474-0.596,2.397-0.596c1.373,0,2.398,0.452,3.077,1.355S245.964-192.436,245.964-190.604z"
		/>
	<path d="M261.647-190.099v1.084h-9.601v0.072c-0.064,1.839,0.287,3.16,1.054,3.963c0.767,0.803,1.85,1.205,3.246,1.205
		c0.707,0,1.446-0.112,2.217-0.337c0.771-0.225,1.594-0.566,2.47-1.024v2.205c-0.844,0.345-1.656,0.604-2.439,0.777
		s-1.54,0.259-2.271,0.259c-2.096,0-3.734-0.628-4.915-1.885c-1.18-1.257-1.771-2.989-1.771-5.198c0-2.152,0.578-3.871,1.734-5.155
		s2.698-1.927,4.626-1.927c1.718,0,3.073,0.582,4.065,1.747C261.055-193.15,261.583-191.745,261.647-190.099z M259.431-190.749
		c-0.097-0.932-0.436-1.736-1.018-2.415c-0.583-0.679-1.42-1.018-2.512-1.018c-1.068,0-1.947,0.354-2.638,1.06
		c-0.691,0.707-1.068,1.502-1.133,2.385L259.431-190.749z"/>
	<path d="M276.92-192.954c-0.474-0.369-0.955-0.638-1.445-0.807c-0.49-0.169-1.028-0.253-1.614-0.253
		c-1.381,0-2.437,0.434-3.168,1.301c-0.73,0.867-1.096,2.12-1.096,3.758v6.709h-2.229v-13.491h2.229v2.638
		c0.369-0.956,0.938-1.688,1.704-2.198c0.767-0.51,1.677-0.765,2.729-0.765c0.546,0,1.056,0.068,1.529,0.205
		c0.475,0.137,0.928,0.35,1.361,0.639V-192.954z"/>
	<path d="M290.616-189.942v7.697h-2.229v-2c-0.474,0.803-1.07,1.396-1.788,1.777c-0.719,0.381-1.593,0.572-2.62,0.572
		c-1.373,0-2.47-0.387-3.288-1.162c-0.819-0.775-1.229-1.813-1.229-3.114c0-1.501,0.504-2.642,1.512-3.421s2.488-1.168,4.439-1.168
		h2.975v-0.349c-0.008-1.076-0.281-1.857-0.818-2.343c-0.538-0.486-1.397-0.729-2.578-0.729c-0.755,0-1.518,0.108-2.289,0.325
		c-0.771,0.217-1.521,0.534-2.252,0.952v-2.216c0.819-0.313,1.604-0.548,2.354-0.705s1.479-0.235,2.187-0.235
		c1.116,0,2.069,0.165,2.86,0.494c0.791,0.33,1.432,0.823,1.922,1.482c0.305,0.401,0.521,0.897,0.65,1.487
		C290.552-192.008,290.616-191.123,290.616-189.942z M286.316-189.027h-0.735c-1.293,0-2.267,0.227-2.921,0.681
		c-0.654,0.454-0.981,1.13-0.981,2.03c0,0.811,0.245,1.441,0.734,1.891c0.49,0.45,1.169,0.674,2.036,0.674
		c1.221,0,2.18-0.423,2.879-1.271c0.698-0.847,1.052-2.018,1.06-3.511v-0.494H286.316z"/>
	<path d="M300.107-199.566v3.831h5.035v1.723h-5.035v7.323c0,0.996,0.188,1.69,0.566,2.084c0.377,0.394,1.036,0.59,1.976,0.59h2.493
		v1.771h-2.71c-1.662,0-2.835-0.333-3.518-1c-0.683-0.666-1.023-1.814-1.023-3.445v-7.323h-3.602v-1.723h3.602v-3.831H300.107z"/>
	<path d="M314.983-196.061c1.871,0,3.303,0.606,4.294,1.819c0.992,1.212,1.488,2.967,1.488,5.264c0,2.305-0.494,4.062-1.482,5.27
		c-0.987,1.208-2.421,1.812-4.3,1.812c-1.871,0-3.301-0.604-4.288-1.812s-1.481-2.965-1.481-5.27c0-2.296,0.494-4.051,1.481-5.264
		S313.112-196.061,314.983-196.061z M314.983-194.182c-1.124,0-1.976,0.438-2.554,1.313c-0.578,0.875-0.867,2.172-0.867,3.891
		c0,1.71,0.289,3.005,0.867,3.885s1.43,1.319,2.554,1.319c1.132,0,1.987-0.439,2.565-1.319s0.867-2.174,0.867-3.885
		c0-1.718-0.289-3.015-0.867-3.891C316.971-193.744,316.115-194.182,314.983-194.182z"/>
	<path d="M336.328-192.954c-0.474-0.369-0.955-0.638-1.445-0.807c-0.49-0.169-1.028-0.253-1.614-0.253
		c-1.381,0-2.437,0.434-3.168,1.301c-0.73,0.867-1.096,2.12-1.096,3.758v6.709h-2.229v-13.491h2.229v2.638
		c0.369-0.956,0.938-1.688,1.704-2.198c0.767-0.51,1.677-0.765,2.729-0.765c0.546,0,1.056,0.068,1.529,0.205
		c0.475,0.137,0.928,0.35,1.361,0.639V-192.954z"/>
</g>
<g>
	<g>
		<path fill="#00FFAA" d="M169.825,8.341v31.127h-51.162V8.341H169.825 M174.63,3.536h-60.771v40.736h60.771V3.536L174.63,3.536z"/>
	</g>
	<rect x="133.688" y="56.004" fill-rule="evenodd" clip-rule="evenodd" fill="#00FFAA" width="29.635" height="5.146"/>
	<rect x="116.685" y="71.462" fill-rule="evenodd" clip-rule="evenodd" fill="#00FFAA" width="34.626" height="2.956"/>
	<rect x="116.685" y="81.575" fill-rule="evenodd" clip-rule="evenodd" fill="#00FFAA" width="47.696" height="2.957"/>
	<path fill="#00FFAA" d="M118.424,52.117l-0.527,3.291h-2.064v1.457h1.833l-0.403,2.622h-2.081v1.458h1.85l-0.561,3.521h1.582
		l0.573-3.521h1.894l-0.558,3.521h1.582l0.571-3.521h2.021v-1.458h-1.786l0.406-2.622h2.031v-1.457h-1.8l0.53-3.291h-1.601
		l-0.527,3.291h-1.894l0.527-3.291H118.424z M119.261,56.865h1.893l-0.402,2.622h-1.894L119.261,56.865z"/>
</g>
<path fill="#00FFAA" d="M285.767,5.595h-61.012c-1.505,0-2.722,1.221-2.722,2.722v5.466v3.103v47.949h66.454V16.885v-3.103V8.316
	C288.487,6.815,287.268,5.595,285.767,5.595z M244.433,10.16c1.185,0,2.143,0.961,2.143,2.143c0,1.187-0.958,2.145-2.143,2.145
	c-1.182,0-2.142-0.958-2.142-2.145C242.291,11.121,243.251,10.16,244.433,10.16z M236.765,10.16c1.182,0,2.143,0.961,2.143,2.143
	c0,1.187-0.961,2.145-2.143,2.145c-1.184,0-2.142-0.958-2.142-2.145C234.623,11.121,235.581,10.16,236.765,10.16z M229.094,10.16
	c1.185,0,2.145,0.961,2.145,2.143c0,1.187-0.96,2.145-2.145,2.145c-1.182,0-2.142-0.958-2.142-2.145
	C226.952,11.121,227.912,10.16,229.094,10.16z M226.717,18.464h26.408V60.15h-26.408V18.464z M283.804,60.15h-27.853V18.464h27.853
	V60.15z"/>
<path fill-rule="evenodd" clip-rule="evenodd" fill="#00FFAA" d="M0,77.714V0h37.19l1.367,1.366l15.665,15.667l1.367,1.367v59.313H0
	z M50.92,24.569c-0.207-7.354-16.245-3.456-16.245-3.456s3.34-16.446-3.594-16.446H4.668v68.377l46.252,0.002
	C50.92,73.046,50.92,37.09,50.92,24.569z M17.865,24.622H15.32v4.67h-4.67v-4.67H8.099v-4.201h9.767V24.622z M15.32,38.633h-4.67
	v-4.67h4.67V38.633z M15.32,47.972h-4.67v-4.668h4.67V47.972z M15.32,55.013v2.333h-4.67v-4.704h4.67V55.013z M24.622,57.346h-4.67
	v-4.671h4.67V57.346z M33.963,57.346h-4.67v-4.671h4.67V57.346z M43.301,50.299h4.201v9.769h-4.201v-2.722h-4.67v-4.671h4.67V50.299
	z M23.132,20.421l24.371,24.368H23.132V20.421z"/>
<g>
	<path d="M0.708,239.826h2.528c0.873,0,1.546,0.188,2.019,0.566c0.473,0.377,0.709,0.911,0.709,1.602
		c0,0.37-0.125,0.705-0.375,1.007c-0.25,0.301-0.625,0.489-1.125,0.566c0.561,0.083,1,0.322,1.319,0.718
		c0.318,0.395,0.478,0.973,0.478,1.735c0,0.774-0.253,1.359-0.761,1.754s-1.262,0.592-2.265,0.592H0.708V239.826z M1.87,240.775
		v2.346h1.344c0.557,0,0.96-0.107,1.21-0.32c0.25-0.214,0.375-0.482,0.375-0.807c0-0.432-0.123-0.742-0.369-0.933
		c-0.246-0.19-0.651-0.286-1.215-0.286H1.87z M1.87,244.059v3.358h1.367c0.671,0,1.149-0.117,1.436-0.353
		c0.286-0.234,0.429-0.62,0.429-1.158c0-0.709-0.151-1.194-0.452-1.455c-0.301-0.262-0.772-0.393-1.413-0.393H1.87z"/>
	<path d="M7.927,245.94v-3.97H8.98v3.97c0,0.576,0.102,1,0.306,1.271c0.204,0.271,0.52,0.406,0.947,0.406
		c0.496,0,0.875-0.175,1.138-0.523c0.263-0.35,0.395-0.85,0.395-1.502v-3.621h1.059v6.396h-1.059v-0.961
		c-0.187,0.37-0.441,0.65-0.764,0.841s-0.699,0.286-1.129,0.286c-0.656,0-1.144-0.215-1.464-0.644
		C8.087,247.46,7.927,246.811,7.927,245.94z"/>
	<path d="M15.672,241.982h2.694v5.565h2.088v0.818h-5.229v-0.818h2.088v-4.747h-1.642V241.982z M17.314,239.494h1.053v1.327h-1.053
		V239.494z"/>
	<path d="M25.031,246.05c0,0.473,0.087,0.829,0.26,1.069s0.43,0.36,0.77,0.36h1.23v0.887h-1.333c-0.629,0-1.116-0.201-1.461-0.604
		s-0.518-0.974-0.518-1.713v-5.795h-1.688v-0.823h2.74V246.05z"/>
	<path d="M31.483,240.141v1.819h2.391v0.817h-2.391v3.479c0,0.473,0.089,0.803,0.269,0.989c0.179,0.187,0.492,0.28,0.938,0.28h1.184
		v0.841h-1.287c-0.79,0-1.346-0.158-1.67-0.475s-0.486-0.862-0.486-1.636v-3.479h-1.71v-0.817h1.71v-1.819H31.483z"/>
	<path d="M43.885,241.982h2.694v5.565h2.088v0.818h-5.229v-0.818h2.088v-4.747h-1.642V241.982z M45.526,239.494h1.053v1.327h-1.053
		V239.494z"/>
	<path d="M55.143,244.396v3.97h-1.059v-3.97c0-0.576-0.101-0.999-0.303-1.27c-0.202-0.271-0.519-0.406-0.949-0.406
		c-0.492,0-0.871,0.174-1.136,0.523c-0.265,0.349-0.397,0.849-0.397,1.501v3.621h-1.053v-6.406h1.053v0.961
		c0.187-0.366,0.44-0.644,0.761-0.833c0.32-0.188,0.7-0.283,1.138-0.283c0.652,0,1.14,0.215,1.462,0.644
		C54.981,242.878,55.143,243.527,55.143,244.396z"/>
	<path d="M63.82,244.225h6.063v0.967H63.82V244.225z"/>
	<path d="M74.729,243.796c0.561,0.148,0.99,0.413,1.287,0.792c0.297,0.38,0.446,0.854,0.446,1.422c0,0.785-0.264,1.402-0.792,1.851
		s-1.259,0.672-2.194,0.672c-0.393,0-0.793-0.036-1.201-0.108c-0.408-0.073-0.809-0.178-1.201-0.315v-1.149
		c0.389,0.202,0.772,0.353,1.15,0.452c0.377,0.099,0.753,0.148,1.127,0.148c0.633,0,1.119-0.143,1.458-0.429
		s0.509-0.698,0.509-1.235c0-0.496-0.17-0.89-0.509-1.182s-0.799-0.438-1.378-0.438h-0.881v-0.949h0.881
		c0.53,0,0.944-0.117,1.241-0.35s0.446-0.557,0.446-0.973c0-0.438-0.139-0.774-0.415-1.009c-0.276-0.235-0.67-0.353-1.181-0.353
		c-0.339,0-0.69,0.038-1.053,0.114c-0.362,0.077-0.742,0.191-1.138,0.344v-1.064c0.461-0.121,0.873-0.213,1.233-0.274
		c0.36-0.061,0.68-0.091,0.958-0.091c0.832,0,1.496,0.208,1.994,0.626c0.498,0.418,0.747,0.972,0.747,1.662
		c0,0.469-0.131,0.859-0.392,1.172C75.608,243.445,75.228,243.666,74.729,243.796z"/>
	<path d="M79.476,247.394H83.4v0.973h-5.188v-0.973c0.713-0.751,1.336-1.415,1.871-1.99c0.534-0.576,0.901-0.982,1.104-1.219
		c0.381-0.465,0.639-0.842,0.772-1.13s0.2-0.582,0.2-0.884c0-0.477-0.14-0.85-0.42-1.121c-0.28-0.271-0.665-0.406-1.153-0.406
		c-0.347,0-0.711,0.063-1.092,0.189c-0.381,0.125-0.786,0.316-1.213,0.571v-1.167c0.393-0.187,0.779-0.327,1.159-0.423
		c0.379-0.096,0.754-0.143,1.124-0.143c0.835,0,1.507,0.222,2.016,0.666s0.764,1.026,0.764,1.747c0,0.366-0.085,0.732-0.254,1.099
		c-0.17,0.366-0.445,0.771-0.827,1.213c-0.214,0.248-0.523,0.591-0.93,1.029S80.307,246.521,79.476,247.394z"/>
	<path d="M87.919,239.672c0.248,0,0.483,0.046,0.707,0.14s0.418,0.228,0.586,0.403c0.172,0.172,0.302,0.366,0.392,0.583
		c0.089,0.218,0.134,0.452,0.134,0.704c0,0.503-0.177,0.93-0.532,1.278c-0.354,0.349-0.787,0.523-1.298,0.523
		c-0.515,0-0.944-0.172-1.287-0.515c-0.343-0.344-0.515-0.772-0.515-1.287c0-0.511,0.175-0.944,0.526-1.299
		C86.983,239.849,87.412,239.672,87.919,239.672z M87.919,240.409c-0.301,0-0.558,0.106-0.769,0.317
		c-0.212,0.212-0.317,0.471-0.317,0.775s0.104,0.561,0.312,0.767s0.462,0.309,0.764,0.309c0.305,0,0.565-0.104,0.781-0.314
		s0.323-0.463,0.323-0.761c0-0.301-0.107-0.559-0.32-0.772C88.478,240.517,88.22,240.409,87.919,240.409z"/>
	<path d="M97.586,248.063c-0.293,0.156-0.595,0.273-0.904,0.352c-0.309,0.078-0.637,0.117-0.984,0.117
		c-1.094,0-1.944-0.387-2.548-1.161s-0.907-1.863-0.907-3.267c0-1.396,0.304-2.483,0.913-3.264c0.608-0.779,1.456-1.169,2.542-1.169
		c0.347,0,0.675,0.039,0.984,0.117c0.309,0.078,0.61,0.195,0.904,0.352v1.184c-0.282-0.232-0.585-0.409-0.909-0.531
		c-0.324-0.122-0.65-0.184-0.979-0.184c-0.751,0-1.313,0.29-1.688,0.87c-0.374,0.579-0.561,1.454-0.561,2.625
		c0,1.167,0.187,2.04,0.561,2.62c0.374,0.58,0.937,0.869,1.688,0.869c0.335,0,0.665-0.061,0.987-0.183s0.623-0.3,0.901-0.532
		V248.063z"/>
	<path d="M110.445,238.905c-0.507,0.869-0.886,1.735-1.135,2.6c-0.25,0.863-0.375,1.734-0.375,2.611
		c0,0.873,0.125,1.742,0.375,2.608c0.25,0.865,0.628,1.737,1.135,2.614h-0.915c-0.576-0.908-1.005-1.792-1.287-2.651
		c-0.282-0.86-0.423-1.717-0.423-2.571c0-0.851,0.141-1.707,0.423-2.568c0.282-0.862,0.711-1.743,1.287-2.643H110.445z"/>
	<path d="M118.688,239.466v0.875h-1.196c-0.377,0-0.64,0.077-0.786,0.231s-0.221,0.429-0.221,0.821v0.566h2.203v0.817h-2.203v5.589
		h-1.052v-5.589h-1.711v-0.817h1.711v-0.446c0-0.702,0.161-1.219,0.483-1.551c0.322-0.331,0.824-0.497,1.507-0.497H118.688z"/>
	<path d="M123.185,241.805c0.889,0,1.568,0.288,2.039,0.864c0.472,0.576,0.707,1.409,0.707,2.5c0,1.094-0.234,1.929-0.704,2.502
		c-0.469,0.574-1.149,0.861-2.042,0.861c-0.889,0-1.567-0.287-2.036-0.861c-0.469-0.573-0.704-1.408-0.704-2.502
		c0-1.091,0.235-1.924,0.704-2.5S122.296,241.805,123.185,241.805z M123.185,242.697c-0.534,0-0.938,0.208-1.213,0.624
		c-0.274,0.415-0.411,1.031-0.411,1.848c0,0.812,0.137,1.427,0.411,1.845c0.275,0.417,0.679,0.626,1.213,0.626
		c0.538,0,0.944-0.209,1.219-0.626c0.274-0.418,0.412-1.033,0.412-1.845c0-0.816-0.138-1.433-0.412-1.848
		C124.129,242.905,123.723,242.697,123.185,242.697z"/>
	<path d="M133.32,243.281c-0.225-0.176-0.453-0.304-0.686-0.384c-0.233-0.08-0.488-0.12-0.767-0.12
		c-0.656,0-1.158,0.206-1.505,0.618s-0.521,1.007-0.521,1.784v3.187h-1.059v-6.406h1.059v1.252c0.176-0.453,0.445-0.802,0.81-1.044
		s0.796-0.363,1.296-0.363c0.259,0,0.501,0.033,0.727,0.098c0.225,0.064,0.44,0.166,0.646,0.303V243.281z"/>
	<path d="M147.427,243.281c-0.225-0.176-0.453-0.304-0.686-0.384c-0.233-0.08-0.488-0.12-0.767-0.12
		c-0.656,0-1.158,0.206-1.505,0.618s-0.521,1.007-0.521,1.784v3.187h-1.059v-6.406h1.059v1.252c0.176-0.453,0.445-0.802,0.81-1.044
		s0.796-0.363,1.296-0.363c0.259,0,0.501,0.033,0.727,0.098c0.225,0.064,0.44,0.166,0.646,0.303V243.281z"/>
	<path d="M154.279,244.637v0.515h-4.559v0.034c-0.03,0.873,0.137,1.501,0.501,1.882c0.363,0.382,0.878,0.572,1.541,0.572
		c0.336,0,0.687-0.054,1.053-0.16s0.757-0.269,1.173-0.486v1.047c-0.4,0.164-0.787,0.287-1.158,0.369
		c-0.372,0.082-0.731,0.123-1.079,0.123c-0.995,0-1.772-0.299-2.333-0.896c-0.562-0.597-0.842-1.419-0.842-2.468
		c0-1.022,0.275-1.839,0.824-2.448c0.549-0.61,1.281-0.916,2.196-0.916c0.816,0,1.46,0.277,1.931,0.83
		S154.249,243.854,154.279,244.637z M153.228,244.328c-0.046-0.442-0.207-0.825-0.483-1.147s-0.675-0.483-1.193-0.483
		c-0.507,0-0.925,0.168-1.252,0.504c-0.328,0.335-0.508,0.713-0.538,1.132L153.228,244.328z"/>
	<path d="M160.983,244.711v3.655h-1.059v-0.949c-0.225,0.381-0.508,0.662-0.849,0.844c-0.342,0.181-0.757,0.271-1.244,0.271
		c-0.652,0-1.173-0.184-1.562-0.552c-0.39-0.368-0.584-0.861-0.584-1.479c0-0.713,0.239-1.254,0.718-1.624s1.182-0.555,2.108-0.555
		h1.412v-0.166c-0.003-0.511-0.133-0.882-0.389-1.112c-0.255-0.231-0.663-0.347-1.224-0.347c-0.358,0-0.721,0.052-1.087,0.154
		c-0.366,0.104-0.723,0.254-1.07,0.452v-1.053c0.39-0.148,0.762-0.26,1.119-0.334c0.356-0.075,0.702-0.112,1.038-0.112
		c0.529,0,0.982,0.078,1.358,0.235c0.375,0.156,0.68,0.391,0.912,0.703c0.145,0.19,0.248,0.426,0.309,0.706
		C160.953,243.729,160.983,244.15,160.983,244.711z M158.941,245.146h-0.349c-0.614,0-1.077,0.108-1.388,0.323
		c-0.311,0.216-0.466,0.537-0.466,0.964c0,0.386,0.116,0.685,0.349,0.898s0.555,0.32,0.967,0.32c0.58,0,1.035-0.201,1.367-0.604
		s0.5-0.958,0.503-1.668v-0.234H158.941z"/>
	<path d="M166.093,246.05c0,0.473,0.086,0.829,0.26,1.069s0.43,0.36,0.77,0.36h1.229v0.887h-1.333c-0.629,0-1.116-0.201-1.461-0.604
		c-0.346-0.402-0.518-0.974-0.518-1.713v-5.795h-1.688v-0.823h2.74V246.05z"/>
	<path d="M171.022,238.905h0.916c0.575,0.899,1.005,1.78,1.287,2.643c0.282,0.861,0.423,1.718,0.423,2.568
		c0,0.857-0.141,1.718-0.423,2.58c-0.282,0.861-0.712,1.742-1.287,2.643h-0.916c0.508-0.885,0.886-1.76,1.136-2.626
		c0.25-0.865,0.375-1.731,0.375-2.597c0-0.869-0.125-1.737-0.375-2.603C171.908,240.647,171.53,239.778,171.022,238.905z"/>
</g>
<g>
	<path d="M-137.574,108.188c1.304,0,2.265,0.347,2.883,1.041s0.927,1.773,0.927,3.237c0,1.457-0.309,2.531-0.927,3.224
		s-1.579,1.038-2.883,1.038h-1.733v-8.54H-137.574z M-137.597,115.779c0.972,0,1.651-0.239,2.036-0.718s0.578-1.344,0.578-2.595
		c0-1.262-0.192-2.133-0.575-2.611s-1.063-0.718-2.039-0.718h-0.549v6.642H-137.597z"/>
	<path d="M-126.631,112.999v0.515h-4.559v0.034c-0.031,0.873,0.136,1.501,0.5,1.882c0.364,0.382,0.878,0.572,1.542,0.572
		c0.335,0,0.687-0.054,1.053-0.16s0.757-0.269,1.172-0.486v1.047c-0.4,0.164-0.786,0.287-1.158,0.369
		c-0.372,0.082-0.731,0.123-1.078,0.123c-0.996,0-1.773-0.299-2.334-0.896s-0.841-1.419-0.841-2.468
		c0-1.022,0.274-1.839,0.824-2.448c0.549-0.61,1.281-0.916,2.197-0.916c0.816,0,1.459,0.277,1.93,0.83
		C-126.912,111.55-126.662,112.217-126.631,112.999z M-127.684,112.69c-0.045-0.442-0.207-0.825-0.483-1.147
		c-0.276-0.322-0.674-0.483-1.192-0.483c-0.507,0-0.925,0.168-1.253,0.504c-0.328,0.335-0.507,0.713-0.538,1.132L-127.684,112.69z"
		/>
	<path d="M-123.84,115.922v3.243h-1.058v-8.843h1.058v0.817c0.175-0.316,0.409-0.558,0.701-0.724
		c0.292-0.166,0.628-0.249,1.01-0.249c0.774,0,1.381,0.3,1.822,0.898s0.661,1.429,0.661,2.488c0,1.041-0.221,1.858-0.664,2.451
		s-1.049,0.89-1.819,0.89c-0.389,0-0.729-0.083-1.021-0.249C-123.442,116.479-123.672,116.238-123.84,115.922z M-120.751,113.531
		c0-0.816-0.128-1.433-0.386-1.848c-0.258-0.416-0.64-0.624-1.147-0.624c-0.511,0-0.898,0.209-1.162,0.627
		c-0.263,0.417-0.395,1.032-0.395,1.845c0,0.809,0.132,1.422,0.395,1.842c0.263,0.419,0.65,0.629,1.162,0.629
		c0.507,0,0.889-0.208,1.147-0.623C-120.879,114.963-120.751,114.347-120.751,113.531z"/>
	<path d="M-114.819,114.412c0,0.473,0.087,0.829,0.26,1.069s0.43,0.36,0.77,0.36h1.23v0.887h-1.333
		c-0.629,0-1.116-0.201-1.461-0.604s-0.518-0.974-0.518-1.713v-5.795h-1.688v-0.823h2.74V114.412z"/>
	<path d="M-108.355,110.167c0.889,0,1.568,0.288,2.04,0.864c0.471,0.576,0.707,1.409,0.707,2.5c0,1.094-0.235,1.929-0.704,2.502
		c-0.469,0.574-1.15,0.861-2.042,0.861c-0.888,0-1.567-0.287-2.036-0.861c-0.469-0.573-0.704-1.408-0.704-2.502
		c0-1.091,0.234-1.924,0.704-2.5S-109.243,110.167-108.355,110.167z M-108.355,111.06c-0.534,0-0.938,0.208-1.212,0.624
		c-0.274,0.415-0.412,1.031-0.412,1.848c0,0.812,0.138,1.427,0.412,1.845c0.274,0.417,0.679,0.626,1.212,0.626
		c0.538,0,0.944-0.209,1.219-0.626c0.274-0.418,0.412-1.033,0.412-1.845c0-0.816-0.137-1.433-0.412-1.848
		C-107.411,111.268-107.817,111.06-108.355,111.06z"/>
	<path d="M-99.917,114.669c-0.176,0.446-0.399,1.034-0.669,1.762c-0.377,1.007-0.631,1.621-0.761,1.843
		c-0.176,0.297-0.395,0.521-0.658,0.669c-0.263,0.148-0.57,0.223-0.921,0.223h-0.846v-0.881h0.624c0.309,0,0.551-0.09,0.726-0.269
		c0.175-0.18,0.398-0.643,0.669-1.39l-2.477-6.304h1.116l1.899,5.011l1.871-5.011h1.115L-99.917,114.669z"/>
	<path d="M-84.662,113.073v3.655h-1.058v-0.949c-0.225,0.381-0.508,0.662-0.85,0.844c-0.341,0.181-0.756,0.271-1.244,0.271
		c-0.652,0-1.172-0.184-1.562-0.552s-0.583-0.861-0.583-1.479c0-0.713,0.239-1.254,0.718-1.624s1.182-0.555,2.108-0.555h1.413
		v-0.166c-0.004-0.511-0.134-0.882-0.389-1.112c-0.255-0.231-0.664-0.347-1.224-0.347c-0.358,0-0.721,0.052-1.087,0.154
		c-0.366,0.104-0.723,0.254-1.069,0.452v-1.053c0.389-0.148,0.762-0.26,1.118-0.334c0.356-0.075,0.703-0.112,1.038-0.112
		c0.53,0,0.983,0.078,1.359,0.235c0.375,0.156,0.68,0.391,0.912,0.703c0.145,0.19,0.248,0.426,0.309,0.706
		S-84.662,112.513-84.662,113.073z M-86.704,113.508h-0.349c-0.614,0-1.076,0.108-1.387,0.323c-0.311,0.216-0.466,0.537-0.466,0.964
		c0,0.386,0.116,0.685,0.349,0.898c0.233,0.214,0.555,0.32,0.967,0.32c0.58,0,1.036-0.201,1.367-0.604
		c0.332-0.402,0.5-0.958,0.503-1.668v-0.234H-86.704z"/>
	<path d="M-77.654,112.759v3.97h-1.059v-3.97c0-0.576-0.101-0.999-0.303-1.27c-0.202-0.271-0.519-0.406-0.949-0.406
		c-0.492,0-0.871,0.174-1.136,0.523c-0.265,0.349-0.397,0.849-0.397,1.501v3.621h-1.053v-6.406h1.053v0.961
		c0.187-0.366,0.44-0.644,0.761-0.833c0.32-0.188,0.7-0.283,1.138-0.283c0.652,0,1.14,0.215,1.462,0.644
		C-77.816,111.24-77.654,111.89-77.654,112.759z"/>
	<path d="M-71.705,114.669c-0.176,0.446-0.399,1.034-0.669,1.762c-0.377,1.007-0.631,1.621-0.761,1.843
		c-0.176,0.297-0.395,0.521-0.658,0.669c-0.263,0.148-0.57,0.223-0.921,0.223h-0.846v-0.881h0.624c0.309,0,0.551-0.09,0.726-0.269
		c0.175-0.18,0.398-0.643,0.669-1.39l-2.477-6.304h1.116l1.899,5.011l1.871-5.011h1.115L-71.705,114.669z"/>
	<path d="M-69.56,110.322h1.041l1.116,5.177l0.915-3.307h0.898l0.927,3.307l1.116-5.177h1.041l-1.499,6.406h-1.007l-1.024-3.513
		l-1.018,3.513h-1.007L-69.56,110.322z"/>
	<path d="M-56.495,112.759v3.97h-1.059v-3.97c0-0.576-0.101-0.999-0.303-1.27c-0.202-0.271-0.519-0.406-0.949-0.406
		c-0.492,0-0.871,0.174-1.136,0.523c-0.265,0.349-0.397,0.849-0.397,1.501v3.621h-1.053v-8.9h1.053v3.455
		c0.187-0.366,0.44-0.644,0.761-0.833c0.32-0.188,0.7-0.283,1.138-0.283c0.652,0,1.14,0.215,1.462,0.644
		C-56.657,111.24-56.495,111.89-56.495,112.759z"/>
	<path d="M-49.047,112.999v0.515h-4.559v0.034c-0.031,0.873,0.136,1.501,0.5,1.882c0.364,0.382,0.878,0.572,1.542,0.572
		c0.335,0,0.687-0.054,1.053-0.16s0.757-0.269,1.172-0.486v1.047c-0.4,0.164-0.786,0.287-1.158,0.369
		c-0.372,0.082-0.731,0.123-1.078,0.123c-0.996,0-1.773-0.299-2.334-0.896s-0.841-1.419-0.841-2.468
		c0-1.022,0.274-1.839,0.824-2.448c0.549-0.61,1.281-0.916,2.197-0.916c0.816,0,1.459,0.277,1.93,0.83
		C-49.329,111.55-49.078,112.217-49.047,112.999z M-50.1,112.69c-0.045-0.442-0.207-0.825-0.483-1.147
		c-0.276-0.322-0.674-0.483-1.192-0.483c-0.507,0-0.925,0.168-1.253,0.504c-0.328,0.335-0.507,0.713-0.538,1.132L-50.1,112.69z"/>
	<path d="M-41.794,111.644c-0.225-0.176-0.454-0.304-0.687-0.384s-0.488-0.12-0.767-0.12c-0.656,0-1.157,0.206-1.504,0.618
		s-0.521,1.007-0.521,1.784v3.187h-1.058v-6.406h1.058v1.252c0.175-0.453,0.445-0.802,0.81-1.044s0.796-0.363,1.295-0.363
		c0.259,0,0.501,0.033,0.727,0.098s0.44,0.166,0.646,0.303V111.644z"/>
	<path d="M-34.941,112.999v0.515H-39.5v0.034c-0.031,0.873,0.136,1.501,0.5,1.882c0.364,0.382,0.878,0.572,1.542,0.572
		c0.335,0,0.687-0.054,1.053-0.16s0.757-0.269,1.172-0.486v1.047c-0.4,0.164-0.786,0.287-1.158,0.369
		c-0.372,0.082-0.731,0.123-1.078,0.123c-0.996,0-1.773-0.299-2.334-0.896s-0.841-1.419-0.841-2.468
		c0-1.022,0.274-1.839,0.824-2.448c0.549-0.61,1.281-0.916,2.197-0.916c0.816,0,1.459,0.277,1.93,0.83
		C-35.223,111.55-34.972,112.217-34.941,112.999z M-35.994,112.69c-0.045-0.442-0.207-0.825-0.483-1.147
		c-0.276-0.322-0.674-0.483-1.192-0.483c-0.507,0-0.925,0.168-1.253,0.504c-0.328,0.335-0.507,0.713-0.538,1.132L-35.994,112.69z"/>
</g>
<g>
	<path d="M-2.16,107.703h6.515v0.972H1.684v7.568H0.523v-7.568H-2.16V107.703z"/>
	<path d="M11.031,112.514v0.515H6.472v0.034c-0.031,0.873,0.136,1.501,0.5,1.882c0.364,0.382,0.878,0.572,1.542,0.572
		c0.335,0,0.687-0.054,1.053-0.16s0.757-0.269,1.172-0.486v1.047c-0.4,0.164-0.786,0.287-1.158,0.369
		c-0.372,0.082-0.731,0.123-1.078,0.123c-0.996,0-1.773-0.299-2.334-0.896s-0.841-1.419-0.841-2.468
		c0-1.022,0.274-1.839,0.824-2.448c0.549-0.61,1.281-0.916,2.197-0.916c0.816,0,1.459,0.277,1.93,0.83
		C10.75,111.064,11,111.731,11.031,112.514z M9.979,112.205c-0.045-0.442-0.207-0.825-0.483-1.147
		c-0.276-0.322-0.674-0.483-1.192-0.483c-0.507,0-0.925,0.168-1.253,0.504c-0.328,0.335-0.507,0.713-0.538,1.132L9.979,112.205z"/>
	<path d="M15.544,110.488c0.13-0.274,0.295-0.478,0.495-0.609c0.2-0.131,0.441-0.197,0.724-0.197c0.515,0,0.878,0.2,1.089,0.599
		c0.212,0.398,0.318,1.148,0.318,2.25v3.713h-0.961v-3.667c0-0.903-0.05-1.465-0.151-1.685c-0.101-0.219-0.285-0.329-0.552-0.329
		c-0.305,0-0.514,0.118-0.626,0.353c-0.113,0.234-0.169,0.788-0.169,1.661v3.667h-0.961v-3.667c0-0.915-0.054-1.479-0.163-1.693
		c-0.108-0.213-0.304-0.32-0.586-0.32c-0.278,0-0.472,0.118-0.581,0.353c-0.108,0.234-0.163,0.788-0.163,1.661v3.667h-0.955v-6.406
		h0.955v0.549c0.126-0.229,0.283-0.403,0.472-0.523c0.188-0.12,0.403-0.181,0.644-0.181c0.29,0,0.531,0.067,0.724,0.2
		C15.288,110.016,15.438,110.218,15.544,110.488z"/>
	<path d="M20.875,115.437v3.243h-1.058v-8.843h1.058v0.817c0.175-0.316,0.409-0.558,0.701-0.724c0.292-0.166,0.628-0.249,1.01-0.249
		c0.774,0,1.381,0.3,1.822,0.898s0.661,1.429,0.661,2.488c0,1.041-0.221,1.858-0.664,2.451s-1.049,0.89-1.819,0.89
		c-0.389,0-0.729-0.083-1.021-0.249C21.273,115.994,21.043,115.753,20.875,115.437z M23.964,113.046
		c0-0.816-0.128-1.433-0.386-1.848c-0.258-0.416-0.64-0.624-1.147-0.624c-0.511,0-0.898,0.209-1.162,0.627
		c-0.263,0.417-0.395,1.032-0.395,1.845c0,0.809,0.132,1.422,0.395,1.842c0.263,0.419,0.65,0.629,1.162,0.629
		c0.507,0,0.889-0.208,1.147-0.623C23.836,114.478,23.964,113.861,23.964,113.046z"/>
	<path d="M29.896,113.927c0,0.473,0.087,0.829,0.26,1.069s0.43,0.36,0.77,0.36h1.23v0.887h-1.333c-0.629,0-1.116-0.201-1.461-0.604
		s-0.518-0.974-0.518-1.713v-5.795h-1.688v-0.823h2.74V113.927z"/>
	<path d="M38.894,112.588v3.655h-1.058v-0.949c-0.225,0.381-0.508,0.662-0.85,0.844c-0.341,0.181-0.756,0.271-1.244,0.271
		c-0.652,0-1.172-0.184-1.562-0.552s-0.583-0.861-0.583-1.479c0-0.713,0.239-1.254,0.718-1.624s1.182-0.555,2.108-0.555h1.413
		v-0.166c-0.004-0.511-0.134-0.882-0.389-1.112c-0.255-0.231-0.664-0.347-1.224-0.347c-0.358,0-0.721,0.052-1.087,0.154
		c-0.366,0.104-0.723,0.254-1.069,0.452v-1.053c0.389-0.148,0.762-0.26,1.118-0.334c0.356-0.075,0.703-0.112,1.038-0.112
		c0.53,0,0.983,0.078,1.359,0.235c0.375,0.156,0.68,0.391,0.912,0.703c0.145,0.19,0.248,0.426,0.309,0.706
		S38.894,112.027,38.894,112.588z M36.852,113.022h-0.349c-0.614,0-1.076,0.108-1.387,0.323c-0.311,0.216-0.466,0.537-0.466,0.964
		c0,0.386,0.116,0.685,0.349,0.898c0.233,0.214,0.555,0.32,0.967,0.32c0.58,0,1.036-0.201,1.367-0.604
		c0.332-0.402,0.5-0.958,0.503-1.668v-0.234H36.852z"/>
	<path d="M43.402,108.018v1.819h2.391v0.817h-2.391v3.479c0,0.473,0.089,0.803,0.269,0.989c0.179,0.187,0.492,0.28,0.938,0.28h1.184
		v0.841h-1.287c-0.79,0-1.346-0.158-1.67-0.475s-0.486-0.862-0.486-1.636v-3.479h-1.71v-0.817h1.71v-1.819H43.402z"/>
	<path d="M48.75,109.859h2.694v5.565h2.088v0.818h-5.229v-0.818h2.088v-4.747H48.75V109.859z M50.392,107.371h1.053v1.327h-1.053
		V107.371z"/>
	<path d="M60.008,112.273v3.97h-1.059v-3.97c0-0.576-0.101-0.999-0.303-1.27c-0.202-0.271-0.519-0.406-0.949-0.406
		c-0.492,0-0.871,0.174-1.136,0.523c-0.265,0.349-0.397,0.849-0.397,1.501v3.621h-1.053v-6.406h1.053v0.961
		c0.187-0.366,0.44-0.644,0.761-0.833c0.32-0.188,0.7-0.283,1.138-0.283c0.652,0,1.14,0.215,1.462,0.644
		C59.846,110.755,60.008,111.404,60.008,112.273z"/>
	<path d="M67.009,115.831c0,0.961-0.227,1.689-0.681,2.186c-0.454,0.495-1.121,0.743-2.002,0.743c-0.29,0-0.593-0.026-0.91-0.08
		c-0.316-0.053-0.633-0.131-0.95-0.234v-1.041c0.374,0.176,0.713,0.305,1.019,0.389c0.305,0.084,0.585,0.126,0.841,0.126
		c0.568,0,0.982-0.154,1.241-0.463c0.259-0.31,0.389-0.799,0.389-1.471v-0.045v-0.716c-0.168,0.358-0.397,0.626-0.687,0.801
		c-0.29,0.176-0.643,0.264-1.059,0.264c-0.747,0-1.344-0.3-1.79-0.898c-0.446-0.599-0.669-1.399-0.669-2.402
		c0-1.007,0.223-1.81,0.669-2.408c0.446-0.599,1.043-0.898,1.79-0.898c0.412,0,0.761,0.082,1.047,0.246
		c0.286,0.164,0.519,0.418,0.698,0.761v-0.829h1.052V115.831z M65.957,112.988c0-0.789-0.129-1.389-0.386-1.799
		s-0.632-0.615-1.124-0.615c-0.515,0-0.908,0.205-1.179,0.615c-0.271,0.41-0.406,1.01-0.406,1.799s0.136,1.391,0.409,1.805
		c0.273,0.414,0.668,0.621,1.187,0.621c0.484,0,0.855-0.208,1.113-0.624C65.828,114.375,65.957,113.774,65.957,112.988z"/>
</g>
<g>
	<path d="M112.942,109.248h5.068v0.972h-3.913v2.3h3.741v0.973h-3.741v3.323h4.021v0.973h-5.177V109.248z"/>
	<path d="M124.927,114.133v3.655h-1.059v-0.949c-0.225,0.381-0.508,0.662-0.85,0.844c-0.342,0.181-0.756,0.271-1.244,0.271
		c-0.652,0-1.172-0.184-1.561-0.552c-0.391-0.368-0.584-0.861-0.584-1.479c0-0.713,0.238-1.254,0.717-1.624s1.182-0.555,2.109-0.555
		h1.412v-0.166c-0.004-0.511-0.133-0.882-0.389-1.112c-0.256-0.231-0.664-0.347-1.225-0.347c-0.357,0-0.721,0.052-1.086,0.154
		c-0.367,0.104-0.723,0.254-1.07,0.452v-1.053c0.389-0.148,0.762-0.26,1.119-0.334c0.355-0.075,0.701-0.112,1.037-0.112
		c0.529,0,0.982,0.078,1.359,0.235c0.375,0.156,0.68,0.391,0.912,0.703c0.145,0.19,0.248,0.426,0.309,0.706
		S124.927,113.572,124.927,114.133z M122.884,114.567h-0.348c-0.615,0-1.078,0.108-1.389,0.323
		c-0.311,0.216-0.465,0.537-0.465,0.964c0,0.386,0.115,0.685,0.348,0.898s0.555,0.32,0.967,0.32c0.58,0,1.035-0.201,1.367-0.604
		s0.5-0.958,0.504-1.668v-0.234H122.884z"/>
	<path d="M131.487,111.604v1.029c-0.301-0.175-0.604-0.307-0.909-0.395s-0.616-0.132-0.933-0.132c-0.477,0-0.832,0.078-1.066,0.232
		s-0.352,0.39-0.352,0.706c0,0.286,0.087,0.5,0.263,0.641c0.176,0.142,0.612,0.278,1.31,0.412l0.424,0.08
		c0.522,0.099,0.918,0.297,1.187,0.595c0.27,0.298,0.403,0.685,0.403,1.161c0,0.633-0.225,1.128-0.675,1.484
		s-1.075,0.535-1.876,0.535c-0.316,0-0.648-0.033-0.995-0.101c-0.348-0.066-0.723-0.166-1.127-0.3v-1.087
		c0.393,0.202,0.768,0.354,1.127,0.455c0.358,0.101,0.697,0.151,1.018,0.151c0.466,0,0.826-0.095,1.081-0.283
		c0.256-0.188,0.384-0.453,0.384-0.792c0-0.488-0.468-0.826-1.401-1.013l-0.046-0.012l-0.395-0.08
		c-0.606-0.118-1.049-0.317-1.327-0.598s-0.418-0.662-0.418-1.146c0-0.614,0.208-1.088,0.624-1.422
		c0.415-0.334,1.008-0.501,1.778-0.501c0.344,0,0.673,0.032,0.99,0.095C130.872,111.384,131.183,111.479,131.487,111.604z"/>
	<path d="M137.883,115.729c-0.176,0.446-0.398,1.034-0.67,1.762c-0.377,1.007-0.631,1.621-0.761,1.843
		c-0.175,0.297-0.395,0.521-0.657,0.669c-0.264,0.148-0.57,0.223-0.921,0.223h-0.847v-0.881h0.623c0.31,0,0.552-0.09,0.727-0.269
		c0.176-0.18,0.398-0.643,0.669-1.39l-2.477-6.304h1.115l1.899,5.011l1.871-5.011h1.115L137.883,115.729z"/>
	<path d="M150.594,109.562v1.819h2.391v0.817h-2.391v3.479c0,0.473,0.089,0.803,0.269,0.989c0.179,0.187,0.492,0.28,0.938,0.28
		h1.185v0.841h-1.287c-0.789,0-1.347-0.158-1.67-0.475c-0.324-0.316-0.486-0.862-0.486-1.636v-3.479h-1.711v-0.817h1.711v-1.819
		H150.594z"/>
	<path d="M157.657,111.227c0.889,0,1.568,0.288,2.039,0.864c0.472,0.576,0.707,1.409,0.707,2.5c0,1.094-0.234,1.929-0.704,2.502
		c-0.469,0.574-1.149,0.861-2.042,0.861c-0.889,0-1.567-0.287-2.036-0.861c-0.469-0.573-0.704-1.408-0.704-2.502
		c0-1.091,0.235-1.924,0.704-2.5S156.769,111.227,157.657,111.227z M157.657,112.119c-0.534,0-0.938,0.208-1.213,0.624
		c-0.274,0.415-0.411,1.031-0.411,1.848c0,0.812,0.137,1.427,0.411,1.845c0.275,0.417,0.679,0.626,1.213,0.626
		c0.538,0,0.944-0.209,1.219-0.626c0.274-0.418,0.412-1.033,0.412-1.845c0-0.816-0.138-1.433-0.412-1.848
		C158.602,112.327,158.195,112.119,157.657,112.119z"/>
	<path d="M169.355,115.362v-3.97h1.053v3.97c0,0.576,0.102,1,0.306,1.271s0.52,0.406,0.947,0.406c0.495,0,0.875-0.175,1.138-0.523
		c0.264-0.35,0.396-0.85,0.396-1.502v-3.621h1.058v6.396h-1.058v-0.961c-0.188,0.37-0.441,0.65-0.764,0.841s-0.699,0.286-1.13,0.286
		c-0.656,0-1.145-0.215-1.465-0.644S169.355,116.232,169.355,115.362z"/>
	<path d="M180.858,111.604v1.029c-0.301-0.175-0.604-0.307-0.909-0.395s-0.616-0.132-0.933-0.132c-0.477,0-0.832,0.078-1.066,0.232
		s-0.352,0.39-0.352,0.706c0,0.286,0.087,0.5,0.263,0.641c0.176,0.142,0.612,0.278,1.31,0.412l0.424,0.08
		c0.522,0.099,0.918,0.297,1.187,0.595c0.27,0.298,0.403,0.685,0.403,1.161c0,0.633-0.225,1.128-0.675,1.484
		s-1.075,0.535-1.876,0.535c-0.316,0-0.648-0.033-0.995-0.101c-0.348-0.066-0.723-0.166-1.127-0.3v-1.087
		c0.393,0.202,0.768,0.354,1.127,0.455c0.358,0.101,0.697,0.151,1.018,0.151c0.466,0,0.826-0.095,1.081-0.283
		c0.256-0.188,0.384-0.453,0.384-0.792c0-0.488-0.468-0.826-1.401-1.013l-0.046-0.012l-0.395-0.08
		c-0.606-0.118-1.049-0.317-1.327-0.598s-0.418-0.662-0.418-1.146c0-0.614,0.208-1.088,0.624-1.422
		c0.415-0.334,1.008-0.501,1.778-0.501c0.344,0,0.673,0.032,0.99,0.095C180.243,111.384,180.554,111.479,180.858,111.604z"/>
	<path d="M188.752,114.059v0.515h-4.559v0.034c-0.03,0.873,0.137,1.501,0.501,1.882c0.363,0.382,0.878,0.572,1.541,0.572
		c0.336,0,0.687-0.054,1.053-0.16s0.757-0.269,1.173-0.486v1.047c-0.4,0.164-0.787,0.287-1.158,0.369
		c-0.372,0.082-0.731,0.123-1.079,0.123c-0.995,0-1.772-0.299-2.333-0.896c-0.562-0.597-0.842-1.419-0.842-2.468
		c0-1.022,0.275-1.839,0.824-2.448c0.549-0.61,1.281-0.916,2.196-0.916c0.816,0,1.46,0.277,1.931,0.83
		S188.722,113.276,188.752,114.059z M187.7,113.75c-0.046-0.442-0.207-0.825-0.483-1.147s-0.675-0.483-1.193-0.483
		c-0.507,0-0.925,0.168-1.252,0.504c-0.328,0.335-0.508,0.713-0.538,1.132L187.7,113.75z"/>
</g>
<g>
	<path d="M225.995,107.217h1.127l0.818,6.933l0.972-4.588h1.207l0.984,4.6l0.817-6.944h1.127l-1.275,8.54h-1.093l-1.161-5.074
		l-1.155,5.074h-1.093L225.995,107.217z"/>
	<path d="M236.571,109.195c0.889,0,1.568,0.288,2.039,0.864c0.472,0.576,0.707,1.409,0.707,2.5c0,1.094-0.234,1.929-0.704,2.502
		c-0.469,0.574-1.149,0.861-2.042,0.861c-0.889,0-1.567-0.287-2.036-0.861c-0.469-0.573-0.704-1.408-0.704-2.502
		c0-1.091,0.235-1.924,0.704-2.5S235.683,109.195,236.571,109.195z M236.571,110.088c-0.534,0-0.938,0.208-1.213,0.624
		c-0.274,0.415-0.411,1.031-0.411,1.848c0,0.812,0.137,1.427,0.411,1.845c0.275,0.417,0.679,0.626,1.213,0.626
		c0.538,0,0.944-0.209,1.219-0.626c0.274-0.418,0.412-1.033,0.412-1.845c0-0.816-0.138-1.433-0.412-1.848
		C237.516,110.296,237.109,110.088,236.571,110.088z"/>
	<path d="M246.708,110.672c-0.225-0.176-0.453-0.304-0.686-0.384c-0.233-0.08-0.488-0.12-0.767-0.12
		c-0.656,0-1.158,0.206-1.505,0.618s-0.521,1.007-0.521,1.784v3.187h-1.059v-6.406h1.059v1.252c0.176-0.453,0.445-0.802,0.81-1.044
		s0.796-0.363,1.296-0.363c0.259,0,0.501,0.033,0.727,0.098c0.225,0.064,0.44,0.166,0.646,0.303V110.672z"/>
	<path d="M248.504,106.856h1.087v5.153l2.763-2.659h1.282l-2.523,2.413l2.918,3.993h-1.287l-2.368-3.307l-0.784,0.738v2.568h-1.087
		V106.856z"/>
	<path d="M259.772,109.573v1.029c-0.301-0.175-0.604-0.307-0.909-0.395s-0.616-0.132-0.933-0.132c-0.477,0-0.832,0.078-1.066,0.232
		s-0.352,0.39-0.352,0.706c0,0.286,0.087,0.5,0.263,0.641c0.176,0.142,0.612,0.278,1.31,0.412l0.424,0.08
		c0.522,0.099,0.918,0.297,1.187,0.595c0.27,0.298,0.403,0.685,0.403,1.161c0,0.633-0.225,1.128-0.675,1.484
		s-1.075,0.535-1.876,0.535c-0.316,0-0.648-0.033-0.995-0.101c-0.348-0.066-0.723-0.166-1.127-0.3v-1.087
		c0.393,0.202,0.768,0.354,1.127,0.455c0.358,0.101,0.697,0.151,1.018,0.151c0.466,0,0.826-0.095,1.081-0.283
		c0.256-0.188,0.384-0.453,0.384-0.792c0-0.488-0.468-0.826-1.401-1.013l-0.046-0.012l-0.395-0.08
		c-0.606-0.118-1.049-0.317-1.327-0.598s-0.418-0.662-0.418-1.146c0-0.614,0.208-1.088,0.624-1.422
		c0.415-0.334,1.008-0.501,1.778-0.501c0.344,0,0.673,0.032,0.99,0.095C259.157,109.353,259.468,109.447,259.772,109.573z"/>
	<path d="M274.371,112.102v3.655h-1.059v-0.949c-0.225,0.381-0.508,0.662-0.849,0.844c-0.342,0.181-0.757,0.271-1.244,0.271
		c-0.652,0-1.173-0.184-1.562-0.552c-0.39-0.368-0.584-0.861-0.584-1.479c0-0.713,0.239-1.254,0.718-1.624s1.182-0.555,2.108-0.555
		h1.412v-0.166c-0.003-0.511-0.133-0.882-0.389-1.112c-0.255-0.231-0.663-0.347-1.224-0.347c-0.358,0-0.721,0.052-1.087,0.154
		c-0.366,0.104-0.723,0.254-1.07,0.452v-1.053c0.39-0.148,0.762-0.26,1.119-0.334c0.356-0.075,0.702-0.112,1.038-0.112
		c0.529,0,0.982,0.078,1.358,0.235c0.375,0.156,0.68,0.391,0.912,0.703c0.145,0.19,0.248,0.426,0.309,0.706
		C274.341,111.12,274.371,111.541,274.371,112.102z M272.329,112.536h-0.349c-0.614,0-1.077,0.108-1.388,0.323
		c-0.311,0.216-0.466,0.537-0.466,0.964c0,0.386,0.116,0.685,0.349,0.898s0.555,0.32,0.967,0.32c0.58,0,1.035-0.201,1.367-0.604
		s0.5-0.958,0.503-1.668v-0.234H272.329z"/>
	<path d="M275.366,109.351h1.041l1.115,5.177l0.915-3.307h0.898l0.927,3.307l1.115-5.177h1.041l-1.498,6.406h-1.007l-1.024-3.513
		l-1.018,3.513h-1.007L275.366,109.351z"/>
	<path d="M288.826,112.027v0.515h-4.559v0.034c-0.03,0.873,0.137,1.501,0.501,1.882c0.363,0.382,0.878,0.572,1.541,0.572
		c0.336,0,0.687-0.054,1.053-0.16s0.757-0.269,1.173-0.486v1.047c-0.4,0.164-0.787,0.287-1.158,0.369
		c-0.372,0.082-0.731,0.123-1.079,0.123c-0.995,0-1.772-0.299-2.333-0.896c-0.562-0.597-0.842-1.419-0.842-2.468
		c0-1.022,0.275-1.839,0.824-2.448c0.549-0.61,1.281-0.916,2.196-0.916c0.816,0,1.46,0.277,1.931,0.83
		S288.796,111.245,288.826,112.027z M287.774,111.719c-0.046-0.442-0.207-0.825-0.483-1.147s-0.675-0.483-1.193-0.483
		c-0.507,0-0.925,0.168-1.252,0.504c-0.328,0.335-0.508,0.713-0.538,1.132L287.774,111.719z"/>
	<path d="M295.038,109.573v1.029c-0.301-0.175-0.604-0.307-0.909-0.395s-0.616-0.132-0.933-0.132c-0.477,0-0.832,0.078-1.066,0.232
		s-0.352,0.39-0.352,0.706c0,0.286,0.087,0.5,0.263,0.641c0.176,0.142,0.612,0.278,1.31,0.412l0.424,0.08
		c0.522,0.099,0.918,0.297,1.187,0.595c0.27,0.298,0.403,0.685,0.403,1.161c0,0.633-0.225,1.128-0.675,1.484
		s-1.075,0.535-1.876,0.535c-0.316,0-0.648-0.033-0.995-0.101c-0.348-0.066-0.723-0.166-1.127-0.3v-1.087
		c0.393,0.202,0.768,0.354,1.127,0.455c0.358,0.101,0.697,0.151,1.018,0.151c0.466,0,0.826-0.095,1.081-0.283
		c0.256-0.188,0.384-0.453,0.384-0.792c0-0.488-0.468-0.826-1.401-1.013l-0.046-0.012l-0.395-0.08
		c-0.606-0.118-1.049-0.317-1.327-0.598s-0.418-0.662-0.418-1.146c0-0.614,0.208-1.088,0.624-1.422
		c0.415-0.334,1.008-0.501,1.778-0.501c0.344,0,0.673,0.032,0.99,0.095C294.423,109.353,294.733,109.447,295.038,109.573z"/>
	<path d="M300.049,109.195c0.889,0,1.568,0.288,2.039,0.864c0.472,0.576,0.707,1.409,0.707,2.5c0,1.094-0.234,1.929-0.704,2.502
		c-0.469,0.574-1.149,0.861-2.042,0.861c-0.889,0-1.567-0.287-2.036-0.861c-0.469-0.573-0.704-1.408-0.704-2.502
		c0-1.091,0.235-1.924,0.704-2.5S299.16,109.195,300.049,109.195z M300.049,110.088c-0.534,0-0.938,0.208-1.213,0.624
		c-0.274,0.415-0.411,1.031-0.411,1.848c0,0.812,0.137,1.427,0.411,1.845c0.275,0.417,0.679,0.626,1.213,0.626
		c0.538,0,0.944-0.209,1.219-0.626c0.274-0.418,0.412-1.033,0.412-1.845c0-0.816-0.138-1.433-0.412-1.848
		C300.993,110.296,300.587,110.088,300.049,110.088z"/>
	<path d="M307.446,110.002c0.129-0.274,0.294-0.478,0.494-0.609c0.2-0.131,0.441-0.197,0.724-0.197c0.516,0,0.878,0.2,1.09,0.599
		s0.317,1.148,0.317,2.25v3.713h-0.961v-3.667c0-0.903-0.051-1.465-0.151-1.685c-0.102-0.219-0.285-0.329-0.552-0.329
		c-0.306,0-0.515,0.118-0.627,0.353s-0.168,0.788-0.168,1.661v3.667h-0.962v-3.667c0-0.915-0.054-1.479-0.162-1.693
		c-0.109-0.213-0.305-0.32-0.587-0.32c-0.278,0-0.472,0.118-0.58,0.353c-0.109,0.234-0.163,0.788-0.163,1.661v3.667h-0.956v-6.406
		h0.956v0.549c0.126-0.229,0.283-0.403,0.472-0.523s0.403-0.181,0.644-0.181c0.29,0,0.531,0.067,0.724,0.2
		C307.189,109.529,307.339,109.731,307.446,110.002z"/>
	<path d="M317.038,112.027v0.515h-4.559v0.034c-0.03,0.873,0.137,1.501,0.501,1.882c0.363,0.382,0.878,0.572,1.541,0.572
		c0.336,0,0.687-0.054,1.053-0.16s0.757-0.269,1.173-0.486v1.047c-0.4,0.164-0.787,0.287-1.158,0.369
		c-0.372,0.082-0.731,0.123-1.079,0.123c-0.995,0-1.772-0.299-2.333-0.896c-0.562-0.597-0.842-1.419-0.842-2.468
		c0-1.022,0.275-1.839,0.824-2.448c0.549-0.61,1.281-0.916,2.196-0.916c0.816,0,1.46,0.277,1.931,0.83
		S317.008,111.245,317.038,112.027z M315.986,111.719c-0.046-0.442-0.207-0.825-0.483-1.147s-0.675-0.483-1.193-0.483
		c-0.507,0-0.925,0.168-1.252,0.504c-0.328,0.335-0.508,0.713-0.538,1.132L315.986,111.719z"/>
	<path d="M225.995,123.408h1.041l1.115,5.177l0.915-3.307h0.898l0.927,3.307l1.115-5.177h1.041l-1.498,6.406h-1.007l-1.024-3.513
		l-1.018,3.513h-1.007L225.995,123.408z"/>
	<path d="M234.855,123.431h2.694v5.565h2.088v0.818h-5.229v-0.818h2.088v-4.747h-1.642V123.431z M236.497,120.942h1.053v1.327
		h-1.053V120.942z"/>
	<path d="M243.614,121.589v1.819h2.391v0.817h-2.391v3.479c0,0.473,0.089,0.803,0.269,0.989c0.179,0.187,0.492,0.28,0.938,0.28
		h1.185v0.841h-1.287c-0.789,0-1.347-0.158-1.67-0.475c-0.324-0.316-0.486-0.862-0.486-1.636v-3.479h-1.711v-0.817h1.711v-1.819
		H243.614z"/>
	<path d="M253.166,125.845v3.97h-1.058v-3.97c0-0.576-0.102-0.999-0.304-1.27c-0.202-0.271-0.519-0.406-0.949-0.406
		c-0.492,0-0.871,0.174-1.136,0.523c-0.265,0.349-0.397,0.849-0.397,1.501v3.621h-1.053v-8.9h1.053v3.455
		c0.187-0.366,0.44-0.644,0.761-0.833c0.32-0.188,0.7-0.283,1.139-0.283c0.651,0,1.139,0.215,1.461,0.644
		C253.005,124.326,253.166,124.976,253.166,125.845z"/>
	<path d="M261.467,121.303h1.544l1.477,4.336l1.487-4.336h1.55v8.512h-1.069v-7.522l-1.521,4.485h-0.876l-1.527-4.485v7.522h-1.063
		V121.303z"/>
	<path d="M271.837,123.253c0.889,0,1.568,0.288,2.039,0.864c0.472,0.576,0.707,1.409,0.707,2.5c0,1.094-0.234,1.929-0.704,2.502
		c-0.469,0.574-1.149,0.861-2.042,0.861c-0.889,0-1.567-0.287-2.036-0.861c-0.469-0.573-0.704-1.408-0.704-2.502
		c0-1.091,0.235-1.924,0.704-2.5S270.948,123.253,271.837,123.253z M271.837,124.146c-0.534,0-0.938,0.208-1.213,0.624
		c-0.274,0.415-0.411,1.031-0.411,1.848c0,0.812,0.137,1.427,0.411,1.845c0.275,0.417,0.679,0.626,1.213,0.626
		c0.538,0,0.944-0.209,1.219-0.626c0.274-0.418,0.412-1.033,0.412-1.845c0-0.816-0.138-1.433-0.412-1.848
		C272.781,124.354,272.375,124.146,271.837,124.146z"/>
	<path d="M276.481,127.389v-3.97h1.053v3.97c0,0.576,0.102,1,0.306,1.271s0.52,0.406,0.947,0.406c0.495,0,0.875-0.175,1.138-0.523
		c0.264-0.35,0.396-0.85,0.396-1.502v-3.621h1.058v6.396h-1.058v-0.961c-0.188,0.37-0.441,0.65-0.764,0.841s-0.699,0.286-1.13,0.286
		c-0.656,0-1.145-0.215-1.465-0.644S276.481,128.259,276.481,127.389z"/>
</g>
<path fill-rule="evenodd" clip-rule="evenodd" fill="#00FFAA" d="M262.452-75.417c0,3.816-3.094,6.911-6.908,6.911H-60.338
	c-3.814,0-6.915-3.094-6.915-6.911v-42.089c0-3.816,3.1-6.911,6.915-6.911h315.882c3.814,0,6.908,3.094,6.908,6.911V-75.417z"/>
<g>
	<path d="M-29.994-104.153c2.747,0,4.77,0.731,6.071,2.192c1.301,1.462,1.952,3.734,1.952,6.818c0,3.067-0.65,5.33-1.952,6.788
		c-1.301,1.458-3.324,2.186-6.071,2.186h-3.649v-17.984H-29.994z M-30.042-88.168c2.047,0,3.477-0.504,4.288-1.512
		c0.811-1.008,1.216-2.829,1.216-5.462c0-2.658-0.403-4.491-1.21-5.499c-0.807-1.007-2.238-1.512-4.294-1.512h-1.157v13.985H-30.042
		z"/>
	<path d="M-13.022-99.985c1.871,0,3.302,0.606,4.294,1.819s1.488,2.967,1.488,5.264c0,2.305-0.494,4.062-1.481,5.27
		s-2.421,1.812-4.3,1.812c-1.871,0-3.3-0.604-4.288-1.812s-1.481-2.965-1.481-5.27c0-2.296,0.494-4.051,1.481-5.264
		S-14.893-99.985-13.022-99.985z M-13.022-98.106c-1.125,0-1.976,0.438-2.554,1.313c-0.578,0.875-0.867,2.172-0.867,3.891
		c0,1.71,0.289,3.005,0.867,3.885s1.429,1.319,2.554,1.319c1.132,0,1.987-0.439,2.565-1.319c0.579-0.879,0.868-2.174,0.868-3.885
		c0-1.718-0.289-3.015-0.868-3.891C-11.035-97.668-11.89-98.106-13.022-98.106z"/>
	<path d="M-5.59-99.66h2.192l2.349,10.901l1.927-6.962h1.891l1.952,6.962L7.069-99.66h2.192L6.105-86.169h-2.12L1.83-93.565
		l-2.144,7.396h-2.12L-5.59-99.66z"/>
	<path d="M21.921-94.528v8.359h-2.229v-8.359c0-1.212-0.213-2.104-0.638-2.674c-0.426-0.57-1.092-0.855-2-0.855
		c-1.036,0-1.833,0.367-2.391,1.102s-0.837,1.789-0.837,3.162v7.625H11.61V-99.66h2.216v2.023c0.394-0.771,0.928-1.355,1.602-1.752
		c0.675-0.397,1.474-0.596,2.397-0.596c1.373,0,2.399,0.452,3.077,1.355C21.582-97.727,21.921-96.359,21.921-94.528z"/>
	<path d="M32.774-91.047c0,0.996,0.183,1.747,0.548,2.252c0.366,0.506,0.905,0.759,1.62,0.759h2.59v1.867h-2.807
		c-1.325,0-2.351-0.423-3.078-1.271c-0.727-0.847-1.09-2.049-1.09-3.607v-12.202h-3.553v-1.735h5.77V-91.047z"/>
	<path d="M46.385-99.985c1.871,0,3.302,0.606,4.294,1.819s1.488,2.967,1.488,5.264c0,2.305-0.494,4.062-1.481,5.27
		s-2.421,1.812-4.3,1.812c-1.871,0-3.3-0.604-4.288-1.812s-1.481-2.965-1.481-5.27c0-2.296,0.494-4.051,1.481-5.264
		S44.514-99.985,46.385-99.985z M46.385-98.106c-1.125,0-1.976,0.438-2.554,1.313c-0.578,0.875-0.867,2.172-0.867,3.891
		c0,1.71,0.289,3.005,0.867,3.885s1.429,1.319,2.554,1.319c1.132,0,1.987-0.439,2.565-1.319c0.579-0.879,0.868-2.174,0.868-3.885
		c0-1.718-0.289-3.015-0.868-3.891C48.373-97.668,47.518-98.106,46.385-98.106z"/>
	<path d="M66.573-93.866v7.697h-2.228v-2c-0.474,0.803-1.07,1.396-1.789,1.777s-1.592,0.572-2.62,0.572
		c-1.373,0-2.469-0.387-3.289-1.162c-0.819-0.775-1.229-1.813-1.229-3.114c0-1.501,0.504-2.642,1.512-3.421s2.487-1.168,4.438-1.168
		h2.976v-0.349c-0.008-1.076-0.281-1.857-0.819-2.343s-1.397-0.729-2.578-0.729c-0.755,0-1.518,0.108-2.289,0.325
		s-1.522,0.534-2.252,0.952v-2.216c0.819-0.313,1.604-0.548,2.355-0.705c0.75-0.157,1.479-0.235,2.186-0.235
		c1.116,0,2.07,0.165,2.861,0.494c0.791,0.33,1.431,0.823,1.921,1.482c0.305,0.401,0.522,0.897,0.651,1.487
		C66.509-95.932,66.573-95.046,66.573-93.866z M62.273-92.951h-0.735c-1.293,0-2.267,0.227-2.921,0.681
		c-0.655,0.454-0.982,1.13-0.982,2.03c0,0.811,0.245,1.441,0.735,1.891c0.49,0.45,1.168,0.674,2.036,0.674
		c1.221,0,2.18-0.423,2.879-1.271s1.052-2.018,1.06-3.511v-0.494H62.273z"/>
	<path d="M79.004-97.937v-6.975h2.216v18.743h-2.216v-1.698c-0.37,0.667-0.861,1.174-1.476,1.523
		c-0.614,0.35-1.323,0.524-2.126,0.524c-1.63,0-2.913-0.632-3.849-1.897s-1.403-3.009-1.403-5.234c0-2.192,0.47-3.913,1.41-5.161
		c0.939-1.249,2.22-1.873,3.842-1.873c0.811,0,1.525,0.175,2.144,0.524C78.165-99.112,78.651-98.604,79.004-97.937z M72.488-92.902
		c0,1.719,0.273,3.016,0.819,3.891c0.546,0.875,1.353,1.313,2.421,1.313s1.881-0.441,2.439-1.325
		c0.558-0.883,0.837-2.176,0.837-3.878c0-1.71-0.279-3.005-0.837-3.885c-0.558-0.879-1.371-1.319-2.439-1.319
		s-1.875,0.438-2.421,1.313C72.761-95.917,72.488-94.621,72.488-92.902z"/>
	<path d="M105.793-99.985c1.871,0,3.302,0.606,4.294,1.819s1.488,2.967,1.488,5.264c0,2.305-0.494,4.062-1.481,5.27
		s-2.421,1.812-4.3,1.812c-1.871,0-3.3-0.604-4.288-1.812s-1.481-2.965-1.481-5.27c0-2.296,0.494-4.051,1.481-5.264
		S103.922-99.985,105.793-99.985z M105.793-98.106c-1.125,0-1.976,0.438-2.554,1.313c-0.578,0.875-0.867,2.172-0.867,3.891
		c0,1.71,0.289,3.005,0.867,3.885s1.429,1.319,2.554,1.319c1.132,0,1.987-0.439,2.565-1.319c0.579-0.879,0.868-2.174,0.868-3.885
		c0-1.718-0.289-3.015-0.868-3.891C107.78-97.668,106.925-98.106,105.793-98.106z"/>
	<path d="M125.884-94.528v8.359h-2.228v-8.359c0-1.212-0.213-2.104-0.639-2.674c-0.426-0.57-1.092-0.855-2-0.855
		c-1.035,0-1.833,0.367-2.391,1.102c-0.559,0.735-0.837,1.789-0.837,3.162v7.625h-2.217V-99.66h2.217v2.023
		c0.394-0.771,0.927-1.355,1.602-1.752s1.474-0.596,2.397-0.596c1.373,0,2.398,0.452,3.077,1.355S125.884-96.359,125.884-94.528z"/>
	<path d="M156.227-87.65c-0.65,0.602-1.383,1.058-2.198,1.367s-1.696,0.463-2.644,0.463c-2.281,0-4.056-0.817-5.324-2.451
		c-1.269-1.634-1.903-3.925-1.903-6.872c0-2.939,0.643-5.229,1.928-6.872c1.284-1.642,3.071-2.463,5.359-2.463
		c0.755,0,1.478,0.107,2.169,0.319c0.69,0.213,1.356,0.536,1.999,0.97v2.493c-0.65-0.618-1.317-1.074-1.999-1.367
		c-0.683-0.293-1.405-0.439-2.169-0.439c-1.582,0-2.769,0.612-3.559,1.837c-0.791,1.225-1.187,3.065-1.187,5.523
		c0,2.498,0.383,4.346,1.15,5.547c0.767,1.201,1.945,1.801,3.535,1.801c0.538,0,1.01-0.062,1.415-0.187
		c0.405-0.124,0.772-0.319,1.103-0.584v-4.83h-2.614v-2h4.938V-87.65z"/>
	<path d="M161.587-99.611h5.673v11.72h4.396v1.723h-11.009v-1.723h4.396v-9.998h-3.457V-99.611z M165.044-104.851h2.216v2.794
		h-2.216V-104.851z"/>
	<path d="M180.028-103.49v3.831h5.035v1.723h-5.035v7.323c0,0.996,0.188,1.69,0.566,2.084c0.377,0.394,1.036,0.59,1.976,0.59h2.493
		v1.771h-2.71c-1.662,0-2.835-0.333-3.518-1c-0.683-0.666-1.023-1.814-1.023-3.445v-7.323h-3.602v-1.723h3.602v-3.831H180.028z"/>
	<path d="M189.135-104.153h2.445v6.89h6.661v-6.89h2.445v17.984h-2.445v-9.046h-6.661v9.046h-2.445V-104.153z"/>
	<path d="M204.686-91.276v-8.359h2.217v8.359c0,1.213,0.215,2.104,0.645,2.674c0.429,0.57,1.094,0.855,1.993,0.855
		c1.044,0,1.843-0.367,2.397-1.102c0.554-0.735,0.831-1.789,0.831-3.162v-7.625h2.228v13.467h-2.228v-2.023
		c-0.394,0.779-0.93,1.369-1.608,1.771s-1.472,0.602-2.379,0.602c-1.381,0-2.409-0.452-3.084-1.355
		C205.023-88.078,204.686-89.445,204.686-91.276z"/>
	<path d="M221.729-97.937c0.354-0.659,0.841-1.165,1.464-1.518c0.622-0.353,1.343-0.53,2.162-0.53c1.622,0,2.898,0.625,3.83,1.873
		s1.397,2.969,1.397,5.161c0,2.225-0.468,3.969-1.403,5.234s-2.219,1.897-3.849,1.897c-0.803,0-1.512-0.174-2.126-0.524
		c-0.614-0.349-1.106-0.857-1.476-1.523v1.698h-2.216v-18.743h2.216V-97.937z M228.246-92.902c0-1.718-0.273-3.015-0.819-3.891
		c-0.546-0.875-1.353-1.313-2.421-1.313c-1.076,0-1.891,0.44-2.445,1.319c-0.554,0.879-0.831,2.174-0.831,3.885
		c0,1.703,0.277,2.996,0.831,3.878c0.555,0.884,1.369,1.325,2.445,1.325c1.068,0,1.875-0.438,2.421-1.313
		C227.973-89.887,228.246-91.184,228.246-92.902z"/>
</g>
<g>
	<g>
		<g>
			<path fill="#00FFAA" d="M-75.834,45.051h-2.269l-0.748,4.665h-2.686l0.748-4.665h-2.267l-0.75,4.665h-2.926v2.07h2.598
				l-0.571,3.719h-2.951v2.067h2.623l-0.795,4.996h2.244l0.817-4.996h2.683l-0.79,4.996h2.244l0.809-4.996h2.865v-2.067h-2.531
				l0.574-3.719h2.882v-2.07h-2.553L-75.834,45.051z M-79.754,55.505h-2.689l0.574-3.719h2.683L-79.754,55.505z M-113.273,48.767
				l-2.333,2.023l0.685-3.059h-2.266l0.704,3.059l-2.332-2.046l-1.104,1.806l2.995,0.966l-2.951,0.991l1.079,1.805l2.333-2.111
				l-0.723,3.103h2.266l-0.704-3.103l2.333,2.111l1.054-1.805l-2.948-0.991l2.992-0.966L-113.273,48.767z M-94.039,73.284
				l6.821,3.676l-6.821,3.696v2.992l10.741-6.119v-1.118l-10.741-6.122V73.284z M-103.383,53.133h-2.556v5.218h-5.214v2.531h5.214
				v5.214h2.556v-5.214h5.214v-2.531h-5.214V53.133z M-68.456,68.63h-3.412c-0.883,0-1.433-0.044-2.067-0.133v2.926
				c0.724-0.107,1.209-0.132,2.067-0.132h3.412c0.902,0,1.363,0.024,2.087,0.132v-2.926C-67.007,68.586-67.554,68.63-68.456,68.63z"
				/>
		</g>
	</g>
	<path fill-rule="evenodd" clip-rule="evenodd" fill="none" stroke="#00FFAA" stroke-width="4.8052" d="M-71.181,14.119
		c0.312-1.207,0.482-2.468,0.482-3.771c0-8.213-6.663-14.873-14.875-14.873c-6.172,0-11.469,3.765-13.722,9.125
		c-1.927-2.269-4.797-3.709-8.013-3.709c-5.816,0-10.531,4.712-10.531,10.527c0,0.997,0.144,1.963,0.403,2.882
		c-4.745,1.739-8.129,6.299-8.129,11.651c0,6.849,5.548,12.408,12.405,12.408h38.245c6.855,0,12.404-5.56,12.404-12.408
		C-62.511,20.398-66.155,15.7-71.181,14.119z"/>
</g>
</svg>
