<?xml version="1.0" encoding="utf-8"?>
<!-- Generator: Adobe Illustrator 15.1.0, SVG Export Plug-In . SVG Version: 6.00 Build 0)  -->
<!DOCTYPE svg PUBLIC "-//W3C//DTD SVG 1.1//EN" "http://www.w3.org/Graphics/SVG/1.1/DTD/svg11.dtd">
<svg version="1.1" id="Layer_1" xmlns="http://www.w3.org/2000/svg" xmlns:xlink="http://www.w3.org/1999/xlink" x="0px" y="0px"
	 width="66.454px" height="59.239px" viewBox="0 0 66.454 59.239" enable-background="new 0 0 66.454 59.239" xml:space="preserve">
<g>
	<path d="M-220.874-347.67c0.697,0,1.413,0.098,2.15,0.291c0.735,0.194,1.064,0.447,0.988,0.755l-11.737,79.954
		c-0.078,0.387-0.447,0.639-1.104,0.755c-0.659,0.116-1.376,0.174-2.15,0.174c-0.854,0-1.589-0.058-2.208-0.174
		c-0.621-0.116-0.97-0.369-1.046-0.755l-3.719-25.102c-0.465-3.098-0.93-6.177-1.395-9.239c-0.465-3.06-0.872-5.771-1.22-8.135
		c-0.349-2.362-0.621-4.3-0.813-5.811c-0.194-1.511-0.291-2.304-0.291-2.382c-0.078-0.309-0.136-0.425-0.174-0.349
		c-0.04,0.078-0.058,0.194-0.058,0.349c0,0.078-0.116,0.854-0.349,2.324c-0.232,1.473-0.523,3.39-0.872,5.752
		c-0.349,2.364-0.755,5.055-1.22,8.077s-0.93,6.121-1.395,9.297c-1.086,7.438-2.325,15.845-3.719,25.218
		c0,0.387-0.368,0.639-1.104,0.755c-0.737,0.116-1.453,0.174-2.15,0.174c-0.621,0-1.298-0.058-2.034-0.174
		c-0.737-0.116-1.104-0.369-1.104-0.755l-11.854-79.954c0-0.232,0.25-0.465,0.755-0.697c0.503-0.232,1.296-0.349,2.382-0.349
		c1.084,0,1.917,0.02,2.499,0.058c0.581,0.04,0.91,0.252,0.988,0.639l8.135,54.852c0.154,0.775,0.349,0.737,0.581-0.116
		c1.395-10.07,2.633-19.097,3.719-27.077c0.465-3.408,0.93-6.74,1.395-9.994c0.465-3.254,0.872-6.178,1.22-8.774
		c0.349-2.595,0.639-4.687,0.872-6.275c0.232-1.587,0.349-2.42,0.349-2.499c0-0.541,0.93-0.813,2.789-0.813s2.827,0.272,2.905,0.813
		c0,0.078,0.116,0.93,0.349,2.557s0.523,3.719,0.872,6.275s0.773,5.462,1.278,8.716c0.503,3.254,0.988,6.586,1.453,9.994
		c1.162,7.98,2.44,17.045,3.835,27.193c0.076,0.389,0.174,0.563,0.291,0.523c0.116-0.038,0.212-0.25,0.291-0.639
		c0.465-3.176,0.89-6.061,1.278-8.658c0.387-2.595,0.832-5.52,1.336-8.774c0.503-3.254,0.988-6.584,1.453-9.994
		c1.162-7.979,2.517-17.043,4.067-27.194c0.076-0.309,0.483-0.523,1.22-0.639C-222.404-347.612-221.649-347.67-220.874-347.67z"/>
	<path d="M-205.767-265.74c-2.48,0-3.719-0.349-3.719-1.046v-79.605c0-0.309,0.271-0.599,0.813-0.872
		c0.541-0.271,1.471-0.407,2.789-0.407c1.316,0,2.266,0.136,2.847,0.407c0.581,0.272,0.872,0.563,0.872,0.872v79.373
		C-202.165-266.167-203.367-265.74-205.767-265.74z"/>
	<path d="M-163.931-266.147c-0.543,0.271-1.435,0.407-2.673,0.407c-1.24,0-2.112-0.156-2.615-0.465
		c-0.505-0.309-0.833-0.619-0.988-0.93c0-0.076-0.349-1.336-1.046-3.777s-1.569-5.462-2.615-9.064
		c-1.046-3.603-2.15-7.496-3.312-11.68c-1.162-4.184-2.266-8.057-3.312-11.621c-1.046-3.562-1.917-6.546-2.615-8.948
		c-0.697-2.4-1.046-3.641-1.046-3.719c-0.078-0.232-0.156-0.367-0.232-0.407c-0.078-0.038-0.116,0.098-0.116,0.407v48.925
		c0,0.232-0.311,0.505-0.93,0.813c-0.621,0.309-1.511,0.465-2.673,0.465c-1.086,0-1.958-0.136-2.615-0.407
		c-0.659-0.271-0.988-0.599-0.988-0.988v-79.141c0-0.619,0.291-1.006,0.872-1.162c0.581-0.154,1.491-0.232,2.731-0.232
		c2.324,0,3.641,0.311,3.951,0.93c2.401,8.91,4.609,16.929,6.624,24.056c0.852,3.021,1.685,5.985,2.499,8.89
		c0.814,2.905,1.529,5.502,2.15,7.786c0.619,2.286,1.142,4.146,1.569,5.578c0.425,1.435,0.639,2.19,0.639,2.266
		c0.076,0.232,0.154,0.427,0.232,0.581c0.076,0.156,0.116-0.076,0.116-0.697v-48.228c0-0.773,1.2-1.162,3.603-1.162
		c2.479,0,3.719,0.427,3.719,1.278l-0.116,79.373C-163.117-266.708-163.39-266.417-163.931-266.147z"/>
	<path d="M-123.838-346.275c0.154,0.543,0.232,1.24,0.232,2.092c0,0.854-0.098,1.569-0.291,2.15
		c-0.194,0.581-0.485,0.872-0.872,0.872h-10.691c-0.389,0-0.581,0.232-0.581,0.697v73.446c0,0.389-0.465,0.697-1.395,0.93
		s-1.667,0.349-2.208,0.349c-0.621,0-1.376-0.058-2.266-0.174c-0.892-0.116-1.336-0.369-1.336-0.755v-73.795
		c0-0.465-0.272-0.697-0.813-0.697h-10.575c-0.93,0-1.395-0.968-1.395-2.905c0-2.014,0.425-3.021,1.278-3.021h29.867
		C-124.343-347.089-123.995-346.816-123.838-346.275z"/>
	<path d="M-94.438-271.783c0.232,0.311,0.349,1.124,0.349,2.44c0,1.24-0.116,2.054-0.349,2.44c-0.232,0.389-0.505,0.581-0.813,0.581
		l-20.453-0.116c-0.621,0-0.93-0.271-0.93-0.813v-78.792c0-0.697,0.349-1.046,1.046-1.046h20.104c0.387,0,0.697,0.272,0.93,0.813
		c0.232,0.543,0.349,1.202,0.349,1.976c0,0.697-0.098,1.376-0.29,2.034c-0.194,0.659-0.485,0.988-0.872,0.988h-13.48
		c-0.465,0-0.697,0.232-0.697,0.697v29.286c0,0.465,0.192,0.697,0.581,0.697h12.318c0.232,0,0.483,0.174,0.756,0.523
		c0.271,0.349,0.406,1.182,0.406,2.499c0,1.318-0.136,2.15-0.406,2.499c-0.272,0.349-0.563,0.523-0.872,0.523h-11.97
		c-0.543,0-0.813,0.311-0.813,0.93v30.564c0,0.543,0.271,0.813,0.813,0.813h13.364C-94.981-272.248-94.671-272.092-94.438-271.783z"
		/>
	<path d="M-58.182-312.922c0,1.24-0.406,2.519-1.22,3.835c-0.813,1.318-1.996,1.976-3.545,1.976c1.549,0,2.731,0.543,3.545,1.627
		c0.813,1.086,1.22,2.208,1.22,3.37v35.096c0,0.852-1.162,1.278-3.486,1.278c-1.086,0-1.976-0.116-2.673-0.349
		s-1.046-0.541-1.046-0.93v-34.631c0-0.619-0.098-1.142-0.29-1.569c-0.194-0.425-0.718-0.639-1.569-0.639h-10.691
		c-0.543,0-0.813,0.194-0.813,0.581v36.258c0,0.232-0.33,0.485-0.987,0.755c-0.659,0.271-1.531,0.407-2.615,0.407
		c-1.086,0-1.957-0.136-2.614-0.407c-0.659-0.271-0.988-0.561-0.988-0.872v-79.141c0-0.541,0.309-0.813,0.93-0.813h18.71
		c2.711,0,4.745,0.892,6.102,2.673c1.354,1.783,2.033,3.719,2.033,5.811V-312.922z M-68.641-309.901
		c2.168,0,3.254-1.084,3.254-3.254v-24.637c0-0.852-0.252-1.627-0.755-2.324c-0.505-0.697-1.453-1.046-2.848-1.046h-8.948
		c-0.543,0-0.813,0.232-0.813,0.697v29.867c0,0.465,0.232,0.697,0.697,0.697H-68.641z"/>
	<path d="M-25.876-330.47c-1.086,0-1.957-0.155-2.614-0.465c-0.659-0.309-0.988-0.581-0.988-0.813v-5.695
		c0-1.084-0.29-1.976-0.871-2.673s-1.531-1.046-2.848-1.046h-1.278h-4.765c-1.24,0-2.17,0.427-2.789,1.278
		c-0.621,0.854-0.93,1.899-0.93,3.138v9.762c0,2.17,0.503,4.125,1.511,5.869c1.006,1.743,2.284,3.428,3.835,5.055
		c1.549,1.627,3.214,3.254,4.997,4.881c1.781,1.627,3.446,3.41,4.997,5.346c1.549,1.938,2.827,4.087,3.835,6.45
		c1.006,2.364,1.511,5.055,1.511,8.077v14.992c0,3.486-0.854,6.025-2.557,7.612c-1.705,1.589-4.224,2.382-7.554,2.382h-7.554
		c-3.332,0-5.851-0.755-7.554-2.266c-1.705-1.511-2.557-3.969-2.557-7.379v-5.694c0-0.232,0.271-0.523,0.813-0.872
		c0.541-0.349,1.471-0.523,2.789-0.523c2.324,0,3.486,0.465,3.486,1.395v5.694c0,1.086,0.309,1.976,0.93,2.673
		c0.619,0.697,1.587,1.046,2.905,1.046h5.927c1.238,0,2.168-0.425,2.789-1.278c0.619-0.852,0.93-1.897,0.93-3.138v-14.992
		c0-1.936-0.505-3.815-1.511-5.636c-1.008-1.819-2.286-3.641-3.835-5.462c-1.551-1.819-3.195-3.603-4.938-5.346
		s-3.391-3.524-4.939-5.346c-1.551-1.819-2.829-3.641-3.835-5.462c-1.008-1.819-1.511-3.699-1.511-5.636v-12.551
		c0-3.486,0.852-6.023,2.557-7.612c1.703-1.587,4.222-2.382,7.554-2.382h7.554c3.33,0,5.849,0.755,7.554,2.266
		c1.703,1.511,2.557,3.971,2.557,7.379v5.695C-22.273-330.896-23.476-330.47-25.876-330.47z"/>
	<path d="M17.587-345.927c0.154-0.465,0.716-0.872,1.686-1.22c0.968-0.349,2.227-0.523,3.776-0.523s2.848,0.194,3.894,0.581
		c1.046,0.389,1.569,0.892,1.569,1.511v78.443c0,0.311-0.291,0.621-0.872,0.93s-1.452,0.465-2.615,0.465
		c-1.162,0-2.092-0.156-2.789-0.465s-1.046-0.581-1.046-0.813v-61.244c0-0.309-0.02-0.503-0.058-0.581
		c-0.04-0.077-0.098,0-0.175,0.232c-1.859,6.896-3.486,13.094-4.881,18.594c-0.621,2.324-1.22,4.63-1.801,6.915
		c-0.581,2.286-1.104,4.34-1.569,6.159c-0.465,1.821-0.854,3.294-1.162,4.416c-0.311,1.124-0.465,1.725-0.465,1.801
		c-0.156,0.389-0.505,0.717-1.046,0.988c-0.543,0.272-1.473,0.407-2.789,0.407c-1.318,0-2.266-0.134-2.847-0.407
		c-0.581-0.271-0.95-0.599-1.104-0.988c0-0.076-0.156-0.677-0.465-1.801c-0.311-1.122-0.697-2.595-1.162-4.416
		c-0.465-1.819-0.987-3.873-1.568-6.159c-0.581-2.284-1.183-4.59-1.802-6.915c-1.395-5.5-3.021-11.697-4.881-18.594
		c-0.078-0.309-0.116-0.193-0.116,0.349v61.244c0,0.232-0.349,0.505-1.046,0.813s-1.667,0.465-2.905,0.465
		c-1.162,0-2.033-0.156-2.614-0.465s-0.872-0.619-0.872-0.93v-78.443c0-0.619,0.541-1.122,1.627-1.511
		c1.084-0.387,2.362-0.581,3.835-0.581c1.549,0,2.827,0.174,3.835,0.523c1.006,0.349,1.549,0.755,1.627,1.22L7.244-305.95
		L17.587-345.927z"/>
	<path d="M42.688-265.74c-2.48,0-3.719-0.349-3.719-1.046v-79.605c0-0.309,0.271-0.599,0.813-0.872
		c0.541-0.271,1.471-0.407,2.789-0.407c1.316,0,2.267,0.136,2.848,0.407c0.581,0.272,0.871,0.563,0.871,0.872v79.373
		C46.29-266.167,45.088-265.74,42.688-265.74z"/>
	<path d="M86.615-346.275c0.154,0.543,0.232,1.24,0.232,2.092c0,0.854-0.098,1.569-0.29,2.15c-0.194,0.581-0.485,0.872-0.872,0.872
		H74.994c-0.389,0-0.581,0.232-0.581,0.697v73.446c0,0.389-0.465,0.697-1.395,0.93s-1.667,0.349-2.208,0.349
		c-0.621,0-1.376-0.058-2.266-0.174c-0.892-0.116-1.337-0.369-1.337-0.755v-73.795c0-0.465-0.272-0.697-0.813-0.697H55.819
		c-0.93,0-1.395-0.968-1.395-2.905c0-2.014,0.425-3.021,1.278-3.021h29.866C86.11-347.089,86.459-346.816,86.615-346.275z"/>
	<path d="M120.839-265.973c-0.737,0.154-1.569,0.232-2.499,0.232c-0.854,0-1.667-0.078-2.44-0.232
		c-0.775-0.156-1.162-0.387-1.162-0.697v-37.188c0-0.541-0.272-0.813-0.813-0.813h-12.318c-0.389,0-0.581,0.272-0.581,0.813v36.839
		c0,0.389-0.368,0.697-1.104,0.93c-0.737,0.232-1.569,0.349-2.499,0.349s-1.763-0.058-2.498-0.174
		c-0.737-0.116-1.104-0.369-1.104-0.755v-79.838c0-0.232,0.232-0.483,0.697-0.755c0.465-0.271,1.433-0.407,2.905-0.407
		c1.395,0,2.343,0.136,2.848,0.407c0.503,0.272,0.755,0.563,0.755,0.872v34.748c0,0.543,0.232,0.813,0.697,0.813h12.202
		c0.541,0,0.813-0.232,0.813-0.697v-34.98c0-0.232,0.291-0.483,0.872-0.755c0.581-0.271,1.49-0.407,2.73-0.407
		c2.4,0,3.603,0.427,3.603,1.278v79.605C121.942-266.397,121.574-266.129,120.839-265.973z"/>
</g>
<g>
	<path fill="#00FFAA" d="M-334.654-290.233c-0.389-0.432-0.748-0.635-0.983-0.558c-1.797,0.603-3.453,1.147-4.861,1.588
		c-1.25,0.377-2.429,0.719-3.511,1.059c-1.057,0.349-1.595,0.512-1.689,0.512c-0.29,0.17-0.431,0.077-0.431-0.21v-10.072
		c0-0.301-0.312-0.588-0.884-0.85c-0.532-0.279-1.455-0.395-2.774-0.395c-1.27,0-2.2,0.116-2.771,0.395
		c-0.524,0.262-0.814,0.549-0.814,0.85v10.188c0,0.294-0.103,0.411-0.364,0.311c-0.136,0-0.707-0.165-1.703-0.526
		c-0.941-0.403-2.087-0.79-3.249-1.147c-1.361-0.465-2.91-1.02-4.679-1.703c-0.276-0.147-0.66,0.017-1.099,0.512
		c-0.45,0.479-0.881,1.361-1.218,2.554c-0.497,1.194-0.687,2.107-0.59,2.702c0.094,0.596,0.188,0.944,0.436,1.013
		c1.899,0.613,3.561,1.162,5.013,1.714c1.267,0.423,2.432,0.857,3.5,1.229c1.085,0.394,1.609,0.556,1.698,0.556
		c0.188,0.172,0.257,0.319,0.094,0.465c-0.094,0.077-0.431,0.572-1.062,1.464c-0.626,0.919-1.414,1.896-2.189,2.941
		c-0.928,1.292-1.99,2.671-3.216,4.179c-0.141,0.327-0.094,0.736,0.215,1.271c0.234,0.533,0.903,1.199,1.932,2.021
		c1.03,0.751,1.803,1.191,2.435,1.315c0.585,0.093,0.958,0.045,1.085-0.17c1.049-1.44,2.073-2.771,2.962-3.964
		c0.767-1.052,1.466-1.998,2.134-2.825c0.692-0.836,1.109-1.31,1.25-1.479c0.155-0.371,0.392-0.418,0.679-0.092
		c0.05,0.138,0.406,0.618,1.024,1.455c0.607,0.805,1.272,1.764,2.06,2.82c0.809,1.221,1.777,2.53,2.909,3.962
		c0.141,0.309,0.53,0.387,1.184,0.294c0.572-0.124,1.408-0.564,2.424-1.315c1.054-0.759,1.75-1.394,2.045-1.929
		c0.281-0.509,0.37-0.889,0.229-1.107l-6.374-8.84c-0.202-0.388-0.141-0.604,0.141-0.674l10.089-3.166
		c0.809-0.326,0.856-1.58,0.094-3.841C-333.868-288.918-334.257-289.777-334.654-290.233z"/>
	<path fill="#00FFAA" d="M-289.675-290.233c-0.389-0.432-0.745-0.635-0.982-0.558c-1.797,0.603-3.451,1.147-4.858,1.588
		c-1.253,0.377-2.429,0.719-3.514,1.059c-1.058,0.349-1.596,0.512-1.689,0.512c-0.29,0.17-0.431,0.077-0.431-0.21v-10.072
		c0-0.301-0.31-0.588-0.881-0.85c-0.533-0.279-1.455-0.395-2.774-0.395c-1.272,0-2.2,0.116-2.774,0.395
		c-0.524,0.262-0.814,0.549-0.814,0.85v10.188c0,0.294-0.1,0.411-0.362,0.311c-0.135,0-0.707-0.165-1.703-0.526
		c-0.944-0.403-2.086-0.79-3.251-1.147c-1.361-0.465-2.907-1.02-4.679-1.703c-0.276-0.147-0.66,0.017-1.096,0.512
		c-0.45,0.479-0.881,1.361-1.218,2.554c-0.5,1.194-0.687,2.107-0.593,2.702c0.094,0.596,0.188,0.944,0.439,1.013
		c1.896,0.613,3.558,1.162,5.013,1.714c1.264,0.423,2.429,0.857,3.5,1.229c1.085,0.394,1.609,0.556,1.695,0.556
		c0.19,0.172,0.257,0.319,0.097,0.465c-0.097,0.077-0.431,0.572-1.065,1.464c-0.624,0.919-1.414,1.896-2.186,2.941
		c-0.931,1.292-1.993,2.671-3.219,4.179c-0.141,0.327-0.094,0.736,0.215,1.271c0.237,0.533,0.903,1.199,1.932,2.021
		c1.03,0.751,1.806,1.191,2.438,1.315c0.585,0.093,0.955,0.045,1.082-0.17c1.052-1.44,2.076-2.771,2.962-3.964
		c0.768-1.052,1.468-1.998,2.134-2.825c0.695-0.836,1.112-1.31,1.253-1.479c0.155-0.371,0.39-0.418,0.679-0.092
		c0.047,0.138,0.403,0.618,1.024,1.455c0.604,0.805,1.272,1.764,2.06,2.82c0.809,1.221,1.777,2.53,2.906,3.962
		c0.144,0.309,0.533,0.387,1.185,0.294c0.574-0.124,1.408-0.564,2.423-1.315c1.057-0.759,1.75-1.394,2.045-1.929
		c0.284-0.509,0.373-0.889,0.229-1.107l-6.374-8.84c-0.201-0.388-0.141-0.604,0.144-0.674l10.086-3.166
		c0.809-0.326,0.855-1.58,0.096-3.841C-288.885-288.918-289.277-289.777-289.675-290.233z"/>
</g>
<path fill="#00FFAA" d="M-312.169-336.498c-0.389-0.432-0.745-0.634-0.974-0.556c-1.797,0.603-3.453,1.146-4.867,1.588
	c-1.253,0.377-2.423,0.718-3.514,1.059c-1.049,0.35-1.587,0.512-1.684,0.512c-0.295,0.168-0.436,0.077-0.436-0.21v-10.072
	c0-0.301-0.309-0.588-0.88-0.852c-0.527-0.277-1.455-0.394-2.774-0.394c-1.265,0-2.195,0.116-2.766,0.394
	c-0.533,0.264-0.823,0.551-0.823,0.852v10.188c0,0.292-0.094,0.411-0.356,0.311c-0.141,0-0.712-0.165-1.703-0.526
	c-0.95-0.403-2.092-0.791-3.257-1.147c-1.358-0.465-2.906-1.02-4.67-1.703c-0.276-0.148-0.668,0.017-1.099,0.512
	c-0.45,0.479-0.88,1.36-1.223,2.553c-0.5,1.194-0.682,2.107-0.593,2.702c0.094,0.596,0.188,0.944,0.436,1.013
	c1.904,0.613,3.561,1.162,5.015,1.714c1.272,0.424,2.429,0.857,3.5,1.23c1.085,0.393,1.609,0.556,1.703,0.556
	c0.188,0.171,0.249,0.319,0.094,0.465c-0.094,0.077-0.436,0.573-1.071,1.464c-0.619,0.919-1.405,1.896-2.181,2.939
	c-0.928,1.293-1.999,2.671-3.225,4.181c-0.132,0.327-0.085,0.735,0.216,1.271c0.237,0.533,0.902,1.2,1.94,2.021
	c1.021,0.751,1.797,1.191,2.435,1.315c0.588,0.092,0.958,0.045,1.079-0.169c1.055-1.441,2.079-2.771,2.959-3.964
	c0.776-1.052,1.474-1.999,2.134-2.827c0.693-0.835,1.118-1.309,1.253-1.478c0.16-0.372,0.389-0.42,0.687-0.093
	c0.039,0.138,0.403,0.618,1.021,1.455c0.599,0.805,1.267,1.764,2.054,2.818c0.806,1.223,1.783,2.531,2.915,3.964
	c0.141,0.309,0.524,0.386,1.176,0.294c0.574-0.124,1.408-0.564,2.432-1.315c1.049-0.759,1.75-1.394,2.045-1.929
	c0.276-0.509,0.37-0.889,0.229-1.107l-6.382-8.84c-0.201-0.388-0.135-0.605,0.141-0.674l10.097-3.167
	c0.801-0.324,0.848-1.579,0.088-3.839C-311.379-335.182-311.763-336.04-312.169-336.498z"/>
<line fill="none" stroke="#B2B2B2" stroke-width="8.4797" x1="-388.293" y1="-234.347" x2="164.303" y2="-234.347"/>
<g>
	<path d="M-357.22-205.824h10.588v2.048h-8.143v4.818h7.384v2.047h-7.384v9.07h-2.445V-205.824z"/>
	<path d="M-331.684-195.693v1.084h-9.6v0.072c-0.064,1.839,0.287,3.16,1.054,3.963c0.767,0.803,1.849,1.205,3.246,1.205
		c0.707,0,1.445-0.112,2.216-0.337c0.771-0.225,1.594-0.566,2.469-1.024v2.205c-0.843,0.345-1.656,0.604-2.439,0.777
		c-0.783,0.172-1.54,0.259-2.271,0.259c-2.096,0-3.734-0.628-4.914-1.885c-1.181-1.257-1.771-2.989-1.771-5.198
		c0-2.152,0.578-3.871,1.735-5.155c1.156-1.285,2.698-1.927,4.625-1.927c1.719,0,3.074,0.582,4.065,1.747
		S-331.748-197.339-331.684-195.693z M-333.9-196.344c-0.096-0.932-0.436-1.736-1.018-2.415c-0.583-0.679-1.42-1.018-2.512-1.018
		c-1.068,0-1.947,0.354-2.638,1.06c-0.691,0.707-1.068,1.502-1.132,2.385L-333.9-196.344z"/>
	<path d="M-321.662-192.718c0,0.996,0.183,1.747,0.548,2.252c0.366,0.506,0.905,0.759,1.62,0.759h2.59v1.867h-2.807
		c-1.325,0-2.351-0.423-3.078-1.271c-0.727-0.847-1.09-2.049-1.09-3.607v-12.202h-3.553v-1.735h5.77V-192.718z"/>
	<path d="M-302.004-201.331l-4.83,6.456l5.3,7.035h-2.566l-3.951-5.408l-3.939,5.408h-2.565l5.3-7.035l-4.83-6.456h2.457
		l3.578,4.878l3.553-4.878H-302.004z"/>
	<path d="M-296.812-201.282h5.673v11.72h4.397v1.723h-11.01v-1.723h4.396v-9.998h-3.457V-201.282z M-293.355-206.522h2.216v2.794
		h-2.216V-206.522z"/>
	<path d="M-281.226-199.608c0.354-0.659,0.841-1.165,1.463-1.518c0.623-0.353,1.343-0.53,2.162-0.53
		c1.622,0,2.899,0.625,3.831,1.873s1.397,2.969,1.397,5.161c0,2.225-0.468,3.969-1.403,5.234s-2.218,1.897-3.849,1.897
		c-0.803,0-1.512-0.174-2.126-0.524c-0.614-0.349-1.106-0.857-1.476-1.523v1.698h-2.216v-18.743h2.216V-199.608z M-274.709-194.573
		c0-1.718-0.273-3.015-0.819-3.891c-0.546-0.875-1.354-1.313-2.421-1.313c-1.076,0-1.891,0.44-2.445,1.319
		c-0.554,0.879-0.831,2.174-0.831,3.885c0,1.703,0.277,2.996,0.831,3.878c0.554,0.884,1.369,1.325,2.445,1.325
		c1.068,0,1.875-0.438,2.421-1.313C-274.982-191.558-274.709-192.854-274.709-194.573z"/>
	<path d="M-262.254-192.718c0,0.996,0.183,1.747,0.548,2.252c0.366,0.506,0.905,0.759,1.62,0.759h2.59v1.867h-2.807
		c-1.325,0-2.351-0.423-3.078-1.271c-0.727-0.847-1.09-2.049-1.09-3.607v-12.202h-3.553v-1.735h5.77V-192.718z"/>
	<path d="M-242.572-195.693v1.084h-9.6v0.072c-0.064,1.839,0.287,3.16,1.054,3.963c0.767,0.803,1.849,1.205,3.246,1.205
		c0.707,0,1.445-0.112,2.216-0.337c0.771-0.225,1.594-0.566,2.469-1.024v2.205c-0.843,0.345-1.656,0.604-2.439,0.777
		c-0.783,0.172-1.54,0.259-2.271,0.259c-2.096,0-3.734-0.628-4.914-1.885c-1.181-1.257-1.771-2.989-1.771-5.198
		c0-2.152,0.578-3.871,1.735-5.155c1.156-1.285,2.698-1.927,4.625-1.927c1.719,0,3.074,0.582,4.065,1.747
		S-242.637-197.339-242.572-195.693z M-244.789-196.344c-0.096-0.932-0.436-1.736-1.018-2.415c-0.583-0.679-1.42-1.018-2.512-1.018
		c-1.068,0-1.947,0.354-2.638,1.06c-0.691,0.707-1.068,1.502-1.132,2.385L-244.789-196.344z"/>
	<path d="M-218.217-199.958c0.273-0.578,0.621-1.006,1.042-1.283s0.929-0.416,1.524-0.416c1.084,0,1.849,0.419,2.294,1.259
		c0.446,0.839,0.668,2.419,0.668,4.74v7.817h-2.023v-7.721c0-1.903-0.106-3.085-0.319-3.547c-0.213-0.461-0.601-0.692-1.162-0.692
		c-0.643,0-1.083,0.247-1.319,0.741s-0.355,1.66-0.355,3.499v7.721h-2.024v-7.721c0-1.927-0.114-3.115-0.343-3.565
		c-0.229-0.45-0.641-0.674-1.234-0.674c-0.586,0-0.994,0.247-1.223,0.741c-0.229,0.494-0.343,1.66-0.343,3.499v7.721h-2.012v-13.491
		h2.012v1.156c0.265-0.482,0.596-0.849,0.994-1.102s0.849-0.379,1.355-0.379c0.61,0,1.118,0.141,1.524,0.421
		C-218.757-200.953-218.441-200.527-218.217-199.958z"/>
	<path d="M-198.751-195.537v7.697h-2.228v-2c-0.474,0.803-1.07,1.396-1.789,1.777s-1.592,0.572-2.62,0.572
		c-1.373,0-2.469-0.387-3.289-1.162c-0.819-0.775-1.229-1.813-1.229-3.114c0-1.501,0.504-2.642,1.512-3.421s2.487-1.168,4.438-1.168
		h2.976v-0.349c-0.008-1.076-0.281-1.857-0.819-2.343s-1.397-0.729-2.578-0.729c-0.755,0-1.518,0.108-2.289,0.325
		s-1.522,0.534-2.252,0.952v-2.216c0.819-0.313,1.604-0.548,2.355-0.705c0.75-0.157,1.479-0.235,2.186-0.235
		c1.116,0,2.07,0.165,2.861,0.494c0.791,0.33,1.431,0.823,1.921,1.482c0.305,0.401,0.522,0.897,0.651,1.487
		C-198.816-197.603-198.751-196.717-198.751-195.537z M-203.051-194.622h-0.735c-1.293,0-2.267,0.227-2.921,0.681
		c-0.655,0.454-0.982,1.13-0.982,2.03c0,0.811,0.245,1.441,0.735,1.891c0.49,0.45,1.168,0.674,2.036,0.674
		c1.221,0,2.18-0.423,2.879-1.271s1.052-2.018,1.06-3.511v-0.494H-203.051z"/>
	<path d="M-182.743-198.548c-0.474-0.369-0.956-0.638-1.446-0.807c-0.49-0.169-1.028-0.253-1.614-0.253
		c-1.381,0-2.438,0.434-3.168,1.301c-0.731,0.867-1.096,2.12-1.096,3.758v6.709h-2.229v-13.491h2.229v2.638
		c0.369-0.956,0.938-1.688,1.705-2.198c0.767-0.51,1.676-0.765,2.728-0.765c0.546,0,1.056,0.068,1.53,0.205
		c0.474,0.137,0.927,0.35,1.361,0.639V-198.548z"/>
	<path d="M-178.961-206.583h2.289v10.853l5.818-5.601h2.698l-5.312,5.083l6.143,8.408h-2.71l-4.986-6.962l-1.65,1.554v5.408h-2.289
		V-206.583z"/>
	<path d="M-156.617-199.608v-6.975h2.216v18.743h-2.216v-1.698c-0.37,0.667-0.861,1.174-1.476,1.523
		c-0.614,0.35-1.323,0.524-2.126,0.524c-1.63,0-2.913-0.632-3.849-1.897s-1.403-3.009-1.403-5.234c0-2.192,0.47-3.913,1.41-5.161
		c0.939-1.249,2.22-1.873,3.842-1.873c0.811,0,1.525,0.175,2.144,0.524C-157.456-200.783-156.97-200.274-156.617-199.608z
		 M-163.133-194.573c0,1.719,0.273,3.016,0.819,3.891c0.546,0.875,1.353,1.313,2.421,1.313s1.881-0.441,2.439-1.325
		c0.558-0.883,0.837-2.176,0.837-3.878c0-1.71-0.279-3.005-0.837-3.885c-0.558-0.879-1.371-1.319-2.439-1.319
		s-1.875,0.438-2.421,1.313C-162.86-197.588-163.133-196.292-163.133-194.573z"/>
	<path d="M-144.68-201.656c1.871,0,3.302,0.606,4.294,1.819s1.488,2.967,1.488,5.264c0,2.305-0.494,4.062-1.481,5.27
		s-2.421,1.812-4.3,1.812c-1.871,0-3.3-0.604-4.288-1.812s-1.481-2.965-1.481-5.27c0-2.296,0.494-4.051,1.481-5.264
		S-146.551-201.656-144.68-201.656z M-144.68-199.777c-1.125,0-1.976,0.438-2.554,1.313c-0.578,0.875-0.867,2.172-0.867,3.891
		c0,1.71,0.289,3.005,0.867,3.885s1.429,1.319,2.554,1.319c1.132,0,1.987-0.439,2.565-1.319c0.579-0.879,0.868-2.174,0.868-3.885
		c0-1.718-0.289-3.015-0.868-3.891C-142.692-199.339-143.547-199.777-144.68-199.777z"/>
	<path d="M-137.248-201.331h2.192l2.349,10.901l1.927-6.962h1.891l1.952,6.962l2.349-10.901h2.192l-3.156,13.491h-2.12l-2.156-7.396
		l-2.144,7.396h-2.12L-137.248-201.331z"/>
	<path d="M-109.736-196.199v8.359h-2.229v-8.359c0-1.212-0.213-2.104-0.638-2.674c-0.426-0.57-1.092-0.855-2-0.855
		c-1.036,0-1.833,0.367-2.391,1.102s-0.837,1.789-0.837,3.162v7.625h-2.216v-13.491h2.216v2.023
		c0.394-0.771,0.928-1.355,1.602-1.752c0.675-0.397,1.474-0.596,2.397-0.596c1.373,0,2.399,0.452,3.077,1.355
		C-110.076-199.397-109.736-198.03-109.736-196.199z"/>
	<path d="M-80.973-200.861v2.168c-0.634-0.369-1.272-0.646-1.915-0.831c-0.643-0.185-1.297-0.277-1.963-0.277
		c-1.004,0-1.753,0.163-2.247,0.488c-0.493,0.325-0.74,0.821-0.74,1.488c0,0.602,0.185,1.052,0.554,1.349
		c0.369,0.297,1.289,0.586,2.759,0.868l0.891,0.168c1.101,0.209,1.934,0.626,2.5,1.253c0.566,0.626,0.849,1.441,0.849,2.445
		c0,1.333-0.474,2.375-1.421,3.126s-2.265,1.126-3.951,1.126c-0.666,0-1.365-0.07-2.096-0.21c-0.73-0.141-1.521-0.352-2.373-0.632
		v-2.289c0.827,0.426,1.618,0.745,2.373,0.958s1.47,0.319,2.145,0.319c0.979,0,1.738-0.199,2.276-0.596s0.807-0.953,0.807-1.668
		c0-1.028-0.983-1.739-2.951-2.132l-0.096-0.024l-0.831-0.168c-1.277-0.249-2.209-0.669-2.795-1.259
		c-0.586-0.59-0.879-1.396-0.879-2.415c0-1.293,0.438-2.291,1.312-2.994c0.875-0.703,2.124-1.054,3.746-1.054
		c0.723,0,1.417,0.066,2.084,0.199C-82.27-201.325-81.615-201.126-80.973-200.861z"/>
	<path d="M-74.033-201.282h5.673v11.72h4.396v1.723h-11.009v-1.723h4.396v-9.998h-3.457V-201.282z M-70.576-206.522h2.216v2.794
		h-2.216V-206.522z"/>
	<path d="M-55.593-205.161v3.831h5.035v1.723h-5.035v7.323c0,0.996,0.188,1.69,0.566,2.084c0.377,0.394,1.036,0.59,1.976,0.59h2.493
		v1.771h-2.71c-1.662,0-2.835-0.333-3.518-1c-0.683-0.666-1.023-1.814-1.023-3.445v-7.323h-3.602v-1.723h3.602v-3.831H-55.593z"/>
	<path d="M-34.646-195.693v1.084h-9.601v0.072c-0.064,1.839,0.287,3.16,1.054,3.963c0.767,0.803,1.85,1.205,3.246,1.205
		c0.707,0,1.446-0.112,2.217-0.337c0.771-0.225,1.594-0.566,2.47-1.024v2.205c-0.844,0.345-1.656,0.604-2.439,0.777
		s-1.54,0.259-2.271,0.259c-2.096,0-3.734-0.628-4.915-1.885c-1.18-1.257-1.771-2.989-1.771-5.198c0-2.152,0.578-3.871,1.734-5.155
		s2.698-1.927,4.626-1.927c1.718,0,3.073,0.582,4.065,1.747C-35.238-198.745-34.71-197.339-34.646-195.693z M-36.862-196.344
		c-0.097-0.932-0.436-1.736-1.018-2.415c-0.583-0.679-1.42-1.018-2.512-1.018c-1.068,0-1.947,0.354-2.638,1.06
		c-0.691,0.707-1.068,1.502-1.133,2.385L-36.862-196.344z"/>
	<path d="M-5.882-188.707c0,2.023-0.478,3.557-1.433,4.601c-0.956,1.044-2.361,1.566-4.216,1.566c-0.61,0-1.249-0.056-1.916-0.168
		c-0.666-0.113-1.333-0.277-1.999-0.494v-2.192c0.787,0.369,1.502,0.642,2.144,0.819c0.643,0.177,1.233,0.265,1.771,0.265
		c1.196,0,2.067-0.325,2.613-0.976s0.819-1.683,0.819-3.096v-0.096v-1.506c-0.354,0.755-0.835,1.317-1.445,1.687
		c-0.61,0.369-1.354,0.554-2.229,0.554c-1.574,0-2.831-0.63-3.771-1.891c-0.939-1.26-1.409-2.947-1.409-5.059
		c0-2.12,0.47-3.81,1.409-5.071s2.196-1.891,3.771-1.891c0.867,0,1.602,0.173,2.204,0.518s1.092,0.879,1.47,1.602v-1.747h2.216
		V-188.707z M-8.098-194.694c0-1.662-0.271-2.925-0.813-3.788s-1.331-1.295-2.366-1.295c-1.084,0-1.911,0.432-2.481,1.295
		s-0.855,2.126-0.855,3.788c0,1.663,0.287,2.929,0.861,3.8c0.574,0.872,1.407,1.307,2.499,1.307c1.021,0,1.801-0.438,2.343-1.313
		C-8.369-191.774-8.098-193.039-8.098-194.694z"/>
	<path d="M9.91-195.693v1.084H0.31v0.072c-0.064,1.839,0.287,3.16,1.054,3.963c0.767,0.803,1.85,1.205,3.246,1.205
		c0.707,0,1.446-0.112,2.217-0.337c0.771-0.225,1.594-0.566,2.47-1.024v2.205c-0.844,0.345-1.656,0.604-2.439,0.777
		s-1.54,0.259-2.271,0.259c-2.096,0-3.734-0.628-4.915-1.885c-1.18-1.257-1.771-2.989-1.771-5.198c0-2.152,0.578-3.871,1.734-5.155
		s2.698-1.927,4.626-1.927c1.718,0,3.073,0.582,4.065,1.747C9.317-198.745,9.846-197.339,9.91-195.693z M7.693-196.344
		c-0.097-0.932-0.436-1.736-1.018-2.415c-0.583-0.679-1.42-1.018-2.512-1.018c-1.068,0-1.947,0.354-2.638,1.06
		c-0.691,0.707-1.068,1.502-1.133,2.385L7.693-196.344z"/>
	<path d="M23.931-196.199v8.359h-2.228v-8.359c0-1.212-0.213-2.104-0.639-2.674c-0.426-0.57-1.092-0.855-2-0.855
		c-1.035,0-1.833,0.367-2.391,1.102c-0.559,0.735-0.837,1.789-0.837,3.162v7.625H13.62v-13.491h2.217v2.023
		c0.394-0.771,0.927-1.355,1.602-1.752s1.474-0.596,2.397-0.596c1.373,0,2.398,0.452,3.077,1.355S23.931-198.03,23.931-196.199z"/>
	<path d="M39.614-195.693v1.084h-9.601v0.072c-0.064,1.839,0.287,3.16,1.054,3.963c0.767,0.803,1.85,1.205,3.246,1.205
		c0.707,0,1.446-0.112,2.217-0.337c0.771-0.225,1.594-0.566,2.47-1.024v2.205c-0.844,0.345-1.656,0.604-2.439,0.777
		s-1.54,0.259-2.271,0.259c-2.096,0-3.734-0.628-4.915-1.885c-1.18-1.257-1.771-2.989-1.771-5.198c0-2.152,0.578-3.871,1.734-5.155
		s2.698-1.927,4.626-1.927c1.718,0,3.073,0.582,4.065,1.747C39.021-198.745,39.55-197.339,39.614-195.693z M37.397-196.344
		c-0.097-0.932-0.436-1.736-1.018-2.415c-0.583-0.679-1.42-1.018-2.512-1.018c-1.068,0-1.947,0.354-2.638,1.06
		c-0.691,0.707-1.068,1.502-1.133,2.385L37.397-196.344z"/>
	<path d="M54.887-198.548c-0.474-0.369-0.955-0.638-1.445-0.807c-0.49-0.169-1.028-0.253-1.614-0.253
		c-1.381,0-2.437,0.434-3.168,1.301c-0.73,0.867-1.096,2.12-1.096,3.758v6.709h-2.229v-13.491h2.229v2.638
		c0.369-0.956,0.938-1.688,1.704-2.198c0.767-0.51,1.677-0.765,2.729-0.765c0.546,0,1.056,0.068,1.529,0.205
		c0.475,0.137,0.928,0.35,1.361,0.639V-198.548z"/>
	<path d="M68.583-195.537v7.697h-2.229v-2c-0.474,0.803-1.07,1.396-1.788,1.777c-0.719,0.381-1.593,0.572-2.62,0.572
		c-1.373,0-2.47-0.387-3.288-1.162c-0.819-0.775-1.229-1.813-1.229-3.114c0-1.501,0.504-2.642,1.512-3.421s2.488-1.168,4.439-1.168
		h2.975v-0.349c-0.008-1.076-0.281-1.857-0.818-2.343c-0.538-0.486-1.397-0.729-2.578-0.729c-0.755,0-1.518,0.108-2.289,0.325
		c-0.771,0.217-1.521,0.534-2.252,0.952v-2.216c0.819-0.313,1.604-0.548,2.354-0.705s1.479-0.235,2.187-0.235
		c1.116,0,2.069,0.165,2.86,0.494c0.791,0.33,1.432,0.823,1.922,1.482c0.305,0.401,0.521,0.897,0.65,1.487
		C68.519-197.603,68.583-196.717,68.583-195.537z M64.283-194.622h-0.735c-1.293,0-2.267,0.227-2.921,0.681
		c-0.654,0.454-0.981,1.13-0.981,2.03c0,0.811,0.245,1.441,0.734,1.891c0.49,0.45,1.169,0.674,2.036,0.674
		c1.221,0,2.18-0.423,2.879-1.271c0.698-0.847,1.052-2.018,1.06-3.511v-0.494H64.283z"/>
	<path d="M78.074-205.161v3.831h5.035v1.723h-5.035v7.323c0,0.996,0.188,1.69,0.566,2.084c0.377,0.394,1.036,0.59,1.976,0.59h2.493
		v1.771h-2.71c-1.662,0-2.835-0.333-3.518-1c-0.683-0.666-1.023-1.814-1.023-3.445v-7.323h-3.602v-1.723h3.602v-3.831H78.074z"/>
	<path d="M92.95-201.656c1.871,0,3.303,0.606,4.294,1.819c0.992,1.212,1.488,2.967,1.488,5.264c0,2.305-0.494,4.062-1.482,5.27
		c-0.987,1.208-2.421,1.812-4.3,1.812c-1.871,0-3.301-0.604-4.288-1.812s-1.481-2.965-1.481-5.27c0-2.296,0.494-4.051,1.481-5.264
		S91.079-201.656,92.95-201.656z M92.95-199.777c-1.124,0-1.976,0.438-2.554,1.313c-0.578,0.875-0.867,2.172-0.867,3.891
		c0,1.71,0.289,3.005,0.867,3.885s1.43,1.319,2.554,1.319c1.132,0,1.987-0.439,2.565-1.319s0.867-2.174,0.867-3.885
		c0-1.718-0.289-3.015-0.867-3.891C94.938-199.339,94.082-199.777,92.95-199.777z"/>
	<path d="M114.295-198.548c-0.474-0.369-0.955-0.638-1.445-0.807c-0.49-0.169-1.028-0.253-1.614-0.253
		c-1.381,0-2.437,0.434-3.168,1.301c-0.73,0.867-1.096,2.12-1.096,3.758v6.709h-2.229v-13.491h2.229v2.638
		c0.369-0.956,0.938-1.688,1.704-2.198c0.767-0.51,1.677-0.765,2.729-0.765c0.546,0,1.056,0.068,1.529,0.205
		c0.475,0.137,0.928,0.35,1.361,0.639V-198.548z"/>
</g>
<g>
	<g>
		<path fill="#00FFAA" d="M-52.208,2.746v31.127h-51.162V2.746H-52.208 M-47.403-2.059h-60.771v40.736h60.771V-2.059L-47.403-2.059z
			"/>
	</g>
	<rect x="-88.345" y="50.409" fill-rule="evenodd" clip-rule="evenodd" fill="#00FFAA" width="29.635" height="5.146"/>
	<rect x="-105.349" y="65.867" fill-rule="evenodd" clip-rule="evenodd" fill="#00FFAA" width="34.626" height="2.956"/>
	<rect x="-105.349" y="75.98" fill-rule="evenodd" clip-rule="evenodd" fill="#00FFAA" width="47.696" height="2.957"/>
	<path fill="#00FFAA" d="M-103.609,46.522l-0.527,3.291h-2.064v1.457h1.833l-0.403,2.622h-2.081v1.458h1.85l-0.561,3.521h1.582
		l0.573-3.521h1.894l-0.558,3.521h1.582l0.571-3.521h2.021v-1.458h-1.786l0.406-2.622h2.031v-1.457h-1.8l0.53-3.291h-1.601
		l-0.527,3.291h-1.894l0.527-3.291H-103.609z M-102.772,51.271h1.893l-0.402,2.622h-1.894L-102.772,51.271z"/>
</g>
<path fill="#00FFAA" d="M63.733,0H2.722C1.217,0,0,1.221,0,2.722v5.466v3.103v47.949h66.454V11.29V8.188V2.722
	C66.454,1.221,65.234,0,63.733,0z M22.399,4.565c1.185,0,2.143,0.961,2.143,2.143c0,1.187-0.958,2.145-2.143,2.145
	c-1.182,0-2.142-0.958-2.142-2.145C20.258,5.526,21.218,4.565,22.399,4.565z M14.731,4.565c1.182,0,2.143,0.961,2.143,2.143
	c0,1.187-0.961,2.145-2.143,2.145c-1.184,0-2.142-0.958-2.142-2.145C12.59,5.526,13.548,4.565,14.731,4.565z M7.061,4.565
	c1.185,0,2.145,0.961,2.145,2.143c0,1.187-0.96,2.145-2.145,2.145c-1.182,0-2.142-0.958-2.142-2.145
	C4.919,5.526,5.879,4.565,7.061,4.565z M4.684,12.869h26.408v41.687H4.684V12.869z M61.771,54.556H33.918V12.869h27.853V54.556z"/>
<path fill-rule="evenodd" clip-rule="evenodd" fill="#00FFAA" d="M-222.033,72.119V-5.595h37.19l1.367,1.366l15.665,15.667
	l1.367,1.367v59.313H-222.033z M-171.113,18.975c-0.207-7.354-16.245-3.456-16.245-3.456s3.34-16.446-3.594-16.446h-26.414v68.377
	l46.252,0.002C-171.113,67.451-171.113,31.495-171.113,18.975z M-204.168,19.027h-2.545v4.67h-4.67v-4.67h-2.551v-4.201h9.767
	V19.027z M-206.713,33.038h-4.67v-4.67h4.67V33.038z M-206.713,42.377h-4.67v-4.668h4.67V42.377z M-206.713,49.418v2.333h-4.67
	v-4.704h4.67V49.418z M-197.411,51.751h-4.67V47.08h4.67V51.751z M-188.07,51.751h-4.67V47.08h4.67V51.751z M-178.732,44.704h4.201
	v9.769h-4.201v-2.722h-4.67V47.08h4.67V44.704z M-198.901,14.826l24.371,24.368h-24.371V14.826z"/>
<g>
	<path d="M-221.325,234.231h2.528c0.873,0,1.546,0.188,2.019,0.566c0.473,0.377,0.709,0.911,0.709,1.602
		c0,0.37-0.125,0.705-0.375,1.007c-0.25,0.301-0.625,0.489-1.125,0.566c0.561,0.083,1,0.322,1.319,0.718
		c0.318,0.395,0.478,0.973,0.478,1.735c0,0.774-0.253,1.359-0.761,1.754s-1.262,0.592-2.265,0.592h-2.528V234.231z
		 M-220.164,235.181v2.346h1.344c0.557,0,0.96-0.107,1.21-0.32c0.25-0.214,0.375-0.482,0.375-0.807c0-0.432-0.123-0.742-0.369-0.933
		c-0.246-0.19-0.651-0.286-1.215-0.286H-220.164z M-220.164,238.464v3.358h1.367c0.671,0,1.149-0.117,1.436-0.353
		c0.286-0.234,0.429-0.62,0.429-1.158c0-0.709-0.151-1.194-0.452-1.455c-0.301-0.262-0.772-0.393-1.413-0.393H-220.164z"/>
	<path d="M-214.106,240.346v-3.97h1.053v3.97c0,0.576,0.102,1,0.306,1.271c0.204,0.271,0.52,0.406,0.947,0.406
		c0.496,0,0.875-0.175,1.138-0.523c0.263-0.35,0.395-0.85,0.395-1.502v-3.621h1.059v6.396h-1.059v-0.961
		c-0.187,0.37-0.441,0.65-0.764,0.841s-0.699,0.286-1.129,0.286c-0.656,0-1.144-0.215-1.464-0.644
		C-213.946,241.865-214.106,241.216-214.106,240.346z"/>
	<path d="M-206.361,236.388h2.694v5.565h2.088v0.818h-5.229v-0.818h2.088v-4.747h-1.642V236.388z M-204.719,233.899h1.053v1.327
		h-1.053V233.899z"/>
	<path d="M-197.002,240.455c0,0.473,0.087,0.829,0.26,1.069s0.43,0.36,0.77,0.36h1.23v0.887h-1.333
		c-0.629,0-1.116-0.201-1.461-0.604s-0.518-0.974-0.518-1.713v-5.795h-1.688v-0.823h2.74V240.455z"/>
	<path d="M-190.55,234.546v1.819h2.391v0.817h-2.391v3.479c0,0.473,0.089,0.803,0.269,0.989c0.179,0.187,0.492,0.28,0.938,0.28
		h1.184v0.841h-1.287c-0.79,0-1.346-0.158-1.67-0.475s-0.486-0.862-0.486-1.636v-3.479h-1.71v-0.817h1.71v-1.819H-190.55z"/>
	<path d="M-178.148,236.388h2.694v5.565h2.088v0.818h-5.229v-0.818h2.088v-4.747h-1.642V236.388z M-176.507,233.899h1.053v1.327
		h-1.053V233.899z"/>
	<path d="M-166.891,238.802v3.97h-1.059v-3.97c0-0.576-0.101-0.999-0.303-1.27c-0.202-0.271-0.519-0.406-0.949-0.406
		c-0.492,0-0.871,0.174-1.136,0.523c-0.265,0.349-0.397,0.849-0.397,1.501v3.621h-1.053v-6.406h1.053v0.961
		c0.187-0.366,0.44-0.644,0.761-0.833c0.32-0.188,0.7-0.283,1.138-0.283c0.652,0,1.14,0.215,1.462,0.644
		C-167.052,237.283-166.891,237.933-166.891,238.802z"/>
	<path d="M-158.213,238.63h6.063v0.967h-6.063V238.63z"/>
	<path d="M-147.305,238.201c0.561,0.148,0.99,0.413,1.287,0.792c0.297,0.38,0.446,0.854,0.446,1.422
		c0,0.785-0.264,1.402-0.792,1.851s-1.259,0.672-2.194,0.672c-0.393,0-0.793-0.036-1.201-0.108
		c-0.408-0.073-0.809-0.178-1.201-0.315v-1.149c0.389,0.202,0.772,0.353,1.15,0.452c0.377,0.099,0.753,0.148,1.127,0.148
		c0.633,0,1.119-0.143,1.458-0.429s0.509-0.698,0.509-1.235c0-0.496-0.17-0.89-0.509-1.182s-0.799-0.438-1.378-0.438h-0.881v-0.949
		h0.881c0.53,0,0.944-0.117,1.241-0.35s0.446-0.557,0.446-0.973c0-0.438-0.139-0.774-0.415-1.009
		c-0.276-0.235-0.67-0.353-1.181-0.353c-0.339,0-0.69,0.038-1.053,0.114c-0.362,0.077-0.742,0.191-1.138,0.344v-1.064
		c0.461-0.121,0.873-0.213,1.233-0.274c0.36-0.061,0.68-0.091,0.958-0.091c0.832,0,1.496,0.208,1.994,0.626
		c0.498,0.418,0.747,0.972,0.747,1.662c0,0.469-0.131,0.859-0.392,1.172C-146.425,237.851-146.805,238.071-147.305,238.201z"/>
	<path d="M-142.557,241.799h3.924v0.973h-5.188v-0.973c0.713-0.751,1.336-1.415,1.871-1.99c0.534-0.576,0.901-0.982,1.104-1.219
		c0.381-0.465,0.639-0.842,0.772-1.13s0.2-0.582,0.2-0.884c0-0.477-0.14-0.85-0.42-1.121c-0.28-0.271-0.665-0.406-1.153-0.406
		c-0.347,0-0.711,0.063-1.092,0.189c-0.381,0.125-0.786,0.316-1.213,0.571v-1.167c0.393-0.187,0.779-0.327,1.159-0.423
		c0.379-0.096,0.754-0.143,1.124-0.143c0.835,0,1.507,0.222,2.016,0.666s0.764,1.026,0.764,1.747c0,0.366-0.085,0.732-0.254,1.099
		c-0.17,0.366-0.445,0.771-0.827,1.213c-0.214,0.248-0.523,0.591-0.93,1.029S-141.726,240.926-142.557,241.799z"/>
	<path d="M-134.114,234.077c0.248,0,0.483,0.046,0.707,0.14s0.418,0.228,0.586,0.403c0.172,0.172,0.302,0.366,0.392,0.583
		c0.089,0.218,0.134,0.452,0.134,0.704c0,0.503-0.177,0.93-0.532,1.278c-0.354,0.349-0.787,0.523-1.298,0.523
		c-0.515,0-0.944-0.172-1.287-0.515c-0.343-0.344-0.515-0.772-0.515-1.287c0-0.511,0.175-0.944,0.526-1.299
		C-135.05,234.254-134.621,234.077-134.114,234.077z M-134.114,234.814c-0.301,0-0.558,0.106-0.769,0.317
		c-0.212,0.212-0.317,0.471-0.317,0.775s0.104,0.561,0.312,0.767s0.462,0.309,0.764,0.309c0.305,0,0.565-0.104,0.781-0.314
		s0.323-0.463,0.323-0.761c0-0.301-0.107-0.559-0.32-0.772C-133.555,234.922-133.813,234.814-134.114,234.814z"/>
	<path d="M-124.447,242.469c-0.293,0.156-0.595,0.273-0.904,0.352c-0.309,0.078-0.637,0.117-0.984,0.117
		c-1.094,0-1.944-0.387-2.548-1.161s-0.907-1.863-0.907-3.267c0-1.396,0.304-2.483,0.913-3.264c0.608-0.779,1.456-1.169,2.542-1.169
		c0.347,0,0.675,0.039,0.984,0.117c0.309,0.078,0.61,0.195,0.904,0.352v1.184c-0.282-0.232-0.585-0.409-0.909-0.531
		c-0.324-0.122-0.65-0.184-0.979-0.184c-0.751,0-1.313,0.29-1.688,0.87c-0.374,0.579-0.561,1.454-0.561,2.625
		c0,1.167,0.187,2.04,0.561,2.62c0.374,0.58,0.937,0.869,1.688,0.869c0.335,0,0.665-0.061,0.987-0.183s0.623-0.3,0.901-0.532
		V242.469z"/>
	<path d="M-111.588,233.311c-0.507,0.869-0.886,1.735-1.135,2.6c-0.25,0.863-0.375,1.734-0.375,2.611
		c0,0.873,0.125,1.742,0.375,2.608c0.25,0.865,0.628,1.737,1.135,2.614h-0.915c-0.576-0.908-1.005-1.792-1.287-2.651
		c-0.282-0.86-0.423-1.717-0.423-2.571c0-0.851,0.141-1.707,0.423-2.568c0.282-0.862,0.711-1.743,1.287-2.643H-111.588z"/>
	<path d="M-103.345,233.871v0.875h-1.196c-0.377,0-0.64,0.077-0.786,0.231s-0.221,0.429-0.221,0.821v0.566h2.203v0.817h-2.203v5.589
		h-1.052v-5.589h-1.711v-0.817h1.711v-0.446c0-0.702,0.161-1.219,0.483-1.551c0.322-0.331,0.824-0.497,1.507-0.497H-103.345z"/>
	<path d="M-98.849,236.21c0.889,0,1.568,0.288,2.039,0.864c0.472,0.576,0.707,1.409,0.707,2.5c0,1.094-0.234,1.929-0.704,2.502
		c-0.469,0.574-1.149,0.861-2.042,0.861c-0.889,0-1.567-0.287-2.036-0.861c-0.469-0.573-0.704-1.408-0.704-2.502
		c0-1.091,0.235-1.924,0.704-2.5S-99.737,236.21-98.849,236.21z M-98.849,237.103c-0.534,0-0.938,0.208-1.213,0.624
		c-0.274,0.415-0.411,1.031-0.411,1.848c0,0.812,0.137,1.427,0.411,1.845c0.275,0.417,0.679,0.626,1.213,0.626
		c0.538,0,0.944-0.209,1.219-0.626c0.274-0.418,0.412-1.033,0.412-1.845c0-0.816-0.138-1.433-0.412-1.848
		C-97.904,237.311-98.311,237.103-98.849,237.103z"/>
	<path d="M-88.713,237.687c-0.225-0.176-0.453-0.304-0.686-0.384c-0.233-0.08-0.488-0.12-0.767-0.12
		c-0.656,0-1.158,0.206-1.505,0.618s-0.521,1.007-0.521,1.784v3.187h-1.059v-6.406h1.059v1.252c0.176-0.453,0.445-0.802,0.81-1.044
		s0.796-0.363,1.296-0.363c0.259,0,0.501,0.033,0.727,0.098c0.225,0.064,0.44,0.166,0.646,0.303V237.687z"/>
	<path d="M-74.606,237.687c-0.225-0.176-0.453-0.304-0.686-0.384c-0.233-0.08-0.488-0.12-0.767-0.12
		c-0.656,0-1.158,0.206-1.505,0.618s-0.521,1.007-0.521,1.784v3.187h-1.059v-6.406h1.059v1.252c0.176-0.453,0.445-0.802,0.81-1.044
		s0.796-0.363,1.296-0.363c0.259,0,0.501,0.033,0.727,0.098c0.225,0.064,0.44,0.166,0.646,0.303V237.687z"/>
	<path d="M-67.754,239.042v0.515h-4.559v0.034c-0.03,0.873,0.137,1.501,0.501,1.882c0.363,0.382,0.878,0.572,1.541,0.572
		c0.336,0,0.687-0.054,1.053-0.16s0.757-0.269,1.173-0.486v1.047c-0.4,0.164-0.787,0.287-1.158,0.369
		c-0.372,0.082-0.731,0.123-1.079,0.123c-0.995,0-1.772-0.299-2.333-0.896c-0.562-0.597-0.842-1.419-0.842-2.468
		c0-1.022,0.275-1.839,0.824-2.448c0.549-0.61,1.281-0.916,2.196-0.916c0.816,0,1.46,0.277,1.931,0.83
		S-67.784,238.26-67.754,239.042z M-68.806,238.733c-0.046-0.442-0.207-0.825-0.483-1.147s-0.675-0.483-1.193-0.483
		c-0.507,0-0.925,0.168-1.252,0.504c-0.328,0.335-0.508,0.713-0.538,1.132L-68.806,238.733z"/>
	<path d="M-61.05,239.116v3.655h-1.059v-0.949c-0.225,0.381-0.508,0.662-0.849,0.844c-0.342,0.181-0.757,0.271-1.244,0.271
		c-0.652,0-1.173-0.184-1.562-0.552c-0.39-0.368-0.584-0.861-0.584-1.479c0-0.713,0.239-1.254,0.718-1.624s1.182-0.555,2.108-0.555
		h1.412v-0.166c-0.003-0.511-0.133-0.882-0.389-1.112c-0.255-0.231-0.663-0.347-1.224-0.347c-0.358,0-0.721,0.052-1.087,0.154
		c-0.366,0.104-0.723,0.254-1.07,0.452v-1.053c0.39-0.148,0.762-0.26,1.119-0.334c0.356-0.075,0.702-0.112,1.038-0.112
		c0.529,0,0.982,0.078,1.358,0.235c0.375,0.156,0.68,0.391,0.912,0.703c0.145,0.19,0.248,0.426,0.309,0.706
		C-61.08,238.135-61.05,238.556-61.05,239.116z M-63.092,239.551h-0.349c-0.614,0-1.077,0.108-1.388,0.323
		c-0.311,0.216-0.466,0.537-0.466,0.964c0,0.386,0.116,0.685,0.349,0.898s0.555,0.32,0.967,0.32c0.58,0,1.035-0.201,1.367-0.604
		s0.5-0.958,0.503-1.668v-0.234H-63.092z"/>
	<path d="M-55.94,240.455c0,0.473,0.086,0.829,0.26,1.069s0.43,0.36,0.77,0.36h1.229v0.887h-1.333c-0.629,0-1.116-0.201-1.461-0.604
		c-0.346-0.402-0.518-0.974-0.518-1.713v-5.795h-1.688v-0.823h2.74V240.455z"/>
	<path d="M-51.011,233.311h0.916c0.575,0.899,1.005,1.78,1.287,2.643c0.282,0.861,0.423,1.718,0.423,2.568
		c0,0.857-0.141,1.718-0.423,2.58c-0.282,0.861-0.712,1.742-1.287,2.643h-0.916c0.508-0.885,0.886-1.76,1.136-2.626
		c0.25-0.865,0.375-1.731,0.375-2.597c0-0.869-0.125-1.737-0.375-2.603C-50.125,235.053-50.503,234.184-51.011,233.311z"/>
</g>
<g>
	<path d="M-359.607,102.594c1.304,0,2.265,0.347,2.883,1.041s0.927,1.773,0.927,3.237c0,1.457-0.309,2.531-0.927,3.224
		s-1.579,1.038-2.883,1.038h-1.733v-8.54H-359.607z M-359.63,110.185c0.972,0,1.651-0.239,2.036-0.718s0.578-1.344,0.578-2.595
		c0-1.262-0.192-2.133-0.575-2.611s-1.063-0.718-2.039-0.718h-0.549v6.642H-359.63z"/>
	<path d="M-348.664,107.404v0.515h-4.559v0.034c-0.031,0.873,0.136,1.501,0.5,1.882c0.364,0.382,0.878,0.572,1.542,0.572
		c0.335,0,0.687-0.054,1.053-0.16s0.757-0.269,1.172-0.486v1.047c-0.4,0.164-0.786,0.287-1.158,0.369
		c-0.372,0.082-0.731,0.123-1.078,0.123c-0.996,0-1.773-0.299-2.334-0.896s-0.841-1.419-0.841-2.468
		c0-1.022,0.274-1.839,0.824-2.448c0.549-0.61,1.281-0.916,2.197-0.916c0.816,0,1.459,0.277,1.93,0.83
		C-348.945,105.955-348.695,106.622-348.664,107.404z M-349.717,107.096c-0.045-0.442-0.207-0.825-0.483-1.147
		c-0.276-0.322-0.674-0.483-1.192-0.483c-0.507,0-0.925,0.168-1.253,0.504c-0.328,0.335-0.507,0.713-0.538,1.132L-349.717,107.096z"
		/>
	<path d="M-345.873,110.327v3.243h-1.058v-8.843h1.058v0.817c0.175-0.316,0.409-0.558,0.701-0.724
		c0.292-0.166,0.628-0.249,1.01-0.249c0.774,0,1.381,0.3,1.822,0.898s0.661,1.429,0.661,2.488c0,1.041-0.221,1.858-0.664,2.451
		s-1.049,0.89-1.819,0.89c-0.389,0-0.729-0.083-1.021-0.249C-345.476,110.885-345.705,110.644-345.873,110.327z M-342.784,107.937
		c0-0.816-0.128-1.433-0.386-1.848c-0.258-0.416-0.64-0.624-1.147-0.624c-0.511,0-0.898,0.209-1.162,0.627
		c-0.263,0.417-0.395,1.032-0.395,1.845c0,0.809,0.132,1.422,0.395,1.842c0.263,0.419,0.65,0.629,1.162,0.629
		c0.507,0,0.889-0.208,1.147-0.623C-342.913,109.368-342.784,108.752-342.784,107.937z"/>
	<path d="M-336.852,108.817c0,0.473,0.087,0.829,0.26,1.069s0.43,0.36,0.77,0.36h1.23v0.887h-1.333
		c-0.629,0-1.116-0.201-1.461-0.604s-0.518-0.974-0.518-1.713v-5.795h-1.688v-0.823h2.74V108.817z"/>
	<path d="M-330.388,104.572c0.889,0,1.568,0.288,2.04,0.864c0.471,0.576,0.707,1.409,0.707,2.5c0,1.094-0.235,1.929-0.704,2.502
		c-0.469,0.574-1.15,0.861-2.042,0.861c-0.888,0-1.567-0.287-2.036-0.861c-0.469-0.573-0.704-1.408-0.704-2.502
		c0-1.091,0.234-1.924,0.704-2.5S-331.276,104.572-330.388,104.572z M-330.388,105.465c-0.534,0-0.938,0.208-1.212,0.624
		c-0.274,0.415-0.412,1.031-0.412,1.848c0,0.812,0.138,1.427,0.412,1.845c0.274,0.417,0.679,0.626,1.212,0.626
		c0.538,0,0.944-0.209,1.219-0.626c0.274-0.418,0.412-1.033,0.412-1.845c0-0.816-0.137-1.433-0.412-1.848
		C-329.444,105.673-329.85,105.465-330.388,105.465z"/>
	<path d="M-321.951,109.074c-0.176,0.446-0.399,1.034-0.669,1.762c-0.377,1.007-0.631,1.621-0.761,1.843
		c-0.176,0.297-0.395,0.521-0.658,0.669c-0.263,0.148-0.57,0.223-0.921,0.223h-0.846v-0.881h0.624c0.309,0,0.551-0.09,0.726-0.269
		c0.175-0.18,0.398-0.643,0.669-1.39l-2.477-6.304h1.116l1.899,5.011l1.871-5.011h1.115L-321.951,109.074z"/>
	<path d="M-306.695,107.479v3.655h-1.058v-0.949c-0.225,0.381-0.508,0.662-0.85,0.844c-0.341,0.181-0.756,0.271-1.244,0.271
		c-0.652,0-1.172-0.184-1.562-0.552s-0.583-0.861-0.583-1.479c0-0.713,0.239-1.254,0.718-1.624s1.182-0.555,2.108-0.555h1.413
		v-0.166c-0.004-0.511-0.134-0.882-0.389-1.112c-0.255-0.231-0.664-0.347-1.224-0.347c-0.358,0-0.721,0.052-1.087,0.154
		c-0.366,0.104-0.723,0.254-1.069,0.452v-1.053c0.389-0.148,0.762-0.26,1.118-0.334c0.356-0.075,0.703-0.112,1.038-0.112
		c0.53,0,0.983,0.078,1.359,0.235c0.375,0.156,0.68,0.391,0.912,0.703c0.145,0.19,0.248,0.426,0.309,0.706
		S-306.695,106.918-306.695,107.479z M-308.737,107.913h-0.349c-0.614,0-1.076,0.108-1.387,0.323
		c-0.311,0.216-0.466,0.537-0.466,0.964c0,0.386,0.116,0.685,0.349,0.898c0.233,0.214,0.555,0.32,0.967,0.32
		c0.58,0,1.036-0.201,1.367-0.604c0.332-0.402,0.5-0.958,0.503-1.668v-0.234H-308.737z"/>
	<path d="M-299.688,107.164v3.97h-1.059v-3.97c0-0.576-0.101-0.999-0.303-1.27c-0.202-0.271-0.519-0.406-0.949-0.406
		c-0.492,0-0.871,0.174-1.136,0.523c-0.265,0.349-0.397,0.849-0.397,1.501v3.621h-1.053v-6.406h1.053v0.961
		c0.187-0.366,0.44-0.644,0.761-0.833c0.32-0.188,0.7-0.283,1.138-0.283c0.652,0,1.14,0.215,1.462,0.644
		C-299.849,105.646-299.688,106.295-299.688,107.164z"/>
	<path d="M-293.738,109.074c-0.176,0.446-0.399,1.034-0.669,1.762c-0.377,1.007-0.631,1.621-0.761,1.843
		c-0.176,0.297-0.395,0.521-0.658,0.669c-0.263,0.148-0.57,0.223-0.921,0.223h-0.846v-0.881h0.624c0.309,0,0.551-0.09,0.726-0.269
		c0.175-0.18,0.398-0.643,0.669-1.39l-2.477-6.304h1.116l1.899,5.011l1.871-5.011h1.115L-293.738,109.074z"/>
	<path d="M-291.593,104.728h1.041l1.116,5.177l0.915-3.307h0.898l0.927,3.307l1.116-5.177h1.041l-1.499,6.406h-1.007l-1.024-3.513
		l-1.018,3.513h-1.007L-291.593,104.728z"/>
	<path d="M-278.528,107.164v3.97h-1.059v-3.97c0-0.576-0.101-0.999-0.303-1.27c-0.202-0.271-0.519-0.406-0.949-0.406
		c-0.492,0-0.871,0.174-1.136,0.523c-0.265,0.349-0.397,0.849-0.397,1.501v3.621h-1.053v-8.9h1.053v3.455
		c0.187-0.366,0.44-0.644,0.761-0.833c0.32-0.188,0.7-0.283,1.138-0.283c0.652,0,1.14,0.215,1.462,0.644
		C-278.69,105.646-278.528,106.295-278.528,107.164z"/>
	<path d="M-271.081,107.404v0.515h-4.559v0.034c-0.031,0.873,0.136,1.501,0.5,1.882c0.364,0.382,0.878,0.572,1.542,0.572
		c0.335,0,0.687-0.054,1.053-0.16s0.757-0.269,1.172-0.486v1.047c-0.4,0.164-0.786,0.287-1.158,0.369
		c-0.372,0.082-0.731,0.123-1.078,0.123c-0.996,0-1.773-0.299-2.334-0.896s-0.841-1.419-0.841-2.468
		c0-1.022,0.274-1.839,0.824-2.448c0.549-0.61,1.281-0.916,2.197-0.916c0.816,0,1.459,0.277,1.93,0.83
		C-271.362,105.955-271.111,106.622-271.081,107.404z M-272.133,107.096c-0.045-0.442-0.207-0.825-0.483-1.147
		c-0.276-0.322-0.674-0.483-1.192-0.483c-0.507,0-0.925,0.168-1.253,0.504c-0.328,0.335-0.507,0.713-0.538,1.132L-272.133,107.096z"
		/>
	<path d="M-263.827,106.049c-0.225-0.176-0.454-0.304-0.687-0.384s-0.488-0.12-0.767-0.12c-0.656,0-1.157,0.206-1.504,0.618
		s-0.521,1.007-0.521,1.784v3.187h-1.058v-6.406h1.058v1.252c0.175-0.453,0.445-0.802,0.81-1.044s0.796-0.363,1.295-0.363
		c0.259,0,0.501,0.033,0.727,0.098s0.44,0.166,0.646,0.303V106.049z"/>
	<path d="M-256.975,107.404v0.515h-4.559v0.034c-0.031,0.873,0.136,1.501,0.5,1.882c0.364,0.382,0.878,0.572,1.542,0.572
		c0.335,0,0.687-0.054,1.053-0.16s0.757-0.269,1.172-0.486v1.047c-0.4,0.164-0.786,0.287-1.158,0.369
		c-0.372,0.082-0.731,0.123-1.078,0.123c-0.996,0-1.773-0.299-2.334-0.896s-0.841-1.419-0.841-2.468
		c0-1.022,0.274-1.839,0.824-2.448c0.549-0.61,1.281-0.916,2.197-0.916c0.816,0,1.459,0.277,1.93,0.83
		C-257.256,105.955-257.005,106.622-256.975,107.404z M-258.027,107.096c-0.045-0.442-0.207-0.825-0.483-1.147
		c-0.276-0.322-0.674-0.483-1.192-0.483c-0.507,0-0.925,0.168-1.253,0.504c-0.328,0.335-0.507,0.713-0.538,1.132L-258.027,107.096z"
		/>
</g>
<g>
	<path d="M-224.193,102.108h6.515v0.972h-2.671v7.568h-1.161v-7.568h-2.683V102.108z"/>
	<path d="M-211.002,106.919v0.515h-4.559v0.034c-0.031,0.873,0.136,1.501,0.5,1.882c0.364,0.382,0.878,0.572,1.542,0.572
		c0.335,0,0.687-0.054,1.053-0.16s0.757-0.269,1.172-0.486v1.047c-0.4,0.164-0.786,0.287-1.158,0.369
		c-0.372,0.082-0.731,0.123-1.078,0.123c-0.996,0-1.773-0.299-2.334-0.896s-0.841-1.419-0.841-2.468
		c0-1.022,0.274-1.839,0.824-2.448c0.549-0.61,1.281-0.916,2.197-0.916c0.816,0,1.459,0.277,1.93,0.83
		C-211.283,105.47-211.033,106.137-211.002,106.919z M-212.055,106.61c-0.045-0.442-0.207-0.825-0.483-1.147
		c-0.276-0.322-0.674-0.483-1.192-0.483c-0.507,0-0.925,0.168-1.253,0.504c-0.328,0.335-0.507,0.713-0.538,1.132L-212.055,106.61z"
		/>
	<path d="M-206.489,104.894c0.13-0.274,0.295-0.478,0.495-0.609c0.2-0.131,0.441-0.197,0.724-0.197c0.515,0,0.878,0.2,1.089,0.599
		c0.212,0.398,0.318,1.148,0.318,2.25v3.713h-0.961v-3.667c0-0.903-0.05-1.465-0.151-1.685c-0.101-0.219-0.285-0.329-0.552-0.329
		c-0.305,0-0.514,0.118-0.626,0.353c-0.113,0.234-0.169,0.788-0.169,1.661v3.667h-0.961v-3.667c0-0.915-0.054-1.479-0.163-1.693
		c-0.108-0.213-0.304-0.32-0.586-0.32c-0.278,0-0.472,0.118-0.581,0.353c-0.108,0.234-0.163,0.788-0.163,1.661v3.667h-0.955v-6.406
		h0.955v0.549c0.126-0.229,0.283-0.403,0.472-0.523c0.188-0.12,0.403-0.181,0.644-0.181c0.29,0,0.531,0.067,0.724,0.2
		C-206.746,104.421-206.596,104.623-206.489,104.894z"/>
	<path d="M-201.158,109.842v3.243h-1.058v-8.843h1.058v0.817c0.175-0.316,0.409-0.558,0.701-0.724
		c0.292-0.166,0.628-0.249,1.01-0.249c0.774,0,1.381,0.3,1.822,0.898s0.661,1.429,0.661,2.488c0,1.041-0.221,1.858-0.664,2.451
		s-1.049,0.89-1.819,0.89c-0.389,0-0.729-0.083-1.021-0.249C-200.76,110.399-200.99,110.158-201.158,109.842z M-198.069,107.451
		c0-0.816-0.128-1.433-0.386-1.848c-0.258-0.416-0.64-0.624-1.147-0.624c-0.511,0-0.898,0.209-1.162,0.627
		c-0.263,0.417-0.395,1.032-0.395,1.845c0,0.809,0.132,1.422,0.395,1.842c0.263,0.419,0.65,0.629,1.162,0.629
		c0.507,0,0.889-0.208,1.147-0.623C-198.197,108.883-198.069,108.267-198.069,107.451z"/>
	<path d="M-192.137,108.332c0,0.473,0.087,0.829,0.26,1.069s0.43,0.36,0.77,0.36h1.23v0.887h-1.333
		c-0.629,0-1.116-0.201-1.461-0.604s-0.518-0.974-0.518-1.713v-5.795h-1.688v-0.823h2.74V108.332z"/>
	<path d="M-183.139,106.993v3.655h-1.058v-0.949c-0.225,0.381-0.508,0.662-0.85,0.844c-0.341,0.181-0.756,0.271-1.244,0.271
		c-0.652,0-1.172-0.184-1.562-0.552s-0.583-0.861-0.583-1.479c0-0.713,0.239-1.254,0.718-1.624s1.182-0.555,2.108-0.555h1.413
		v-0.166c-0.004-0.511-0.134-0.882-0.389-1.112c-0.255-0.231-0.664-0.347-1.224-0.347c-0.358,0-0.721,0.052-1.087,0.154
		c-0.366,0.104-0.723,0.254-1.069,0.452v-1.053c0.389-0.148,0.762-0.26,1.118-0.334c0.356-0.075,0.703-0.112,1.038-0.112
		c0.53,0,0.983,0.078,1.359,0.235c0.375,0.156,0.68,0.391,0.912,0.703c0.145,0.19,0.248,0.426,0.309,0.706
		S-183.139,106.433-183.139,106.993z M-185.181,107.428h-0.349c-0.614,0-1.076,0.108-1.387,0.323
		c-0.311,0.216-0.466,0.537-0.466,0.964c0,0.386,0.116,0.685,0.349,0.898c0.233,0.214,0.555,0.32,0.967,0.32
		c0.58,0,1.036-0.201,1.367-0.604c0.332-0.402,0.5-0.958,0.503-1.668v-0.234H-185.181z"/>
	<path d="M-178.631,102.423v1.819h2.391v0.817h-2.391v3.479c0,0.473,0.089,0.803,0.269,0.989c0.179,0.187,0.492,0.28,0.938,0.28
		h1.184v0.841h-1.287c-0.79,0-1.346-0.158-1.67-0.475s-0.486-0.862-0.486-1.636v-3.479h-1.71v-0.817h1.71v-1.819H-178.631z"/>
	<path d="M-173.283,104.265h2.694v5.565h2.088v0.818h-5.229v-0.818h2.088v-4.747h-1.642V104.265z M-171.641,101.776h1.053v1.327
		h-1.053V101.776z"/>
	<path d="M-162.025,106.679v3.97h-1.059v-3.97c0-0.576-0.101-0.999-0.303-1.27c-0.202-0.271-0.519-0.406-0.949-0.406
		c-0.492,0-0.871,0.174-1.136,0.523c-0.265,0.349-0.397,0.849-0.397,1.501v3.621h-1.053v-6.406h1.053v0.961
		c0.187-0.366,0.44-0.644,0.761-0.833c0.32-0.188,0.7-0.283,1.138-0.283c0.652,0,1.14,0.215,1.462,0.644
		C-162.187,105.16-162.025,105.81-162.025,106.679z"/>
	<path d="M-155.024,110.236c0,0.961-0.227,1.689-0.681,2.186c-0.454,0.495-1.121,0.743-2.002,0.743c-0.29,0-0.593-0.026-0.91-0.08
		c-0.316-0.053-0.633-0.131-0.95-0.234v-1.041c0.374,0.176,0.713,0.305,1.019,0.389c0.305,0.084,0.585,0.126,0.841,0.126
		c0.568,0,0.982-0.154,1.241-0.463c0.259-0.31,0.389-0.799,0.389-1.471v-0.045v-0.716c-0.168,0.358-0.397,0.626-0.687,0.801
		c-0.29,0.176-0.643,0.264-1.059,0.264c-0.747,0-1.344-0.3-1.79-0.898c-0.446-0.599-0.669-1.399-0.669-2.402
		c0-1.007,0.223-1.81,0.669-2.408c0.446-0.599,1.043-0.898,1.79-0.898c0.412,0,0.761,0.082,1.047,0.246
		c0.286,0.164,0.519,0.418,0.698,0.761v-0.829h1.052V110.236z M-156.076,107.394c0-0.789-0.129-1.389-0.386-1.799
		s-0.632-0.615-1.124-0.615c-0.515,0-0.908,0.205-1.179,0.615c-0.271,0.41-0.406,1.01-0.406,1.799s0.136,1.391,0.409,1.805
		c0.273,0.414,0.668,0.621,1.187,0.621c0.484,0,0.855-0.208,1.113-0.624C-156.205,108.78-156.076,108.18-156.076,107.394z"/>
</g>
<g>
	<path d="M-109.091,103.653h5.068v0.972h-3.913v2.3h3.741v0.973h-3.741v3.323h4.021v0.973h-5.177V103.653z"/>
	<path d="M-97.106,108.538v3.655h-1.059v-0.949c-0.225,0.381-0.508,0.662-0.85,0.844c-0.342,0.181-0.756,0.271-1.244,0.271
		c-0.652,0-1.172-0.184-1.561-0.552c-0.391-0.368-0.584-0.861-0.584-1.479c0-0.713,0.238-1.254,0.717-1.624s1.182-0.555,2.109-0.555
		h1.412v-0.166c-0.004-0.511-0.133-0.882-0.389-1.112c-0.256-0.231-0.664-0.347-1.225-0.347c-0.357,0-0.721,0.052-1.086,0.154
		c-0.367,0.104-0.723,0.254-1.07,0.452v-1.053c0.389-0.148,0.762-0.26,1.119-0.334c0.355-0.075,0.701-0.112,1.037-0.112
		c0.529,0,0.982,0.078,1.359,0.235c0.375,0.156,0.68,0.391,0.912,0.703c0.145,0.19,0.248,0.426,0.309,0.706
		S-97.106,107.978-97.106,108.538z M-99.149,108.973h-0.348c-0.615,0-1.078,0.108-1.389,0.323c-0.311,0.216-0.465,0.537-0.465,0.964
		c0,0.386,0.115,0.685,0.348,0.898s0.555,0.32,0.967,0.32c0.58,0,1.035-0.201,1.367-0.604s0.5-0.958,0.504-1.668v-0.234H-99.149z"/>
	<path d="M-90.546,106.01v1.029c-0.301-0.175-0.604-0.307-0.909-0.395s-0.616-0.132-0.933-0.132c-0.477,0-0.832,0.078-1.066,0.232
		s-0.352,0.39-0.352,0.706c0,0.286,0.087,0.5,0.263,0.641c0.176,0.142,0.612,0.278,1.31,0.412l0.424,0.08
		c0.522,0.099,0.918,0.297,1.187,0.595c0.27,0.298,0.403,0.685,0.403,1.161c0,0.633-0.225,1.128-0.675,1.484
		s-1.075,0.535-1.876,0.535c-0.316,0-0.648-0.033-0.995-0.101c-0.348-0.066-0.723-0.166-1.127-0.3v-1.087
		c0.393,0.202,0.768,0.354,1.127,0.455c0.358,0.101,0.697,0.151,1.018,0.151c0.466,0,0.826-0.095,1.081-0.283
		c0.256-0.188,0.384-0.453,0.384-0.792c0-0.488-0.468-0.826-1.401-1.013l-0.046-0.012l-0.395-0.08
		c-0.606-0.118-1.049-0.317-1.327-0.598s-0.418-0.662-0.418-1.146c0-0.614,0.208-1.088,0.624-1.422
		c0.415-0.334,1.008-0.501,1.778-0.501c0.344,0,0.673,0.032,0.99,0.095C-91.161,105.789-90.851,105.884-90.546,106.01z"/>
	<path d="M-84.15,110.134c-0.176,0.446-0.398,1.034-0.67,1.762c-0.377,1.007-0.631,1.621-0.761,1.843
		c-0.175,0.297-0.395,0.521-0.657,0.669c-0.264,0.148-0.57,0.223-0.921,0.223h-0.847v-0.881h0.623c0.31,0,0.552-0.09,0.727-0.269
		c0.176-0.18,0.398-0.643,0.669-1.39l-2.477-6.304h1.115l1.899,5.011l1.871-5.011h1.115L-84.15,110.134z"/>
	<path d="M-71.439,103.968v1.819h2.391v0.817h-2.391v3.479c0,0.473,0.089,0.803,0.269,0.989c0.179,0.187,0.492,0.28,0.938,0.28
		h1.185v0.841h-1.287c-0.789,0-1.347-0.158-1.67-0.475c-0.324-0.316-0.486-0.862-0.486-1.636v-3.479h-1.711v-0.817h1.711v-1.819
		H-71.439z"/>
	<path d="M-64.376,105.632c0.889,0,1.568,0.288,2.039,0.864c0.472,0.576,0.707,1.409,0.707,2.5c0,1.094-0.234,1.929-0.704,2.502
		c-0.469,0.574-1.149,0.861-2.042,0.861c-0.889,0-1.567-0.287-2.036-0.861c-0.469-0.573-0.704-1.408-0.704-2.502
		c0-1.091,0.235-1.924,0.704-2.5S-65.265,105.632-64.376,105.632z M-64.376,106.524c-0.534,0-0.938,0.208-1.213,0.624
		c-0.274,0.415-0.411,1.031-0.411,1.848c0,0.812,0.137,1.427,0.411,1.845c0.275,0.417,0.679,0.626,1.213,0.626
		c0.538,0,0.944-0.209,1.219-0.626c0.274-0.418,0.412-1.033,0.412-1.845c0-0.816-0.138-1.433-0.412-1.848
		C-63.432,106.732-63.838,106.524-64.376,106.524z"/>
	<path d="M-52.678,109.768v-3.97h1.053v3.97c0,0.576,0.102,1,0.306,1.271s0.52,0.406,0.947,0.406c0.495,0,0.875-0.175,1.138-0.523
		c0.264-0.35,0.396-0.85,0.396-1.502v-3.621h1.058v6.396h-1.058v-0.961c-0.188,0.37-0.441,0.65-0.764,0.841s-0.699,0.286-1.13,0.286
		c-0.656,0-1.145-0.215-1.465-0.644S-52.678,110.638-52.678,109.768z"/>
	<path d="M-41.175,106.01v1.029c-0.301-0.175-0.604-0.307-0.909-0.395s-0.616-0.132-0.933-0.132c-0.477,0-0.832,0.078-1.066,0.232
		s-0.352,0.39-0.352,0.706c0,0.286,0.087,0.5,0.263,0.641c0.176,0.142,0.612,0.278,1.31,0.412l0.424,0.08
		c0.522,0.099,0.918,0.297,1.187,0.595c0.27,0.298,0.403,0.685,0.403,1.161c0,0.633-0.225,1.128-0.675,1.484
		s-1.075,0.535-1.876,0.535c-0.316,0-0.648-0.033-0.995-0.101c-0.348-0.066-0.723-0.166-1.127-0.3v-1.087
		c0.393,0.202,0.768,0.354,1.127,0.455c0.358,0.101,0.697,0.151,1.018,0.151c0.466,0,0.826-0.095,1.081-0.283
		c0.256-0.188,0.384-0.453,0.384-0.792c0-0.488-0.468-0.826-1.401-1.013l-0.046-0.012l-0.395-0.08
		c-0.606-0.118-1.049-0.317-1.327-0.598s-0.418-0.662-0.418-1.146c0-0.614,0.208-1.088,0.624-1.422
		c0.415-0.334,1.008-0.501,1.778-0.501c0.344,0,0.673,0.032,0.99,0.095C-41.79,105.789-41.479,105.884-41.175,106.01z"/>
	<path d="M-33.281,108.464v0.515h-4.559v0.034c-0.03,0.873,0.137,1.501,0.501,1.882c0.363,0.382,0.878,0.572,1.541,0.572
		c0.336,0,0.687-0.054,1.053-0.16s0.757-0.269,1.173-0.486v1.047c-0.4,0.164-0.787,0.287-1.158,0.369
		c-0.372,0.082-0.731,0.123-1.079,0.123c-0.995,0-1.772-0.299-2.333-0.896c-0.562-0.597-0.842-1.419-0.842-2.468
		c0-1.022,0.275-1.839,0.824-2.448c0.549-0.61,1.281-0.916,2.196-0.916c0.816,0,1.46,0.277,1.931,0.83
		S-33.312,107.682-33.281,108.464z M-34.333,108.155c-0.046-0.442-0.207-0.825-0.483-1.147s-0.675-0.483-1.193-0.483
		c-0.507,0-0.925,0.168-1.252,0.504c-0.328,0.335-0.508,0.713-0.538,1.132L-34.333,108.155z"/>
</g>
<g>
	<path d="M3.962,101.622h1.127l0.818,6.933l0.972-4.588h1.207l0.984,4.6l0.817-6.944h1.127l-1.275,8.54H8.646l-1.161-5.074
		l-1.155,5.074H5.237L3.962,101.622z"/>
	<path d="M14.538,103.601c0.889,0,1.568,0.288,2.039,0.864c0.472,0.576,0.707,1.409,0.707,2.5c0,1.094-0.234,1.929-0.704,2.502
		c-0.469,0.574-1.149,0.861-2.042,0.861c-0.889,0-1.567-0.287-2.036-0.861c-0.469-0.573-0.704-1.408-0.704-2.502
		c0-1.091,0.235-1.924,0.704-2.5S13.649,103.601,14.538,103.601z M14.538,104.493c-0.534,0-0.938,0.208-1.213,0.624
		c-0.274,0.415-0.411,1.031-0.411,1.848c0,0.812,0.137,1.427,0.411,1.845c0.275,0.417,0.679,0.626,1.213,0.626
		c0.538,0,0.944-0.209,1.219-0.626c0.274-0.418,0.412-1.033,0.412-1.845c0-0.816-0.138-1.433-0.412-1.848
		C15.482,104.701,15.076,104.493,14.538,104.493z"/>
	<path d="M24.675,105.077c-0.225-0.176-0.453-0.304-0.686-0.384c-0.233-0.08-0.488-0.12-0.767-0.12
		c-0.656,0-1.158,0.206-1.505,0.618s-0.521,1.007-0.521,1.784v3.187h-1.059v-6.406h1.059v1.252c0.176-0.453,0.445-0.802,0.81-1.044
		s0.796-0.363,1.296-0.363c0.259,0,0.501,0.033,0.727,0.098c0.225,0.064,0.44,0.166,0.646,0.303V105.077z"/>
	<path d="M26.471,101.262h1.087v5.153l2.763-2.659h1.282l-2.523,2.413l2.918,3.993H30.71l-2.368-3.307l-0.784,0.738v2.568h-1.087
		V101.262z"/>
	<path d="M37.739,103.979v1.029c-0.301-0.175-0.604-0.307-0.909-0.395s-0.616-0.132-0.933-0.132c-0.477,0-0.832,0.078-1.066,0.232
		s-0.352,0.39-0.352,0.706c0,0.286,0.087,0.5,0.263,0.641c0.176,0.142,0.612,0.278,1.31,0.412l0.424,0.08
		c0.522,0.099,0.918,0.297,1.187,0.595c0.27,0.298,0.403,0.685,0.403,1.161c0,0.633-0.225,1.128-0.675,1.484
		s-1.075,0.535-1.876,0.535c-0.316,0-0.648-0.033-0.995-0.101c-0.348-0.066-0.723-0.166-1.127-0.3v-1.087
		c0.393,0.202,0.768,0.354,1.127,0.455c0.358,0.101,0.697,0.151,1.018,0.151c0.466,0,0.826-0.095,1.081-0.283
		c0.256-0.188,0.384-0.453,0.384-0.792c0-0.488-0.468-0.826-1.401-1.013l-0.046-0.012l-0.395-0.08
		c-0.606-0.118-1.049-0.317-1.327-0.598s-0.418-0.662-0.418-1.146c0-0.614,0.208-1.088,0.624-1.422
		c0.415-0.334,1.008-0.501,1.778-0.501c0.344,0,0.673,0.032,0.99,0.095C37.124,103.758,37.435,103.853,37.739,103.979z"/>
	<path d="M52.338,106.507v3.655h-1.059v-0.949c-0.225,0.381-0.508,0.662-0.849,0.844c-0.342,0.181-0.757,0.271-1.244,0.271
		c-0.652,0-1.173-0.184-1.562-0.552c-0.39-0.368-0.584-0.861-0.584-1.479c0-0.713,0.239-1.254,0.718-1.624s1.182-0.555,2.108-0.555
		h1.412v-0.166c-0.003-0.511-0.133-0.882-0.389-1.112c-0.255-0.231-0.663-0.347-1.224-0.347c-0.358,0-0.721,0.052-1.087,0.154
		c-0.366,0.104-0.723,0.254-1.07,0.452v-1.053c0.39-0.148,0.762-0.26,1.119-0.334c0.356-0.075,0.702-0.112,1.038-0.112
		c0.529,0,0.982,0.078,1.358,0.235c0.375,0.156,0.68,0.391,0.912,0.703c0.145,0.19,0.248,0.426,0.309,0.706
		C52.308,105.525,52.338,105.946,52.338,106.507z M50.296,106.941h-0.349c-0.614,0-1.077,0.108-1.388,0.323
		c-0.311,0.216-0.466,0.537-0.466,0.964c0,0.386,0.116,0.685,0.349,0.898s0.555,0.32,0.967,0.32c0.58,0,1.035-0.201,1.367-0.604
		s0.5-0.958,0.503-1.668v-0.234H50.296z"/>
	<path d="M53.333,103.756h1.041l1.115,5.177l0.915-3.307h0.898l0.927,3.307l1.115-5.177h1.041l-1.498,6.406h-1.007l-1.024-3.513
		l-1.018,3.513h-1.007L53.333,103.756z"/>
	<path d="M66.793,106.433v0.515h-4.559v0.034c-0.03,0.873,0.137,1.501,0.501,1.882c0.363,0.382,0.878,0.572,1.541,0.572
		c0.336,0,0.687-0.054,1.053-0.16s0.757-0.269,1.173-0.486v1.047c-0.4,0.164-0.787,0.287-1.158,0.369
		c-0.372,0.082-0.731,0.123-1.079,0.123c-0.995,0-1.772-0.299-2.333-0.896c-0.562-0.597-0.842-1.419-0.842-2.468
		c0-1.022,0.275-1.839,0.824-2.448c0.549-0.61,1.281-0.916,2.196-0.916c0.816,0,1.46,0.277,1.931,0.83S66.763,105.65,66.793,106.433
		z M65.741,106.124c-0.046-0.442-0.207-0.825-0.483-1.147s-0.675-0.483-1.193-0.483c-0.507,0-0.925,0.168-1.252,0.504
		c-0.328,0.335-0.508,0.713-0.538,1.132L65.741,106.124z"/>
	<path d="M73.005,103.979v1.029c-0.301-0.175-0.604-0.307-0.909-0.395s-0.616-0.132-0.933-0.132c-0.477,0-0.832,0.078-1.066,0.232
		s-0.352,0.39-0.352,0.706c0,0.286,0.087,0.5,0.263,0.641c0.176,0.142,0.612,0.278,1.31,0.412l0.424,0.08
		c0.522,0.099,0.918,0.297,1.187,0.595c0.27,0.298,0.403,0.685,0.403,1.161c0,0.633-0.225,1.128-0.675,1.484
		s-1.075,0.535-1.876,0.535c-0.316,0-0.648-0.033-0.995-0.101c-0.348-0.066-0.723-0.166-1.127-0.3v-1.087
		c0.393,0.202,0.768,0.354,1.127,0.455c0.358,0.101,0.697,0.151,1.018,0.151c0.466,0,0.826-0.095,1.081-0.283
		c0.256-0.188,0.384-0.453,0.384-0.792c0-0.488-0.468-0.826-1.401-1.013l-0.046-0.012l-0.395-0.08
		c-0.606-0.118-1.049-0.317-1.327-0.598s-0.418-0.662-0.418-1.146c0-0.614,0.208-1.088,0.624-1.422
		c0.415-0.334,1.008-0.501,1.778-0.501c0.344,0,0.673,0.032,0.99,0.095C72.39,103.758,72.7,103.853,73.005,103.979z"/>
	<path d="M78.016,103.601c0.889,0,1.568,0.288,2.039,0.864c0.472,0.576,0.707,1.409,0.707,2.5c0,1.094-0.234,1.929-0.704,2.502
		c-0.469,0.574-1.149,0.861-2.042,0.861c-0.889,0-1.567-0.287-2.036-0.861c-0.469-0.573-0.704-1.408-0.704-2.502
		c0-1.091,0.235-1.924,0.704-2.5S77.127,103.601,78.016,103.601z M78.016,104.493c-0.534,0-0.938,0.208-1.213,0.624
		c-0.274,0.415-0.411,1.031-0.411,1.848c0,0.812,0.137,1.427,0.411,1.845c0.275,0.417,0.679,0.626,1.213,0.626
		c0.538,0,0.944-0.209,1.219-0.626c0.274-0.418,0.412-1.033,0.412-1.845c0-0.816-0.138-1.433-0.412-1.848
		C78.96,104.701,78.554,104.493,78.016,104.493z"/>
	<path d="M85.413,104.407c0.129-0.274,0.294-0.478,0.494-0.609c0.2-0.131,0.441-0.197,0.724-0.197c0.516,0,0.878,0.2,1.09,0.599
		s0.317,1.148,0.317,2.25v3.713h-0.961v-3.667c0-0.903-0.051-1.465-0.151-1.685c-0.102-0.219-0.285-0.329-0.552-0.329
		c-0.306,0-0.515,0.118-0.627,0.353s-0.168,0.788-0.168,1.661v3.667h-0.962v-3.667c0-0.915-0.054-1.479-0.162-1.693
		c-0.109-0.213-0.305-0.32-0.587-0.32c-0.278,0-0.472,0.118-0.58,0.353c-0.109,0.234-0.163,0.788-0.163,1.661v3.667h-0.956v-6.406
		h0.956v0.549c0.126-0.229,0.283-0.403,0.472-0.523s0.403-0.181,0.644-0.181c0.29,0,0.531,0.067,0.724,0.2
		C85.156,103.935,85.306,104.137,85.413,104.407z"/>
	<path d="M95.005,106.433v0.515h-4.559v0.034c-0.03,0.873,0.137,1.501,0.501,1.882c0.363,0.382,0.878,0.572,1.541,0.572
		c0.336,0,0.687-0.054,1.053-0.16s0.757-0.269,1.173-0.486v1.047c-0.4,0.164-0.787,0.287-1.158,0.369
		c-0.372,0.082-0.731,0.123-1.079,0.123c-0.995,0-1.772-0.299-2.333-0.896c-0.562-0.597-0.842-1.419-0.842-2.468
		c0-1.022,0.275-1.839,0.824-2.448c0.549-0.61,1.281-0.916,2.196-0.916c0.816,0,1.46,0.277,1.931,0.83S94.975,105.65,95.005,106.433
		z M93.953,106.124c-0.046-0.442-0.207-0.825-0.483-1.147s-0.675-0.483-1.193-0.483c-0.507,0-0.925,0.168-1.252,0.504
		c-0.328,0.335-0.508,0.713-0.538,1.132L93.953,106.124z"/>
	<path d="M3.962,117.813h1.041l1.115,5.177l0.915-3.307h0.898l0.927,3.307l1.115-5.177h1.041l-1.498,6.406H8.51l-1.024-3.513
		l-1.018,3.513H5.461L3.962,117.813z"/>
	<path d="M12.822,117.836h2.694v5.565h2.088v0.818h-5.229v-0.818h2.088v-4.747h-1.642V117.836z M14.464,115.348h1.053v1.327h-1.053
		V115.348z"/>
	<path d="M21.581,115.994v1.819h2.391v0.817h-2.391v3.479c0,0.473,0.089,0.803,0.269,0.989c0.179,0.187,0.492,0.28,0.938,0.28h1.185
		v0.841h-1.287c-0.789,0-1.347-0.158-1.67-0.475c-0.324-0.316-0.486-0.862-0.486-1.636v-3.479h-1.711v-0.817h1.711v-1.819H21.581z"
		/>
	<path d="M31.133,120.25v3.97h-1.058v-3.97c0-0.576-0.102-0.999-0.304-1.27c-0.202-0.271-0.519-0.406-0.949-0.406
		c-0.492,0-0.871,0.174-1.136,0.523c-0.265,0.349-0.397,0.849-0.397,1.501v3.621h-1.053v-8.9h1.053v3.455
		c0.187-0.366,0.44-0.644,0.761-0.833c0.32-0.188,0.7-0.283,1.139-0.283c0.651,0,1.139,0.215,1.461,0.644
		C30.972,118.731,31.133,119.381,31.133,120.25z"/>
	<path d="M39.434,115.708h1.544l1.477,4.336l1.487-4.336h1.55v8.512h-1.069v-7.522l-1.521,4.485h-0.876l-1.527-4.485v7.522h-1.063
		V115.708z"/>
	<path d="M49.804,117.658c0.889,0,1.568,0.288,2.039,0.864c0.472,0.576,0.707,1.409,0.707,2.5c0,1.094-0.234,1.929-0.704,2.502
		c-0.469,0.574-1.149,0.861-2.042,0.861c-0.889,0-1.567-0.287-2.036-0.861c-0.469-0.573-0.704-1.408-0.704-2.502
		c0-1.091,0.235-1.924,0.704-2.5S48.915,117.658,49.804,117.658z M49.804,118.551c-0.534,0-0.938,0.208-1.213,0.624
		c-0.274,0.415-0.411,1.031-0.411,1.848c0,0.812,0.137,1.427,0.411,1.845c0.275,0.417,0.679,0.626,1.213,0.626
		c0.538,0,0.944-0.209,1.219-0.626c0.274-0.418,0.412-1.033,0.412-1.845c0-0.816-0.138-1.433-0.412-1.848
		C50.748,118.759,50.342,118.551,49.804,118.551z"/>
	<path d="M54.448,121.794v-3.97h1.053v3.97c0,0.576,0.102,1,0.306,1.271s0.52,0.406,0.947,0.406c0.495,0,0.875-0.175,1.138-0.523
		c0.264-0.35,0.396-0.85,0.396-1.502v-3.621h1.058v6.396h-1.058v-0.961c-0.188,0.37-0.441,0.65-0.764,0.841s-0.699,0.286-1.13,0.286
		c-0.656,0-1.145-0.215-1.465-0.644S54.448,122.664,54.448,121.794z"/>
</g>
<path fill-rule="evenodd" clip-rule="evenodd" fill="#00FFAA" d="M40.419-81.012c0,3.816-3.094,6.911-6.908,6.911h-315.882
	c-3.814,0-6.915-3.094-6.915-6.911v-42.089c0-3.816,3.1-6.911,6.915-6.911H33.511c3.814,0,6.908,3.094,6.908,6.911V-81.012z"/>
<g>
	<path d="M-252.027-109.748c2.747,0,4.77,0.731,6.071,2.192c1.301,1.462,1.952,3.734,1.952,6.818c0,3.067-0.65,5.33-1.952,6.788
		c-1.301,1.458-3.324,2.186-6.071,2.186h-3.649v-17.984H-252.027z M-252.075-93.763c2.047,0,3.477-0.504,4.288-1.512
		c0.811-1.008,1.216-2.829,1.216-5.462c0-2.658-0.403-4.491-1.21-5.499c-0.807-1.007-2.238-1.512-4.294-1.512h-1.157v13.985
		H-252.075z"/>
	<path d="M-235.055-105.58c1.871,0,3.302,0.606,4.294,1.819s1.488,2.967,1.488,5.264c0,2.305-0.494,4.062-1.481,5.27
		s-2.421,1.812-4.3,1.812c-1.871,0-3.3-0.604-4.288-1.812s-1.481-2.965-1.481-5.27c0-2.296,0.494-4.051,1.481-5.264
		S-236.926-105.58-235.055-105.58z M-235.055-103.701c-1.125,0-1.976,0.438-2.554,1.313c-0.578,0.875-0.867,2.172-0.867,3.891
		c0,1.71,0.289,3.005,0.867,3.885s1.429,1.319,2.554,1.319c1.132,0,1.987-0.439,2.565-1.319c0.579-0.879,0.868-2.174,0.868-3.885
		c0-1.718-0.289-3.015-0.868-3.891C-233.068-103.263-233.923-103.701-235.055-103.701z"/>
	<path d="M-227.624-105.254h2.192l2.349,10.901l1.927-6.962h1.891l1.952,6.962l2.349-10.901h2.192l-3.156,13.491h-2.12l-2.156-7.396
		l-2.144,7.396h-2.12L-227.624-105.254z"/>
	<path d="M-200.112-100.123v8.359h-2.229v-8.359c0-1.212-0.213-2.104-0.638-2.674c-0.426-0.57-1.092-0.855-2-0.855
		c-1.036,0-1.833,0.367-2.391,1.102s-0.837,1.789-0.837,3.162v7.625h-2.216v-13.491h2.216v2.023
		c0.394-0.771,0.928-1.355,1.602-1.752c0.675-0.397,1.474-0.596,2.397-0.596c1.373,0,2.399,0.452,3.077,1.355
		C-200.451-103.321-200.112-101.954-200.112-100.123z"/>
	<path d="M-189.259-96.642c0,0.996,0.183,1.747,0.548,2.252c0.366,0.506,0.905,0.759,1.62,0.759h2.59v1.867h-2.807
		c-1.325,0-2.351-0.423-3.078-1.271c-0.727-0.847-1.09-2.049-1.09-3.607v-12.202h-3.553v-1.735h5.77V-96.642z"/>
	<path d="M-175.648-105.58c1.871,0,3.302,0.606,4.294,1.819s1.488,2.967,1.488,5.264c0,2.305-0.494,4.062-1.481,5.27
		s-2.421,1.812-4.3,1.812c-1.871,0-3.3-0.604-4.288-1.812s-1.481-2.965-1.481-5.27c0-2.296,0.494-4.051,1.481-5.264
		S-177.519-105.58-175.648-105.58z M-175.648-103.701c-1.125,0-1.976,0.438-2.554,1.313c-0.578,0.875-0.867,2.172-0.867,3.891
		c0,1.71,0.289,3.005,0.867,3.885s1.429,1.319,2.554,1.319c1.132,0,1.987-0.439,2.565-1.319c0.579-0.879,0.868-2.174,0.868-3.885
		c0-1.718-0.289-3.015-0.868-3.891C-173.661-103.263-174.516-103.701-175.648-103.701z"/>
	<path d="M-155.46-99.46v7.697h-2.228v-2c-0.474,0.803-1.07,1.396-1.789,1.777s-1.592,0.572-2.62,0.572
		c-1.373,0-2.469-0.387-3.289-1.162c-0.819-0.775-1.229-1.813-1.229-3.114c0-1.501,0.504-2.642,1.512-3.421s2.487-1.168,4.438-1.168
		h2.976v-0.349c-0.008-1.076-0.281-1.857-0.819-2.343s-1.397-0.729-2.578-0.729c-0.755,0-1.518,0.108-2.289,0.325
		s-1.522,0.534-2.252,0.952v-2.216c0.819-0.313,1.604-0.548,2.355-0.705c0.75-0.157,1.479-0.235,2.186-0.235
		c1.116,0,2.07,0.165,2.861,0.494c0.791,0.33,1.431,0.823,1.921,1.482c0.305,0.401,0.522,0.897,0.651,1.487
		C-155.524-101.526-155.46-100.641-155.46-99.46z M-159.76-98.545h-0.735c-1.293,0-2.267,0.227-2.921,0.681
		c-0.655,0.454-0.982,1.13-0.982,2.03c0,0.811,0.245,1.441,0.735,1.891c0.49,0.45,1.168,0.674,2.036,0.674
		c1.221,0,2.18-0.423,2.879-1.271s1.052-2.018,1.06-3.511v-0.494H-159.76z"/>
	<path d="M-143.029-103.532v-6.975h2.216v18.743h-2.216v-1.698c-0.37,0.667-0.861,1.174-1.476,1.523
		c-0.614,0.35-1.323,0.524-2.126,0.524c-1.63,0-2.913-0.632-3.849-1.897s-1.403-3.009-1.403-5.234c0-2.192,0.47-3.913,1.41-5.161
		c0.939-1.249,2.22-1.873,3.842-1.873c0.811,0,1.525,0.175,2.144,0.524C-143.868-104.707-143.382-104.198-143.029-103.532z
		 M-149.545-98.497c0,1.719,0.273,3.016,0.819,3.891c0.546,0.875,1.353,1.313,2.421,1.313s1.881-0.441,2.439-1.325
		c0.558-0.883,0.837-2.176,0.837-3.878c0-1.71-0.279-3.005-0.837-3.885c-0.558-0.879-1.371-1.319-2.439-1.319
		s-1.875,0.438-2.421,1.313C-149.272-101.512-149.545-100.215-149.545-98.497z"/>
	<path d="M-116.24-105.58c1.871,0,3.302,0.606,4.294,1.819s1.488,2.967,1.488,5.264c0,2.305-0.494,4.062-1.481,5.27
		s-2.421,1.812-4.3,1.812c-1.871,0-3.3-0.604-4.288-1.812s-1.481-2.965-1.481-5.27c0-2.296,0.494-4.051,1.481-5.264
		S-118.111-105.58-116.24-105.58z M-116.24-103.701c-1.125,0-1.976,0.438-2.554,1.313c-0.578,0.875-0.867,2.172-0.867,3.891
		c0,1.71,0.289,3.005,0.867,3.885s1.429,1.319,2.554,1.319c1.132,0,1.987-0.439,2.565-1.319c0.579-0.879,0.868-2.174,0.868-3.885
		c0-1.718-0.289-3.015-0.868-3.891C-114.253-103.263-115.108-103.701-116.24-103.701z"/>
	<path d="M-96.149-100.123v8.359h-2.228v-8.359c0-1.212-0.213-2.104-0.639-2.674c-0.426-0.57-1.092-0.855-2-0.855
		c-1.035,0-1.833,0.367-2.391,1.102c-0.559,0.735-0.837,1.789-0.837,3.162v7.625h-2.217v-13.491h2.217v2.023
		c0.394-0.771,0.927-1.355,1.602-1.752s1.474-0.596,2.397-0.596c1.373,0,2.398,0.452,3.077,1.355S-96.149-101.954-96.149-100.123z"
		/>
	<path d="M-65.807-93.245c-0.65,0.602-1.383,1.058-2.198,1.367s-1.696,0.463-2.644,0.463c-2.281,0-4.056-0.817-5.324-2.451
		c-1.269-1.634-1.903-3.925-1.903-6.872c0-2.939,0.643-5.229,1.928-6.872c1.284-1.642,3.071-2.463,5.359-2.463
		c0.755,0,1.478,0.107,2.169,0.319c0.69,0.213,1.356,0.536,1.999,0.97v2.493c-0.65-0.618-1.317-1.074-1.999-1.367
		c-0.683-0.293-1.405-0.439-2.169-0.439c-1.582,0-2.769,0.612-3.559,1.837c-0.791,1.225-1.187,3.065-1.187,5.523
		c0,2.498,0.383,4.346,1.15,5.547c0.767,1.201,1.945,1.801,3.535,1.801c0.538,0,1.01-0.062,1.415-0.187
		c0.405-0.124,0.772-0.319,1.103-0.584v-4.83h-2.614v-2h4.938V-93.245z"/>
	<path d="M-60.446-105.206h5.673v11.72h4.396v1.723h-11.009v-1.723h4.396v-9.998h-3.457V-105.206z M-56.989-110.446h2.216v2.794
		h-2.216V-110.446z"/>
	<path d="M-42.005-109.085v3.831h5.035v1.723h-5.035v7.323c0,0.996,0.188,1.69,0.566,2.084c0.377,0.394,1.036,0.59,1.976,0.59h2.493
		v1.771h-2.71c-1.662,0-2.835-0.333-3.518-1c-0.683-0.666-1.023-1.814-1.023-3.445v-7.323h-3.602v-1.723h3.602v-3.831H-42.005z"/>
	<path d="M-32.898-109.748h2.445v6.89h6.661v-6.89h2.445v17.984h-2.445v-9.046h-6.661v9.046h-2.445V-109.748z"/>
	<path d="M-17.348-96.871v-8.359h2.217v8.359c0,1.213,0.215,2.104,0.645,2.674c0.429,0.57,1.094,0.855,1.993,0.855
		c1.044,0,1.843-0.367,2.397-1.102c0.554-0.735,0.831-1.789,0.831-3.162v-7.625h2.228v13.467h-2.228v-2.023
		c-0.394,0.779-0.93,1.369-1.608,1.771s-1.472,0.602-2.379,0.602c-1.381,0-2.409-0.452-3.084-1.355
		C-17.01-93.673-17.348-95.04-17.348-96.871z"/>
	<path d="M-0.304-103.532c0.354-0.659,0.841-1.165,1.464-1.518c0.622-0.353,1.343-0.53,2.162-0.53c1.622,0,2.898,0.625,3.83,1.873
		s1.397,2.969,1.397,5.161c0,2.225-0.468,3.969-1.403,5.234s-2.219,1.897-3.849,1.897c-0.803,0-1.512-0.174-2.126-0.524
		c-0.614-0.349-1.106-0.857-1.476-1.523v1.698H-2.52v-18.743h2.216V-103.532z M6.213-98.497c0-1.718-0.273-3.015-0.819-3.891
		c-0.546-0.875-1.353-1.313-2.421-1.313c-1.076,0-1.891,0.44-2.445,1.319c-0.554,0.879-0.831,2.174-0.831,3.885
		c0,1.703,0.277,2.996,0.831,3.878c0.555,0.884,1.369,1.325,2.445,1.325c1.068,0,1.875-0.438,2.421-1.313
		C5.939-95.481,6.213-96.778,6.213-98.497z"/>
</g>
<g>
	<g>
		<g>
			<path fill="#00FFAA" d="M-297.868,39.456h-2.269l-0.748,4.665h-2.686l0.748-4.665h-2.267l-0.75,4.665h-2.926v2.07h2.598
				l-0.571,3.719h-2.951v2.067h2.623l-0.795,4.996h2.244l0.817-4.996h2.683l-0.79,4.996h2.244l0.809-4.996h2.865V49.91h-2.531
				l0.574-3.719h2.882v-2.07h-2.553L-297.868,39.456z M-301.787,49.91h-2.689l0.574-3.719h2.683L-301.787,49.91z M-335.306,43.172
				l-2.333,2.023l0.685-3.059h-2.266l0.704,3.059l-2.332-2.046l-1.104,1.806l2.995,0.966l-2.951,0.991l1.079,1.805l2.333-2.111
				l-0.723,3.103h2.266l-0.704-3.103l2.333,2.111l1.054-1.805l-2.948-0.991l2.992-0.966L-335.306,43.172z M-316.072,67.689
				l6.821,3.676l-6.821,3.696v2.992l10.741-6.119v-1.118l-10.741-6.122V67.689z M-325.416,47.538h-2.556v5.218h-5.214v2.531h5.214
				v5.214h2.556v-5.214h5.214v-2.531h-5.214V47.538z M-290.489,63.035h-3.412c-0.883,0-1.433-0.044-2.067-0.133v2.926
				c0.724-0.107,1.209-0.132,2.067-0.132h3.412c0.902,0,1.363,0.024,2.087,0.132v-2.926
				C-289.04,62.991-289.587,63.035-290.489,63.035z"/>
		</g>
	</g>
	<path fill-rule="evenodd" clip-rule="evenodd" fill="none" stroke="#00FFAA" stroke-width="4.8052" d="M-293.214,8.524
		c0.312-1.207,0.482-2.468,0.482-3.771c0-8.213-6.663-14.873-14.875-14.873c-6.172,0-11.469,3.765-13.722,9.125
		c-1.927-2.269-4.797-3.709-8.013-3.709c-5.816,0-10.531,4.712-10.531,10.527c0,0.997,0.144,1.963,0.403,2.882
		c-4.745,1.739-8.129,6.299-8.129,11.651c0,6.849,5.548,12.408,12.405,12.408h38.245c6.855,0,12.404-5.56,12.404-12.408
		C-284.544,14.804-288.188,10.105-293.214,8.524z"/>
</g>
</svg>
