<?xml version="1.0" encoding="utf-8"?>
<!-- Generator: Adobe Illustrator 15.1.0, SVG Export Plug-In . SVG Version: 6.00 Build 0)  -->
<!DOCTYPE svg PUBLIC "-//W3C//DTD SVG 1.1//EN" "http://www.w3.org/Graphics/SVG/1.1/DTD/svg11.dtd">
<svg version="1.1" id="Layer_1" xmlns="http://www.w3.org/2000/svg" xmlns:xlink="http://www.w3.org/1999/xlink" x="0px" y="0px"
	 width="496.287px" height="313.516px" viewBox="0 0 496.287 313.516" enable-background="new 0 0 496.287 313.516"
	 xml:space="preserve">
<g>
	<g>
		<path d="M5.137,187.51c-0.156-1.09-0.467-2.023-1.245-2.803l-3.269-3.734C0.312,180.504,0,180.037,0,179.727
			c0-0.467,0.312-0.623,0.934-0.623h17.589c0.467,0,0.934,0.156,0.934,0.623c0,0.311-0.312,0.777-0.623,1.246l-3.269,3.734
			c-0.623,0.934-1.089,2.023-0.934,2.957l6.382,43.428h0.311l5.448-41.248c0.155-1.713-0.623-3.113-1.557-4.357l-3.269-4.514
			c-0.311-0.469-0.623-0.936-0.623-1.246c0-0.467,0.467-0.623,0.934-0.623h16.344c0.623,0,1.089,0.156,1.089,0.623
			c0,0.311-0.467,0.777-0.623,1.246l-3.736,4.668c-0.934,1.246-1.712,2.49-1.556,4.203l6.226,41.248h0.311l5.604-44.205
			c0.155-1.09,0-1.713-0.467-2.336l-3.269-3.578c-0.156-0.469-0.623-0.936-0.623-1.246c0-0.467,0.467-0.623,1.089-0.623h15.099
			c0.623,0,0.934,0.156,0.934,0.623c0,0.311-0.312,0.777-0.623,1.246l-3.736,3.891c-0.934,0.934-1.245,2.18-1.557,3.891
			l-9.495,74.715c-0.155,1.4-0.934,2.18-1.712,2.18h-3.113c-1.089,0-1.401-1.09-1.557-1.713l-7.471-49.188h-0.312l-6.382,48.721
			c-0.156,1.09-0.623,2.18-1.245,2.18h-3.269c-0.934,0-1.712-0.779-1.868-1.713L5.137,187.51z"/>
		<path d="M65.839,186.576c0-0.623-0.156-0.936-0.467-1.246l-4.669-4.357c-0.312-0.469-0.623-0.936-0.623-1.246
			c0-0.467,0.467-0.623,0.934-0.623h14.943c0.467,0,0.778,0.312,0.778,0.934v77.051c0,0.621,0,1.088,0.312,1.4l4.825,5.447
			c0.312,0.311,0.623,0.779,0.623,1.09c0,0.467-0.311,0.623-0.934,0.623H61.014c-0.467,0-0.934-0.156-0.934-0.623
			c0-0.311,0.311-0.779,0.623-1.09l4.825-5.447c0.312-0.312,0.312-0.779,0.312-1.4V186.576z M76.735,157.157
			c0,4.046-2.49,8.25-5.604,8.25c-3.269,0-5.759-4.203-5.759-8.25c0-4.203,2.491-8.25,5.759-8.25
			C74.245,148.907,76.735,152.954,76.735,157.157z"/>
		<path d="M100.704,184.551h0.311c2.802-2.957,5.448-5.447,10.74-5.447c7.783,0,12.919,5.447,12.919,15.877v62.107
			c0,0.621,0,1.088,0.311,1.4l4.826,5.447c0.311,0.311,0.623,0.779,0.623,1.09c0,0.467-0.467,0.623-0.934,0.623h-20.546
			c-0.623,0-0.934-0.156-0.934-0.623c0-0.311,0.312-0.779,0.623-1.09l4.826-5.447c0.311-0.312,0.311-0.779,0.311-1.4v-62.264
			c0-5.914-1.712-9.027-5.292-9.027c-3.736,0-7.783,5.137-7.783,13.543v57.748c0,0.621,0,1.088,0.155,1.4l4.825,5.447
			c0.467,0.311,0.778,0.779,0.778,1.09c0,0.467-0.467,0.623-0.934,0.623H84.982c-0.623,0-0.934-0.156-0.934-0.623
			c0-0.311,0.156-0.779,0.623-1.09l4.825-5.447c0.312-0.312,0.312-0.779,0.312-1.4v-70.512c0-0.623-0.156-0.936-0.467-1.246
			l-4.669-4.357c-0.312-0.469-0.623-0.936-0.623-1.246c0-0.467,0.467-0.623,0.934-0.623h14.943c0.623,0,0.778,0.312,0.778,0.934
			V184.551z"/>
		<path d="M145.531,253.352c0,3.268,1.556,5.604,3.735,5.604c1.868,0,3.892-1.713,4.825-3.27c0.312-0.311,0.623-0.623,0.934-0.623
			c0.312,0,0.623,0.469,0.467,0.936c-1.09,4.357-4.203,9.65-10.74,9.65c-6.538,0-10.118-2.957-10.118-15.721v-63.041
			c0-0.623,0-1.557-0.467-2.023l-4.514-4.359c-0.312-0.311-0.778-0.621-0.778-0.934c0-0.467,0.623-0.934,2.179-1.09
			c6.849-1.244,7.627-13.074,7.627-19.301c0-0.777,0.467-1.4,1.245-1.4h4.67c0.623,0,0.934,0.311,0.934,1.09v17.9
			c0,0.777,0.155,1.4,1.245,1.4h3.58c0.778,0,0.934,1.09,0,1.867l-3.58,4.047c-0.467,0.779-1.245,1.713-1.245,2.803V253.352z"/>
		<path d="M168.565,231.871c0,19.611,2.646,27.084,9.806,27.084c5.137,0,7.627-2.49,10.896-7.316
			c0.311-0.467,0.622-0.777,1.089-0.777s0.623,0.311,0.467,0.934c-1.867,7.471-6.692,13.854-14.32,13.854
			c-14.165,0-20.08-14.01-20.08-48.877c0-23.658,6.849-37.668,17.745-37.668c9.028,0,16.811,6.537,16.811,29.264v9.65
			c0,1.09-0.312,1.867-1.401,1.867h-21.013V231.871z M180.084,213.971v-15.566c0-8.248-2.179-12.607-5.915-12.607
			c-4.047,0-5.604,4.359-5.604,12.607v15.566H180.084z"/>
		<path d="M209.344,257.088c0,0.621,0,1.088,0.155,1.4l5.292,5.447c0.468,0.311,0.623,0.779,0.623,1.09
			c0,0.467-0.312,0.623-0.934,0.623h-20.858c-0.622,0-0.934-0.156-0.934-0.623c0-0.311,0.155-0.779,0.623-1.09l4.825-5.447
			c0.311-0.312,0.311-0.779,0.311-1.4v-70.512c0-0.623-0.155-0.936-0.622-1.246l-4.514-4.357c-0.468-0.469-0.623-0.936-0.623-1.246
			c0-0.467,0.312-0.623,0.934-0.623h14.943c0.467,0,0.778,0.312,0.778,0.934v5.293h0.312c2.49-3.113,5.136-6.227,8.716-6.227
			c5.137,0,8.406,8.25,8.406,13.23c0,0.779-0.156,1.402-0.778,1.402c-0.623,0-0.935-0.623-1.246-1.402
			c-1.712-4.203-4.825-5.914-8.094-5.914c-4.514,0-7.315,6.381-7.315,14.32V257.088z"/>
		<path d="M257.75,209.924c0,0.623-0.312,1.244-0.935,1.244c-0.467,0-0.778-0.621-0.934-1.4c-0.935-4.824-2.023-9.494-4.67-16.188
			c-2.023-4.98-4.202-7.783-7.16-7.783c-3.269,0-3.892,3.736-3.892,8.406c0,6.537,3.27,15.408,9.495,25.371
			c5.915,9.494,10.118,20.391,10.118,30.508c0,9.65-6.85,15.566-13.387,15.566c-4.358,0-7.005-2.023-9.339-4.98L233,264.869
			c-0.467,0.312-0.934,0.779-1.556,0.779c-0.312,0-0.468-0.467-0.468-1.09v-29.887c0-0.467,0.156-1.088,0.623-1.088
			c0.778,0,0.778,0.621,0.934,1.4c2.49,12.607,6.07,23.971,11.83,23.971c3.425,0,4.98-2.646,4.98-6.693
			c0-9.65-4.98-19.924-9.962-28.018c-5.604-9.34-8.872-18.99-8.872-28.484c0-10.119,6.227-16.656,11.83-16.656
			c3.735,0,6.537,1.869,9.184,4.98l4.514-4.047c0.312-0.311,0.623-0.934,1.09-0.934c0.312,0,0.623,0.779,0.623,1.557V209.924z"/>
		<path d="M270.354,186.576c0-0.623-0.155-0.936-0.467-1.246l-4.669-4.357c-0.312-0.469-0.623-0.936-0.623-1.246
			c0-0.467,0.467-0.623,0.934-0.623h14.943c0.622,0,0.778,0.312,0.778,0.934v4.514h0.312c2.802-2.957,5.447-5.447,10.739-5.447
			c4.826,0,7.938,2.49,9.962,5.447c2.803-2.957,6.538-5.447,11.83-5.447c7.005,0,12.297,5.447,12.297,15.877v62.107
			c0,0.621,0,1.088,0.312,1.4l4.825,5.447c0.467,0.311,0.622,0.779,0.622,1.09c0,0.467-0.311,0.623-0.934,0.623h-20.546
			c-0.468,0-0.935-0.156-0.935-0.623c0-0.311,0.312-0.779,0.778-1.09l4.67-5.447c0.312-0.312,0.312-0.779,0.312-1.4v-62.264
			c0-5.914-1.245-9.027-4.358-9.027c-3.269,0-7.316,5.137-7.316,13.543v57.748c0,0.621,0,1.088,0.312,1.4l3.736,5.447
			c0.311,0.311,0.467,0.779,0.467,1.09c0,0.467-0.312,0.623-0.935,0.623h-18.056c-0.467,0-0.934-0.156-0.934-0.623
			c0-0.311,0.311-0.779,0.622-1.09l3.58-5.447c0.312-0.312,0.312-0.779,0.312-1.4v-62.264c0-5.914-1.245-9.027-4.358-9.027
			c-3.424,0-7.315,5.137-7.315,13.543v57.748c0,0.621,0,1.088,0.312,1.4l4.825,5.447c0.311,0.311,0.622,0.779,0.622,1.09
			c0,0.467-0.312,0.623-0.934,0.623h-20.547c-0.467,0-0.934-0.156-0.934-0.623c0-0.311,0.312-0.779,0.623-1.09l4.825-5.447
			c0.311-0.312,0.311-0.779,0.311-1.4V186.576z"/>
		<path d="M339.459,186.576c0-0.623-0.155-0.936-0.467-1.246l-4.669-4.357c-0.312-0.469-0.623-0.936-0.623-1.246
			c0-0.467,0.467-0.623,0.934-0.623h14.943c0.467,0,0.778,0.312,0.778,0.934v77.051c0,0.621,0,1.088,0.312,1.4l4.825,5.447
			c0.311,0.311,0.622,0.779,0.622,1.09c0,0.467-0.312,0.623-0.934,0.623h-20.547c-0.467,0-0.934-0.156-0.934-0.623
			c0-0.311,0.312-0.779,0.623-1.09l4.825-5.447c0.311-0.312,0.311-0.779,0.311-1.4V186.576z M350.356,157.157
			c0,4.046-2.49,8.25-5.604,8.25c-3.27,0-5.76-4.203-5.76-8.25c0-4.203,2.49-8.25,5.76-8.25
			C347.866,148.907,350.356,152.954,350.356,157.157z"/>
		<path d="M371.211,253.352c0,3.268,1.557,5.604,3.735,5.604c1.868,0,3.892-1.713,4.825-3.27c0.312-0.311,0.623-0.623,0.935-0.623
			c0.311,0,0.622,0.469,0.467,0.936c-1.09,4.357-4.203,9.65-10.74,9.65c-6.538,0-10.118-2.957-10.118-15.721v-63.041
			c0-0.623,0-1.557-0.467-2.023l-4.514-4.359c-0.312-0.311-0.778-0.621-0.778-0.934c0-0.467,0.623-0.934,2.179-1.09
			c6.85-1.244,7.628-13.074,7.628-19.301c0-0.777,0.467-1.4,1.245-1.4h4.669c0.623,0,0.935,0.311,0.935,1.09v17.9
			c0,0.777,0.155,1.4,1.245,1.4h3.58c0.778,0,0.934,1.09,0,1.867l-3.58,4.047c-0.467,0.779-1.245,1.713-1.245,2.803V253.352z"/>
		<path d="M398.605,184.551h0.312c2.802-2.957,5.447-5.447,10.739-5.447c7.783,0,12.92,5.447,12.92,15.877v62.107
			c0,0.621,0,1.088,0.312,1.4l4.825,5.447c0.312,0.311,0.622,0.779,0.622,1.09c0,0.467-0.467,0.623-0.934,0.623h-20.547
			c-0.622,0-0.934-0.156-0.934-0.623c0-0.311,0.312-0.779,0.623-1.09l4.825-5.447c0.312-0.312,0.312-0.779,0.312-1.4v-62.264
			c0-5.914-1.713-9.027-5.293-9.027c-3.735,0-7.782,5.137-7.782,13.543v57.748c0,0.621,0,1.088,0.155,1.4l4.825,5.447
			c0.467,0.311,0.778,0.779,0.778,1.09c0,0.467-0.467,0.623-0.934,0.623h-20.547c-0.622,0-0.934-0.156-0.934-0.623
			c0-0.311,0.155-0.779,0.623-1.09l4.825-5.447c0.311-0.312,0.311-0.779,0.311-1.4V156.378c0-0.623-0.155-0.935-0.622-1.245
			l-4.514-4.515c-0.468-0.311-0.623-0.778-0.623-1.089c0-0.468,0.312-0.623,0.934-0.623h14.787c0.623,0,0.935,0.312,0.935,0.934
			V184.551z"/>
	</g>
	<path opacity="0.1" d="M496.203,108.051c-0.318-0.973-1.36-1.514-2.332-1.205c-0.928,0.297-1.445,1.237-1.239,2.164
		c-10.278,2.229-20.513,4.62-30.726,7.082l3.022-9.006c0.211,0.073,0.44,0.099,0.668,0.025c0.575-0.182,0.888-0.787,0.708-1.359
		c-0.184-0.572-0.793-0.889-1.359-0.698c-0.57,0.182-0.881,0.788-0.699,1.353c0.07,0.228,0.221,0.398,0.398,0.53l-7.458,10.245
		c-2.721,0.67-5.416,1.434-8.133,2.119l4.627-13.765c0.212,0.069,0.441,0.094,0.674,0.021c0.56-0.179,0.876-0.788,0.693-1.356
		c-0.179-0.571-0.787-0.884-1.357-0.705c-0.566,0.191-0.885,0.795-0.702,1.362c0.071,0.229,0.225,0.401,0.405,0.531l-11.486,15.771
		c-3.088,0.799-6.178,1.594-9.259,2.415l5.863-17.44c0.211,0.072,0.44,0.098,0.672,0.025c0.569-0.184,0.88-0.791,0.697-1.359
		c-0.18-0.576-0.786-0.883-1.356-0.705c-0.574,0.186-0.882,0.787-0.703,1.36c0.073,0.228,0.225,0.398,0.403,0.529l-14.505,19.913
		c-2.178,0.593-4.354,1.195-6.532,1.8l6.645-19.772c0.211,0.072,0.439,0.099,0.668,0.027c0.57-0.179,0.876-0.791,0.703-1.359
		c-0.184-0.57-0.792-0.886-1.362-0.705c-0.563,0.182-0.881,0.791-0.702,1.361c0.075,0.226,0.229,0.397,0.408,0.528l-16.706,22.94
		c-2.686,0.771-5.363,1.565-8.045,2.35c-1.657-3.89-3.681-7.533-6.028-10.891c0.015-0.01,0.029-0.02,0.044-0.03
		c0.445,0.523,1.219,0.661,1.816,0.276c0.608-0.39,0.787-1.178,0.465-1.802c1.676-1.121,3.356-2.237,5.028-3.363
		c0.288,0.434,0.87,0.555,1.298,0.275c0.445-0.282,0.57-0.874,0.287-1.312c-0.278-0.442-0.871-0.573-1.314-0.286
		c-0.433,0.279-0.555,0.846-0.289,1.292c-1.718,1.049-3.431,2.108-5.146,3.162c-0.442-0.556-1.238-0.703-1.838-0.311
		c-0.597,0.376-0.775,1.121-0.493,1.742c-0.027,0.018-0.056,0.034-0.083,0.052c-2.351-3.315-5.014-6.349-7.932-9.081
		c1.003-1.119,2.003-2.24,3.004-3.36c1.784,1.084,4.151,0.79,5.612-0.811c1.477-1.627,1.516-4.055,0.2-5.734
		c1.865-2.097,3.729-4.193,5.59-6.294c1.441,0.908,3.37,0.688,4.552-0.617c1.208-1.322,1.222-3.303,0.134-4.659
		c2.23-2.526,4.442-5.063,6.666-7.595c1.103,0.759,2.624,0.625,3.552-0.396c0.947-1.041,0.924-2.627-0.004-3.653
		c2.586-2.952,5.184-5.898,7.76-8.856c0.758,0.663,1.913,0.603,2.594-0.146c0.687-0.751,0.633-1.935-0.124-2.624
		c-0.756-0.684-1.938-0.631-2.623,0.125c-0.677,0.747-0.63,1.904,0.101,2.597c-2.705,2.841-5.396,5.702-8.095,8.552
		c-1.11-0.829-2.691-0.707-3.634,0.336c-0.929,1.015-0.927,2.545-0.066,3.574c-2.312,2.448-4.632,4.887-6.938,7.343
		c-1.449-0.962-3.421-0.761-4.628,0.567c-1.183,1.301-1.224,3.24-0.189,4.592c-1.918,2.048-3.831,4.1-5.745,6.152
		c-1.793-1.152-4.212-0.891-5.694,0.738c-1.456,1.601-1.528,3.984-0.28,5.66c-1.021,1.101-2.043,2.2-3.063,3.301
		c-3.029-2.673-6.309-5.032-9.789-7.039c0.014-0.026,0.026-0.053,0.039-0.079c0.647,0.228,1.377-0.039,1.699-0.668
		c0.339-0.639,0.113-1.42-0.482-1.805c0.889-1.805,1.783-3.608,2.666-5.416c0.464,0.222,1.028,0.046,1.264-0.412
		c0.244-0.461,0.059-1.039-0.412-1.28c-0.46-0.24-1.032-0.053-1.276,0.411c-0.23,0.454-0.062,1.018,0.392,1.265
		c-0.962,1.767-1.915,3.54-2.872,5.31c-0.661-0.261-1.428,0.006-1.753,0.648c-0.323,0.629-0.116,1.378,0.442,1.774
		c-0.013,0.023-0.025,0.047-0.038,0.069c-3.609-2.052-7.429-3.724-11.391-4.998c0.531-2.745,1.073-5.488,1.591-8.237l21.276-18.773
		c0.148,0.167,0.336,0.303,0.574,0.355c0.58,0.124,1.148-0.244,1.277-0.826c0.131-0.582-0.235-1.158-0.824-1.288
		c-0.586-0.124-1.158,0.245-1.282,0.828c-0.055,0.233-0.01,0.457,0.081,0.659l-19.064,8.459c0.397-2.223,0.791-4.44,1.18-6.676
		l18.474-16.296c0.146,0.166,0.332,0.302,0.565,0.354c0.586,0.128,1.162-0.237,1.29-0.825c0.123-0.582-0.243-1.16-0.829-1.283
		c-0.581-0.129-1.156,0.236-1.291,0.82c-0.049,0.236-0.001,0.46,0.09,0.663l-16.81,7.468c0.525-3.15,1.032-6.288,1.533-9.443
		l14.633-12.909c0.147,0.167,0.332,0.302,0.568,0.354c0.582,0.128,1.159-0.231,1.285-0.823c0.123-0.584-0.247-1.154-0.829-1.286
		c-0.581-0.127-1.156,0.239-1.285,0.82c-0.049,0.236-0.002,0.461,0.088,0.663l-13.272,5.887c0.425-2.762,0.941-5.516,1.353-8.29
		l9.501-8.379c0.147,0.163,0.331,0.297,0.563,0.346c0.583,0.134,1.158-0.233,1.286-0.818c0.128-0.587-0.243-1.161-0.829-1.288
		c-0.582-0.13-1.158,0.236-1.28,0.82c-0.054,0.237-0.008,0.465,0.084,0.67l-8.684,3.847c1.505-10.396,2.926-20.804,4.187-31.245
		c0.938,0.116,1.833-0.494,2.039-1.437c0.212-1-0.418-1.992-1.416-2.21c-1.004-0.217-1.992,0.423-2.209,1.415
		c-0.208,0.952,0.349,1.874,1.253,2.16c-3.208,10.015-6.251,20.069-9.226,30.145l-6.286-7.12c0.166-0.146,0.301-0.331,0.351-0.563
		c0.133-0.589-0.238-1.162-0.818-1.289c-0.588-0.131-1.164,0.235-1.289,0.826c-0.129,0.582,0.24,1.156,0.826,1.279
		c0.233,0.054,0.457,0.009,0.659-0.08l5.134,11.578c-0.775,2.692-1.46,5.413-2.226,8.102l-9.606-10.882
		c0.168-0.147,0.305-0.335,0.355-0.572c0.123-0.581-0.242-1.155-0.828-1.28c-0.582-0.133-1.156,0.238-1.285,0.822
		c-0.127,0.588,0.242,1.158,0.824,1.288c0.234,0.051,0.458,0.005,0.66-0.084l7.917,17.833c-0.849,3.074-1.712,6.141-2.532,9.221
		l-12.179-13.797c0.166-0.147,0.302-0.333,0.353-0.568c0.129-0.582-0.242-1.159-0.822-1.281c-0.582-0.131-1.157,0.236-1.29,0.822
		c-0.122,0.588,0.249,1.162,0.829,1.286c0.232,0.052,0.456,0.006,0.658-0.084l9.996,22.519c-0.574,2.184-1.143,4.369-1.711,6.555
		l-13.799-15.638c0.167-0.146,0.304-0.331,0.355-0.565c0.135-0.584-0.246-1.154-0.829-1.285c-0.581-0.127-1.157,0.238-1.28,0.823
		c-0.129,0.583,0.238,1.159,0.818,1.287c0.235,0.05,0.461,0.004,0.664-0.087l11.512,25.939c-0.675,2.71-1.325,5.426-1.986,8.14
		c-4.086-0.494-8.253-0.57-12.445-0.2c-0.002-0.025-0.003-0.051-0.005-0.076c0.677-0.124,1.182-0.722,1.148-1.433
		c-0.032-0.722-0.623-1.287-1.33-1.315c-0.133-2.009-0.26-4.019-0.398-6.025c0.519-0.036,0.921-0.477,0.892-0.986
		c-0.027-0.525-0.477-0.934-0.992-0.909c-0.525,0.028-0.939,0.472-0.906,0.996c0.025,0.515,0.457,0.902,0.971,0.898
		c0.049,2.013,0.11,4.027,0.166,6.041c-0.699,0.103-1.225,0.714-1.191,1.438c0.032,0.701,0.588,1.248,1.268,1.312
		c0.001,0.03,0.001,0.06,0.002,0.09c-3.938,0.373-7.896,1.144-11.824,2.333c-0.47-1.433-0.941-2.863-1.413-4.295
		c1.83-1.003,2.765-3.197,2.106-5.268c-0.67-2.096-2.76-3.343-4.87-3.044c-0.883-2.661-1.766-5.321-2.653-7.98
		c1.506-0.796,2.275-2.579,1.74-4.257c-0.541-1.707-2.248-2.708-3.97-2.446c-1.072-3.194-2.163-6.379-3.244-9.569
		c1.211-0.574,1.854-1.961,1.434-3.267c-0.428-1.346-1.812-2.116-3.165-1.828c-1.264-3.716-2.517-7.438-3.79-11.147
		c0.953-0.324,1.476-1.358,1.171-2.322c-0.301-0.973-1.354-1.512-2.333-1.196c-0.972,0.307-1.513,1.354-1.2,2.323
		c0.303,0.965,1.328,1.501,2.294,1.217c1.108,3.763,2.24,7.522,3.359,11.284c-1.27,0.548-1.962,1.977-1.528,3.321
		c0.419,1.311,1.744,2.07,3.064,1.838c0.964,3.226,1.917,6.453,2.89,9.679c-1.556,0.776-2.367,2.589-1.821,4.292
		c0.533,1.679,2.191,2.684,3.883,2.465c0.813,2.683,1.634,5.364,2.454,8.046c-1.894,0.979-2.876,3.203-2.207,5.302
		c0.655,2.067,2.685,3.316,4.763,3.076c0.443,1.44,0.887,2.88,1.332,4.32c-3.893,1.304-7.565,2.965-10.994,4.939
		c-0.018-0.025-0.034-0.05-0.051-0.076c0.521-0.444,0.658-1.211,0.275-1.803c-0.389-0.608-1.173-0.792-1.799-0.473
		c-1.122-1.678-2.24-3.359-3.367-5.033c0.423-0.288,0.555-0.866,0.275-1.295c-0.28-0.441-0.873-0.568-1.317-0.289
		c-0.437,0.281-0.563,0.876-0.28,1.316c0.282,0.432,0.855,0.56,1.292,0.288c1.049,1.718,2.109,3.431,3.164,5.146
		c-0.561,0.438-0.714,1.237-0.321,1.845c0.384,0.595,1.13,0.771,1.753,0.484c0.017,0.027,0.033,0.055,0.051,0.082
		c-3.633,2.123-6.985,4.596-10.031,7.361c-2.111-1.832-4.214-3.671-6.334-5.493l-5.616-27.811c0.218-0.044,0.427-0.137,0.589-0.314
		c0.402-0.438,0.372-1.123-0.073-1.523c-0.438-0.405-1.123-0.37-1.521,0.07c-0.403,0.442-0.369,1.126,0.066,1.528
		c0.177,0.162,0.396,0.234,0.618,0.257l-2.21,20.74c-1.727-1.456-3.451-2.911-5.19-4.364l-4.875-24.143
		c0.218-0.044,0.428-0.137,0.589-0.314c0.399-0.439,0.37-1.123-0.072-1.529c-0.441-0.398-1.127-0.368-1.525,0.076
		c-0.402,0.436-0.371,1.119,0.066,1.529c0.18,0.159,0.397,0.231,0.619,0.254l-1.939,18.287c-2.459-2.024-4.929-4.034-7.408-6.041
		l-3.864-19.13c0.218-0.044,0.428-0.137,0.589-0.316c0.406-0.44,0.375-1.114-0.07-1.522c-0.443-0.402-1.127-0.373-1.529,0.072
		c-0.399,0.438-0.367,1.121,0.072,1.527c0.178,0.159,0.394,0.23,0.614,0.255l-1.533,14.435c-2.185-1.75-4.311-3.573-6.505-5.317
		L253.903,60.9c0.218-0.045,0.428-0.138,0.589-0.314c0.403-0.44,0.372-1.123-0.072-1.521c-0.444-0.411-1.126-0.377-1.528,0.071
		c-0.4,0.435-0.368,1.118,0.076,1.523c0.176,0.161,0.394,0.233,0.615,0.256l-1.005,9.445c-8.251-6.5-16.561-12.931-24.975-19.241
		c0.574-0.759,0.496-1.843-0.222-2.493c-0.755-0.68-1.928-0.635-2.62,0.123c-0.687,0.756-0.628,1.932,0.124,2.623
		c0.72,0.648,1.802,0.628,2.498-0.011c7.07,7.784,14.25,15.452,21.49,23.063l-9.307,1.889c-0.042-0.219-0.134-0.429-0.312-0.589
		c-0.447-0.41-1.129-0.376-1.531,0.065c-0.402,0.445-0.369,1.127,0.074,1.528c0.438,0.405,1.119,0.368,1.52-0.077
		c0.161-0.174,0.235-0.388,0.261-0.605l12.599,1.332c1.941,2.021,3.951,3.979,5.902,5.983l-14.234,2.878
		c-0.045-0.217-0.138-0.428-0.316-0.59c-0.436-0.403-1.119-0.365-1.521,0.074c-0.4,0.44-0.369,1.123,0.068,1.525
		c0.445,0.4,1.129,0.366,1.529-0.074c0.16-0.176,0.232-0.393,0.256-0.612l19.406,2.06c2.234,2.274,4.463,4.553,6.719,6.81
		l-18.04,3.642c-0.045-0.216-0.138-0.425-0.315-0.587c-0.439-0.404-1.123-0.37-1.52,0.075c-0.403,0.435-0.371,1.118,0.066,1.522
		c0.447,0.405,1.128,0.374,1.53-0.071c0.161-0.178,0.233-0.396,0.256-0.618l24.495,2.612c1.609,1.588,3.217,3.172,4.83,4.753
		l-20.447,4.13c-0.045-0.216-0.138-0.423-0.314-0.581c-0.438-0.409-1.123-0.374-1.529,0.066c-0.398,0.442-0.363,1.128,0.076,1.526
		s1.121,0.37,1.529-0.072c0.161-0.177,0.233-0.395,0.256-0.615l28.211,3.002c2.014,1.942,4.043,3.866,6.064,5.798
		c-2.493,3.332-4.641,6.904-6.396,10.667c-0.023-0.012-0.047-0.023-0.07-0.035c0.229-0.648-0.039-1.377-0.668-1.703
		c-0.64-0.338-1.421-0.112-1.803,0.485c-1.805-0.89-3.608-1.785-5.415-2.669c0.222-0.463,0.044-1.026-0.413-1.259
		c-0.467-0.237-1.045-0.057-1.283,0.402c-0.24,0.47-0.056,1.05,0.414,1.286c0.453,0.236,1.014,0.052,1.265-0.397
		c1.767,0.964,3.54,1.917,5.311,2.876c-0.263,0.659,0.009,1.422,0.647,1.75c0.626,0.327,1.379,0.119,1.773-0.438
		c0.025,0.014,0.052,0.027,0.077,0.041c-1.677,3.651-2.986,7.473-3.91,11.406c-1.471-0.308-2.94-0.614-4.411-0.921
		c0.05-2.086-1.386-3.989-3.5-4.453c-2.155-0.471-4.276,0.713-5.076,2.692c-2.746-0.566-5.493-1.132-8.24-1.692
		c0.063-1.7-1.095-3.259-2.814-3.637c-1.754-0.384-3.469,0.6-4.102,2.216c-3.303-0.668-6.604-1.314-9.907-1.975
		c0.107-1.336-0.777-2.586-2.118-2.88c-1.38-0.301-2.738,0.515-3.165,1.832c-3.85-0.764-7.7-1.54-11.55-2.292
		c0.198-0.99-0.431-1.959-1.42-2.175c-0.992-0.222-1.989,0.421-2.21,1.415c-0.213,0.999,0.425,1.997,1.419,2.212
		c0.989,0.217,1.966-0.405,2.196-1.383c3.812,0.922,7.636,1.822,11.453,2.734c-0.16,1.374,0.732,2.688,2.111,2.987
		c1.346,0.293,2.663-0.48,3.127-1.737c3.276,0.777,6.547,1.566,9.826,2.337c-0.105,1.739,1.059,3.344,2.811,3.723
		c1.718,0.379,3.418-0.555,4.07-2.13c2.73,0.637,5.463,1.267,8.195,1.897c-0.098,2.131,1.335,4.092,3.489,4.562
		c2.112,0.459,4.209-0.667,5.038-2.587c1.467,0.335,2.932,0.671,4.398,1.004c-0.798,3.916-1.215,7.931-1.214,11.994
		c-0.026,0.002-0.054,0.004-0.081,0.006c-0.125-0.675-0.721-1.172-1.424-1.135c-0.726,0.026-1.288,0.611-1.326,1.316
		c-2.007,0.133-4.016,0.259-6.021,0.397c-0.04-0.51-0.472-0.911-0.984-0.885c-0.527,0.021-0.935,0.473-0.909,0.996
		c0.021,0.517,0.473,0.928,0.996,0.9c0.512-0.023,0.913-0.451,0.899-0.976c2.01-0.049,4.021-0.11,6.032-0.165
		c0.103,0.703,0.718,1.234,1.436,1.203c0.711-0.036,1.261-0.596,1.32-1.278c0.019-0.001,0.037-0.001,0.056-0.002
		c0.028,4.097,0.486,8.239,1.385,12.37c-2.642,0.912-5.287,1.814-7.926,2.74l-26.895-9.042c0.071-0.211,0.096-0.439,0.022-0.667
		c-0.18-0.572-0.787-0.889-1.357-0.703c-0.572,0.182-0.883,0.789-0.703,1.359c0.182,0.568,0.789,0.881,1.357,0.703
		c0.229-0.074,0.401-0.227,0.532-0.406l16.86,12.281c-2.127,0.764-4.248,1.535-6.377,2.311l-23.346-7.846
		c0.071-0.211,0.097-0.44,0.025-0.67c-0.184-0.57-0.788-0.881-1.361-0.699c-0.568,0.182-0.883,0.783-0.703,1.357
		c0.184,0.568,0.792,0.883,1.361,0.701c0.229-0.072,0.399-0.224,0.529-0.402l14.869,10.82c-2.984,1.121-5.959,2.256-8.938,3.393
		l-18.499-6.212c0.072-0.211,0.098-0.44,0.024-0.669c-0.184-0.568-0.788-0.887-1.359-0.703c-0.568,0.184-0.883,0.793-0.7,1.361
		c0.183,0.566,0.786,0.881,1.357,0.697c0.227-0.07,0.397-0.222,0.528-0.4l11.738,8.549c-2.613,1.014-5.252,1.943-7.859,2.977
		l-12.009-4.036c0.071-0.212,0.096-0.44,0.022-0.667c-0.182-0.564-0.786-0.883-1.361-0.701c-0.569,0.182-0.881,0.789-0.698,1.357
		c0.181,0.57,0.788,0.885,1.356,0.705c0.229-0.073,0.401-0.227,0.532-0.408l7.677,5.59c-9.753,3.9-19.479,7.874-29.15,11.999
		c-0.37-0.87-1.345-1.337-2.262-1.046c-0.979,0.311-1.521,1.357-1.206,2.33c0.308,0.977,1.356,1.518,2.331,1.205
		c0.919-0.291,1.443-1.239,1.241-2.163c10.274-2.228,20.508-4.62,30.716-7.083l-3.025,9.005c-0.21-0.07-0.438-0.095-0.668-0.021
		c-0.569,0.18-0.881,0.785-0.697,1.354c0.176,0.566,0.785,0.883,1.354,0.705c0.57-0.184,0.883-0.791,0.702-1.361
		c-0.072-0.228-0.224-0.398-0.402-0.528l7.459-10.243c2.724-0.67,5.411-1.432,8.13-2.115l-4.623,13.761
		c-0.21-0.071-0.438-0.096-0.667-0.022c-0.571,0.186-0.883,0.793-0.7,1.357c0.182,0.566,0.785,0.881,1.355,0.701
		c0.569-0.182,0.883-0.785,0.702-1.359c-0.072-0.227-0.225-0.397-0.403-0.528l11.488-15.776c3.086-0.797,6.17-1.588,9.252-2.406
		l-5.863,17.438c-0.211-0.07-0.438-0.096-0.667-0.023c-0.569,0.184-0.88,0.789-0.7,1.359c0.184,0.568,0.789,0.881,1.357,0.699
		c0.57-0.18,0.883-0.787,0.703-1.357c-0.073-0.229-0.227-0.4-0.407-0.53l14.506-19.909c2.183-0.594,4.358-1.203,6.534-1.805
		l-6.646,19.773c-0.209-0.07-0.436-0.095-0.663-0.023c-0.571,0.184-0.887,0.787-0.706,1.357c0.185,0.572,0.792,0.885,1.359,0.701
		c0.572-0.178,0.883-0.787,0.703-1.355c-0.073-0.229-0.226-0.401-0.406-0.532l16.71-22.938c2.686-0.771,5.363-1.566,8.044-2.351
		c1.657,3.89,3.68,7.532,6.028,10.89c-0.021,0.014-0.041,0.027-0.062,0.041c-0.448-0.521-1.207-0.667-1.799-0.287
		c-0.607,0.391-0.787,1.176-0.466,1.801c-1.676,1.121-3.355,2.237-5.027,3.362c-0.286-0.429-0.872-0.554-1.297-0.274
		c-0.442,0.285-0.576,0.879-0.294,1.316c0.283,0.439,0.877,0.57,1.32,0.285c0.427-0.276,0.552-0.847,0.288-1.295
		c1.717-1.049,3.43-2.108,5.145-3.162c0.441,0.559,1.238,0.707,1.843,0.312c0.596-0.377,0.773-1.125,0.489-1.745
		c0.027-0.018,0.056-0.034,0.083-0.052c2.351,3.316,5.015,6.352,7.933,9.084c-1.001,1.119-2.001,2.238-3.001,3.358
		c-1.784-1.083-4.154-0.792-5.61,0.813c-1.485,1.628-1.521,4.059-0.207,5.737c-1.863,2.095-3.727,4.19-5.586,6.289
		c-1.444-0.904-3.371-0.682-4.558,0.618c-1.206,1.322-1.222,3.306-0.132,4.661c-2.229,2.526-4.441,5.062-6.665,7.594
		c-1.102-0.76-2.627-0.624-3.55,0.39c-0.95,1.045-0.926,2.631,0.002,3.658c-2.588,2.954-5.186,5.901-7.764,8.859
		c-0.753-0.666-1.907-0.604-2.589,0.139c-0.685,0.762-0.631,1.938,0.122,2.625c0.759,0.689,1.935,0.631,2.624-0.125
		c0.678-0.741,0.632-1.9-0.105-2.591c2.706-2.842,5.398-5.704,8.098-8.556c1.111,0.831,2.694,0.71,3.645-0.336
		c0.92-1.017,0.918-2.545,0.056-3.574c2.312-2.449,4.632-4.888,6.938-7.343c1.451,0.96,3.424,0.761,4.633-0.563
		c1.182-1.308,1.223-3.245,0.188-4.599c1.916-2.047,3.828-4.097,5.74-6.147c1.795,1.152,4.214,0.893,5.699-0.738
		c1.455-1.602,1.524-3.982,0.278-5.664c1.021-1.101,2.043-2.199,3.063-3.301c3.03,2.674,6.31,5.034,9.79,7.042
		c-0.013,0.027-0.025,0.054-0.039,0.08c-0.646-0.226-1.376,0.04-1.7,0.669c-0.335,0.639-0.11,1.421,0.485,1.801
		c-0.889,1.807-1.784,3.61-2.667,5.419c-0.469-0.229-1.03-0.052-1.265,0.407c-0.249,0.467-0.057,1.045,0.403,1.289
		c0.464,0.238,1.043,0.053,1.284-0.418c0.232-0.453,0.062-1.014-0.391-1.263c0.962-1.767,1.915-3.541,2.873-5.312
		c0.657,0.266,1.422-0.002,1.749-0.64c0.327-0.637,0.12-1.387-0.44-1.781c0.013-0.023,0.025-0.047,0.038-0.07
		c3.61,2.054,7.43,3.726,11.393,5.001c-0.531,2.746-1.073,5.49-1.591,8.239l-21.278,18.769c-0.147-0.167-0.334-0.304-0.571-0.356
		c-0.583-0.125-1.157,0.246-1.284,0.826c-0.124,0.586,0.242,1.164,0.824,1.291c0.591,0.127,1.162-0.242,1.287-0.828
		c0.052-0.233,0.007-0.457-0.082-0.66l19.066-8.457c-0.396,2.223-0.796,4.441-1.186,6.676l-18.468,16.298
		c-0.146-0.169-0.331-0.305-0.565-0.354c-0.584-0.135-1.164,0.232-1.289,0.824c-0.125,0.58,0.24,1.156,0.822,1.285
		c0.588,0.129,1.161-0.242,1.289-0.824c0.049-0.232,0.003-0.456-0.085-0.657l16.812-7.47c-0.526,3.145-1.031,6.287-1.534,9.439
		L302.483,271.1c-0.146-0.167-0.331-0.303-0.562-0.355c-0.587-0.129-1.16,0.242-1.288,0.828c-0.127,0.588,0.242,1.158,0.823,1.285
		c0.585,0.129,1.162-0.242,1.29-0.824c0.049-0.234,0.002-0.459-0.089-0.662l13.274-5.881c-0.431,2.762-0.942,5.51-1.352,8.287
		l-9.502,8.38c-0.146-0.165-0.33-0.3-0.562-0.351c-0.587-0.127-1.161,0.238-1.287,0.824c-0.128,0.588,0.239,1.162,0.825,1.285
		c0.584,0.133,1.158-0.238,1.282-0.822c0.055-0.236,0.009-0.463-0.082-0.666l8.682-3.852c-1.504,10.396-2.928,20.809-4.188,31.25
		c-0.938-0.115-1.831,0.495-2.037,1.436c-0.215,1.004,0.42,1.994,1.418,2.213c1,0.213,1.988-0.422,2.207-1.422
		c0.204-0.945-0.349-1.87-1.254-2.154c3.209-10.018,6.254-20.069,9.229-30.145l6.281,7.123c-0.166,0.146-0.301,0.331-0.351,0.562
		c-0.129,0.588,0.24,1.162,0.823,1.285c0.586,0.129,1.162-0.238,1.285-0.822c0.133-0.584-0.237-1.158-0.824-1.285
		c-0.233-0.052-0.46-0.006-0.663,0.086l-5.134-11.58c0.781-2.691,1.463-5.406,2.23-8.104l9.604,10.887
		c-0.166,0.146-0.301,0.33-0.353,0.564c-0.125,0.586,0.245,1.16,0.825,1.285c0.586,0.133,1.16-0.238,1.287-0.824
		c0.125-0.586-0.243-1.16-0.824-1.289c-0.234-0.05-0.459-0.003-0.663,0.088l-7.913-17.838c0.853-3.07,1.707-6.141,2.535-9.217
		l12.171,13.798c-0.166,0.146-0.301,0.331-0.353,0.565c-0.123,0.586,0.246,1.154,0.828,1.283c0.58,0.129,1.157-0.236,1.287-0.818
		c0.125-0.592-0.246-1.166-0.826-1.289c-0.234-0.052-0.46-0.006-0.664,0.084l-9.989-22.52c0.572-2.188,1.14-4.373,1.702-6.559
		l13.807,15.639c-0.169,0.147-0.306,0.332-0.357,0.564c-0.127,0.586,0.243,1.16,0.83,1.287c0.582,0.129,1.158-0.234,1.283-0.822
		c0.129-0.588-0.241-1.162-0.822-1.289c-0.234-0.049-0.458-0.002-0.661,0.087l-11.512-25.937c0.675-2.71,1.325-5.426,1.986-8.139
		c4.085,0.494,8.25,0.57,12.441,0.201c0.001,0.024,0.003,0.05,0.005,0.074c-0.677,0.123-1.179,0.723-1.147,1.434
		c0.031,0.721,0.622,1.282,1.328,1.313c0.133,2.009,0.26,4.02,0.397,6.027c-0.514,0.036-0.91,0.476-0.887,0.985
		c0.025,0.527,0.473,0.934,0.991,0.91c0.522-0.025,0.931-0.477,0.907-0.998c-0.025-0.513-0.46-0.908-0.976-0.899
		c-0.049-2.012-0.11-4.025-0.166-6.038c0.698-0.102,1.229-0.719,1.196-1.436c-0.032-0.706-0.589-1.254-1.272-1.315
		c0-0.029-0.001-0.059-0.002-0.089c3.939-0.372,7.897-1.143,11.826-2.332c0.471,1.433,0.941,2.863,1.413,4.295
		c-1.829,1.004-2.761,3.197-2.105,5.262c0.669,2.098,2.758,3.346,4.869,3.048c0.883,2.661,1.767,5.323,2.654,7.981
		c-1.507,0.795-2.279,2.575-1.744,4.252c0.546,1.711,2.254,2.713,3.973,2.448c1.072,3.194,2.163,6.377,3.243,9.567
		c-1.209,0.577-1.852,1.966-1.437,3.268c0.43,1.35,1.815,2.118,3.169,1.829c1.264,3.717,2.518,7.44,3.791,11.151
		c-0.955,0.32-1.477,1.357-1.17,2.32c0.306,0.967,1.355,1.514,2.327,1.201c0.979-0.311,1.52-1.357,1.207-2.328
		c-0.307-0.969-1.33-1.501-2.297-1.215c-1.108-3.764-2.24-7.525-3.36-11.288c1.273-0.544,1.962-1.973,1.533-3.317
		c-0.422-1.308-1.746-2.07-3.069-1.842c-0.965-3.227-1.917-6.453-2.891-9.678c1.562-0.775,2.368-2.587,1.828-4.295
		c-0.542-1.682-2.198-2.685-3.889-2.461c-0.814-2.683-1.634-5.364-2.454-8.046c1.899-0.979,2.881-3.206,2.209-5.306
		c-0.658-2.062-2.688-3.313-4.765-3.07c-0.443-1.44-0.887-2.88-1.332-4.32c3.894-1.304,7.567-2.966,10.997-4.942
		c0.02,0.03,0.04,0.061,0.061,0.091c-0.515,0.446-0.659,1.199-0.281,1.789c0.384,0.607,1.165,0.791,1.795,0.475
		c1.121,1.677,2.237,3.358,3.362,5.03c-0.423,0.288-0.551,0.862-0.271,1.296c0.285,0.441,0.871,0.568,1.316,0.289
		c0.439-0.283,0.564-0.873,0.279-1.318c-0.273-0.432-0.851-0.557-1.294-0.287c-1.048-1.716-2.106-3.427-3.159-5.141
		c0.56-0.436,0.716-1.238,0.32-1.848c-0.382-0.596-1.136-0.774-1.756-0.488c-0.017-0.026-0.032-0.053-0.049-0.079
		c3.634-2.125,6.988-4.6,10.036-7.367c2.111,1.831,4.215,3.67,6.336,5.491l5.612,27.815c-0.217,0.045-0.426,0.137-0.587,0.313
		c-0.403,0.441-0.374,1.125,0.071,1.527c0.441,0.404,1.119,0.371,1.521-0.07c0.404-0.441,0.368-1.129-0.067-1.533
		c-0.179-0.16-0.396-0.231-0.617-0.254l2.21-20.744c1.727,1.459,3.449,2.912,5.19,4.369l4.876,24.142
		c-0.219,0.044-0.431,0.137-0.591,0.313c-0.404,0.439-0.37,1.123,0.072,1.527c0.44,0.404,1.122,0.369,1.526-0.072
		c0.403-0.441,0.369-1.123-0.072-1.527c-0.176-0.16-0.393-0.232-0.612-0.256l1.942-18.289c2.455,2.027,4.924,4.033,7.4,6.047
		l3.866,19.125c-0.217,0.044-0.427,0.137-0.587,0.312c-0.408,0.443-0.374,1.125,0.068,1.529c0.445,0.4,1.129,0.373,1.526-0.072
		c0.403-0.441,0.37-1.123-0.071-1.527c-0.177-0.162-0.394-0.234-0.614-0.258l1.537-14.432c2.179,1.748,4.312,3.572,6.511,5.314
		l2.507,12.417c-0.217,0.044-0.426,0.136-0.585,0.313c-0.408,0.443-0.375,1.125,0.064,1.525c0.447,0.402,1.124,0.369,1.533-0.074
		c0.399-0.434,0.371-1.119-0.076-1.52c-0.177-0.162-0.394-0.235-0.614-0.259l1.009-9.448c8.245,6.499,16.553,12.929,24.968,19.243
		c-0.577,0.764-0.499,1.846,0.219,2.489c0.751,0.688,1.93,0.637,2.623-0.123c0.688-0.75,0.63-1.928-0.122-2.619
		c-0.721-0.65-1.804-0.629-2.501,0.011c-7.069-7.783-14.253-15.452-21.489-23.062l9.311-1.885c0.044,0.218,0.135,0.428,0.309,0.588
		c0.448,0.406,1.131,0.371,1.527-0.074c0.409-0.441,0.375-1.123-0.07-1.521c-0.436-0.404-1.124-0.373-1.521,0.07
		c-0.162,0.177-0.234,0.395-0.258,0.614l-12.6-1.337c-1.944-2.02-3.95-3.979-5.9-5.98l14.232-2.88
		c0.044,0.217,0.137,0.426,0.312,0.587c0.445,0.396,1.123,0.369,1.525-0.076c0.4-0.436,0.371-1.119-0.07-1.523
		c-0.443-0.396-1.128-0.367-1.527,0.072c-0.162,0.178-0.235,0.396-0.258,0.618l-19.404-2.063c-2.234-2.277-4.462-4.551-6.717-6.809
		l18.035-3.643c0.045,0.218,0.138,0.428,0.314,0.592c0.445,0.396,1.124,0.369,1.525-0.076c0.404-0.441,0.371-1.119-0.071-1.527
		c-0.441-0.404-1.124-0.371-1.525,0.076c-0.162,0.175-0.235,0.392-0.259,0.611l-24.492-2.607c-1.609-1.588-3.217-3.172-4.828-4.754
		l20.443-4.133c0.044,0.218,0.138,0.428,0.314,0.592c0.441,0.404,1.123,0.369,1.531-0.074c0.397-0.443,0.363-1.127-0.078-1.529
		c-0.438-0.398-1.123-0.371-1.527,0.072c-0.161,0.178-0.233,0.396-0.256,0.616l-28.217-2.997c-2.013-1.942-4.042-3.866-6.064-5.799
		c2.495-3.333,4.643-6.907,6.399-10.671c0.024,0.012,0.049,0.023,0.072,0.036c-0.228,0.645,0.039,1.379,0.669,1.705
		c0.637,0.338,1.415,0.109,1.8-0.489c1.806,0.89,3.61,1.785,5.418,2.67c-0.229,0.466-0.047,1.026,0.411,1.257
		c0.467,0.244,1.047,0.062,1.281-0.395c0.241-0.471,0.055-1.051-0.41-1.293c-0.457-0.234-1.011-0.052-1.264,0.398
		c-1.768-0.963-3.542-1.917-5.313-2.876c0.265-0.657-0.008-1.424-0.647-1.751c-0.629-0.322-1.377-0.115-1.771,0.44
		c-0.026-0.014-0.053-0.028-0.08-0.043c1.677-3.651,2.986-7.474,3.911-11.406c1.47,0.308,2.939,0.613,4.409,0.92
		c-0.046,2.09,1.389,3.995,3.502,4.46c2.154,0.471,4.283-0.715,5.077-2.698c2.746,0.566,5.492,1.133,8.24,1.693
		c-0.065,1.701,1.091,3.264,2.814,3.64c1.749,0.386,3.469-0.6,4.102-2.219c3.303,0.668,6.605,1.314,9.908,1.975
		c-0.108,1.337,0.774,2.585,2.116,2.879c1.378,0.307,2.742-0.511,3.164-1.831c3.85,0.765,7.699,1.54,11.549,2.293
		c-0.196,0.988,0.438,1.957,1.419,2.175c1.003,0.217,1.994-0.418,2.213-1.418c0.219-0.998-0.425-1.996-1.415-2.207
		c-0.99-0.216-1.969,0.4-2.201,1.381c-3.813-0.922-7.636-1.822-11.454-2.733c0.161-1.374-0.729-2.687-2.108-2.985
		c-1.345-0.292-2.665,0.476-3.126,1.736c-3.276-0.778-6.548-1.566-9.827-2.337c0.108-1.741-1.057-3.344-2.811-3.722
		c-1.715-0.381-3.415,0.555-4.069,2.129c-2.732-0.636-5.466-1.267-8.199-1.897c0.102-2.127-1.337-4.089-3.486-4.562
		c-2.116-0.463-4.217,0.666-5.045,2.586c-1.465-0.334-2.929-0.669-4.394-1.002c0.799-3.917,1.216-7.933,1.215-11.997
		c0.026-0.002,0.052-0.004,0.078-0.006c0.126,0.676,0.724,1.173,1.428,1.136c0.722-0.025,1.288-0.609,1.322-1.317
		c2.009-0.134,4.019-0.261,6.026-0.399c0.041,0.514,0.475,0.916,0.987,0.889c0.523-0.021,0.934-0.475,0.907-0.996
		s-0.472-0.923-0.995-0.902c-0.516,0.027-0.921,0.458-0.903,0.974c-2.011,0.05-4.022,0.111-6.034,0.167
		c-0.096-0.699-0.715-1.237-1.432-1.199c-0.711,0.032-1.259,0.591-1.323,1.275c-0.019,0.001-0.036,0.002-0.055,0.002
		c-0.027-4.099-0.484-8.241-1.384-12.374c2.643-0.912,5.289-1.814,7.928-2.74l26.896,9.048c-0.071,0.211-0.096,0.441-0.021,0.674
		c0.176,0.565,0.783,0.877,1.352,0.693c0.566-0.176,0.883-0.785,0.703-1.361c-0.188-0.566-0.791-0.879-1.359-0.696
		c-0.227,0.072-0.397,0.224-0.527,0.403l-16.861-12.28c2.125-0.772,4.248-1.533,6.371-2.313l23.351,7.853
		c-0.07,0.21-0.096,0.437-0.024,0.663c0.184,0.569,0.786,0.883,1.36,0.698c0.569-0.179,0.882-0.786,0.699-1.354
		c-0.184-0.568-0.788-0.887-1.356-0.703c-0.229,0.073-0.401,0.227-0.532,0.408l-14.87-10.83c2.986-1.114,5.961-2.251,8.943-3.394
		l18.496,6.22c-0.071,0.211-0.097,0.44-0.022,0.669c0.178,0.569,0.786,0.882,1.354,0.698c0.569-0.183,0.882-0.785,0.704-1.356
		c-0.179-0.571-0.787-0.882-1.363-0.707c-0.226,0.075-0.396,0.229-0.525,0.409l-11.735-8.549c2.614-1.018,5.253-1.944,7.856-2.975
		l12.01,4.036c-0.07,0.21-0.094,0.438-0.02,0.667c0.181,0.564,0.79,0.881,1.354,0.699c0.575-0.18,0.887-0.788,0.703-1.357
		c-0.185-0.574-0.786-0.882-1.354-0.699c-0.232,0.07-0.405,0.223-0.537,0.403l-7.675-5.597c9.756-3.894,19.481-7.868,29.157-11.996
		c0.363,0.872,1.335,1.344,2.26,1.049C495.963,110.071,496.506,109.028,496.203,108.051z M397.323,133.498
		c-9.729,2.855-19.427,5.808-29.086,8.871c-0.573-0.993-1.202-1.942-1.88-2.848c1.473-0.951,2.94-1.911,4.411-2.866
		c0.886,0.942,2.339,1.151,3.464,0.435c1.128-0.729,1.535-2.154,1.035-3.357c0.959-0.626,1.918-1.251,2.875-1.879
		c0.739,0.775,1.948,0.943,2.882,0.348c0.958-0.612,1.295-1.809,0.865-2.817c1.2-0.789,2.399-1.579,3.597-2.371
		c0.601,0.642,1.578,0.783,2.336,0.296c0.774-0.491,1.047-1.468,0.683-2.285c0.999-0.663,1.993-1.331,2.991-1.995
		C393.758,126.26,395.716,129.761,397.323,133.498z M370.58,157.573c-3.8,0.167-7.596,0.352-11.393,0.538
		c3.776-1.162,7.548-2.337,11.313-3.538C370.583,155.578,370.609,156.579,370.58,157.573z M316.146,155.942
		c3.798-0.168,7.593-0.353,11.388-0.539c-3.774,1.161-7.545,2.335-11.309,3.535C316.143,157.936,316.117,156.936,316.146,155.942z
		 M355.489,146.496c3.203-2.044,6.406-4.09,9.601-6.151c0.6,0.793,1.156,1.625,1.671,2.491
		C362.996,144.035,359.24,145.259,355.489,146.496z M354.902,145.614c2.519-2.755,5.036-5.512,7.548-8.274
		c0.693,0.681,1.35,1.401,1.971,2.158C361.241,141.527,358.07,143.569,354.902,145.614z M353.386,144.218
		c1.737-3.34,3.473-6.682,5.193-10.032c0.807,0.543,1.585,1.129,2.331,1.758C358.398,138.698,355.891,141.457,353.386,144.218z
		 M352.451,143.736c0.882-3.852,1.75-7.707,2.593-11.568c0.903,0.43,1.781,0.908,2.632,1.434
		C355.922,136.976,354.185,140.355,352.451,143.736z M340.537,141.145c-0.168-3.801-0.339-7.603-0.526-11.406
		c1.002-0.125,2.002-0.198,2.996-0.211C342.161,133.396,341.341,137.269,340.537,141.145z M339.486,141.196
		c-1.127-3.558-2.256-7.116-3.393-10.672c0.949-0.265,1.901-0.477,2.854-0.635C339.114,133.661,339.298,137.429,339.486,141.196z
		 M337.521,141.817c-2.026-3.179-4.056-6.357-6.101-9.528c0.868-0.422,1.767-0.8,2.693-1.134
		C335.245,134.712,336.382,138.266,337.521,141.817z M336.637,142.386c-2.899-2.694-5.809-5.379-8.735-8.044
		c0.818-0.564,1.676-1.084,2.564-1.561C332.514,135.99,334.575,139.188,336.637,142.386z M328.423,151.395
		c-3.372-1.754-6.746-3.505-10.13-5.242c0.39-0.921,0.829-1.819,1.317-2.692C322.534,146.122,325.474,148.764,328.423,151.395z
		 M327.939,152.329c-3.643-0.803-7.285-1.603-10.931-2.396c0.245-0.944,0.541-1.872,0.885-2.781
		C321.237,148.89,324.587,150.611,327.939,152.329z M327.496,154.346c-3.764,0.166-7.528,0.335-11.294,0.521
		c0.068-0.977,0.187-1.944,0.358-2.9C320.205,152.765,323.85,153.557,327.496,154.346z M331.244,167.017
		c-3.205,2.044-6.409,4.092-9.605,6.153c-0.6-0.793-1.156-1.625-1.671-2.491C323.734,169.479,327.491,168.254,331.244,167.017z
		 M331.816,167.906c-2.516,2.752-5.03,5.506-7.54,8.267c-0.692-0.681-1.35-1.401-1.97-2.158
		C325.483,171.988,328.651,169.948,331.816,167.906z M333.346,169.287c-1.739,3.342-3.478,6.687-5.2,10.04
		c-0.807-0.543-1.585-1.129-2.331-1.758C328.331,174.812,330.839,172.05,333.346,169.287z M334.28,169.77
		c-0.883,3.854-1.752,7.712-2.596,11.576c-0.903-0.43-1.782-0.909-2.634-1.435C330.805,176.535,332.544,173.152,334.28,169.77z
		 M346.19,172.376c0.168,3.8,0.338,7.6,0.525,11.4c-1.001,0.125-2,0.197-2.993,0.211C344.567,180.121,345.385,176.25,346.19,172.376
		z M347.241,172.321c1.126,3.558,2.255,7.114,3.391,10.67c-0.949,0.265-1.901,0.477-2.854,0.635
		C347.611,179.855,347.427,176.088,347.241,172.321z M349.203,171.692c2.028,3.181,4.06,6.36,6.105,9.533
		c-0.869,0.423-1.77,0.801-2.697,1.136C351.48,178.803,350.342,175.247,349.203,171.692z M350.105,171.146
		c2.894,2.689,5.797,5.369,8.719,8.029c-0.817,0.563-1.674,1.082-2.562,1.559C354.219,177.53,352.163,174.337,350.105,171.146z
		 M358.287,162.105c3.378,1.758,6.757,3.514,10.146,5.254c-0.391,0.923-0.83,1.823-1.319,2.697
		C364.186,167.39,361.241,164.742,358.287,162.105z M358.777,161.18c3.646,0.804,7.292,1.604,10.941,2.398
		c-0.246,0.945-0.542,1.874-0.887,2.785C365.485,164.624,362.13,162.9,358.777,161.18z M359.209,159.167
		c3.771-0.165,7.542-0.334,11.314-0.519c-0.069,0.978-0.188,1.946-0.359,2.903C366.513,160.751,362.862,159.958,359.209,159.167z
		 M391.236,122.676c-1.012,0.624-2.025,1.244-3.037,1.871c-0.586-0.67-1.587-0.828-2.36-0.329c-0.755,0.487-1.042,1.439-0.709,2.244
		c-1.218,0.758-2.435,1.518-3.651,2.278c-0.733-0.812-1.969-1-2.919-0.38c-0.933,0.593-1.281,1.759-0.889,2.755
		c-0.97,0.609-1.938,1.221-2.906,1.831c-0.885-0.957-2.35-1.179-3.482-0.457c-1.118,0.721-1.535,2.137-1.052,3.328
		c-1.509,0.956-3.021,1.907-4.526,2.867c-0.701-0.866-1.446-1.688-2.235-2.46c4.233-4.659,8.451-9.334,12.665-14.014
		c2.141,1.326,4.992,0.995,6.74-0.928c1.766-1.941,1.817-4.841,0.26-6.849c0.151-0.169,0.304-0.338,0.456-0.507
		C386.399,116.562,388.965,119.485,391.236,122.676z M382.254,112.708c-0.155,0.167-0.309,0.336-0.464,0.503
		c-2.143-1.364-5.024-1.046-6.79,0.893c-1.753,1.927-1.82,4.799-0.301,6.804c-4.267,4.633-8.528,9.269-12.773,13.919
		c-0.848-0.716-1.734-1.382-2.656-1.993c0.815-1.591,1.622-3.186,2.434-4.777c1.234,0.372,2.604-0.177,3.217-1.355
		c0.613-1.198,0.255-2.637-0.782-3.426c0.518-1.022,1.036-2.044,1.553-3.067c1.029,0.298,2.155-0.16,2.668-1.148
		c0.52-0.998,0.22-2.209-0.659-2.862c0.645-1.284,1.289-2.569,1.931-3.854c0.829,0.258,1.755-0.115,2.171-0.914
		c0.419-0.811,0.169-1.789-0.551-2.32c0.527-1.062,1.049-2.128,1.575-3.19C376.175,107.857,379.333,110.134,382.254,112.708z
		 M372.442,105.706c-0.563,1.047-1.132,2.092-1.694,3.141c-0.845-0.28-1.794,0.078-2.214,0.894
		c-0.411,0.803-0.177,1.772,0.514,2.299c-0.678,1.269-1.353,2.539-2.027,3.81c-1.041-0.332-2.197,0.112-2.719,1.118
		c-0.51,0.988-0.224,2.175,0.611,2.839c-0.536,1.013-1.068,2.027-1.603,3.042c-1.244-0.39-2.624,0.152-3.239,1.34
		c-0.617,1.196-0.271,2.62,0.749,3.411c-0.814,1.556-1.634,3.108-2.444,4.665c-0.97-0.594-1.972-1.136-3.005-1.611
		c2.148-9.899,4.182-19.827,6.116-29.779C365.296,102.112,368.969,103.729,372.442,105.706z M350.199,98.396
		c-2.391,9.853-4.684,19.726-6.858,29.621c-1.131,0.002-2.269,0.073-3.409,0.212c-0.088-1.752-0.185-3.504-0.276-5.256
		c1.26-0.292,2.171-1.448,2.105-2.782c-0.062-1.34-1.095-2.408-2.388-2.574c-0.062-1.144-0.124-2.287-0.188-3.431
		c1.043-0.251,1.792-1.217,1.738-2.324c-0.047-1.136-0.919-2.023-2.004-2.156c-0.084-1.434-0.168-2.867-0.255-4.301
		c0.854-0.196,1.468-0.977,1.426-1.874c-0.044-0.921-0.749-1.641-1.64-1.737c-0.074-1.19-0.155-2.38-0.231-3.57
		C342.253,97.866,346.264,97.934,350.199,98.396z M337.783,98.26c0.035,1.187,0.065,2.373,0.103,3.561
		c-0.876,0.18-1.511,0.968-1.465,1.877c0.04,0.904,0.725,1.628,1.589,1.74c0.047,1.435,0.098,2.869,0.147,4.304
		c-1.069,0.233-1.846,1.202-1.795,2.335c0.054,1.104,0.889,1.991,1.949,2.149c0.042,1.145,0.088,2.289,0.133,3.434
		c-1.269,0.285-2.197,1.447-2.136,2.788c0.064,1.328,1.082,2.396,2.355,2.572c0.073,1.783,0.142,3.567,0.22,5.35
		c-1.083,0.173-2.167,0.416-3.246,0.718c-1.919-5.997-3.859-11.988-5.806-17.979c2.22-1.188,3.355-3.827,2.566-6.309
		c-0.801-2.503-3.287-4.006-5.806-3.654c-0.069-0.21-0.136-0.42-0.205-0.63C330.173,99.372,333.986,98.625,337.783,98.26z
		 M324.666,101.064c0.065,0.211,0.132,0.422,0.197,0.633c-2.254,1.171-3.413,3.834-2.618,6.337c0.79,2.482,3.244,3.977,5.741,3.661
		c1.879,6.013,3.764,12.021,5.669,18.023c-1.056,0.378-2.08,0.806-3.063,1.292c-0.968-1.498-1.943-2.991-2.915-4.487
		c0.939-0.88,1.147-2.343,0.43-3.462c-0.725-1.131-2.152-1.539-3.353-1.037c-0.626-0.959-1.251-1.919-1.879-2.878
		c0.773-0.742,0.938-1.95,0.34-2.883c-0.608-0.95-1.805-1.295-2.809-0.863c-0.791-1.201-1.582-2.402-2.375-3.603
		c0.641-0.59,0.781-1.575,0.292-2.334c-0.489-0.768-1.464-1.042-2.283-0.686c-0.655-0.989-1.316-1.973-1.975-2.96
		C317.374,103.92,320.916,102.322,324.666,101.064z M313.69,106.042c0.625,1.013,1.246,2.028,1.874,3.04
		c-0.663,0.593-0.826,1.594-0.333,2.371c0.491,0.756,1.446,1.038,2.249,0.699c0.76,1.221,1.521,2.44,2.284,3.66
		c-0.812,0.734-1.005,1.964-0.389,2.916c0.6,0.934,1.767,1.286,2.765,0.891c0.608,0.97,1.221,1.938,1.831,2.906
		c-0.958,0.88-1.183,2.351-0.457,3.482c0.724,1.128,2.133,1.541,3.327,1.05c0.938,1.481,1.873,2.966,2.814,4.444
		c-1.01,0.547-1.979,1.146-2.902,1.8c-7.499-6.811-15.081-13.537-22.732-20.189C306.961,110.459,310.193,108.084,313.69,106.042z
		 M296.245,121.666c7.336,6.996,14.739,13.916,22.219,20.744c-0.567,0.986-1.07,2.009-1.519,3.055
		c-1.562-0.8-3.128-1.592-4.691-2.389c0.376-1.237-0.171-2.602-1.361-3.217c-1.191-0.611-2.632-0.254-3.419,0.782
		c-1.023-0.519-2.046-1.038-3.07-1.555c0.302-1.026-0.154-2.159-1.141-2.667c-1.009-0.519-2.209-0.214-2.865,0.66
		c-1.284-0.645-2.568-1.288-3.854-1.931c0.257-0.836-0.115-1.756-0.914-2.175c-0.815-0.418-1.792-0.166-2.317,0.556
		c-1.067-0.53-2.138-1.056-3.206-1.584C291.794,128.324,293.855,124.881,296.245,121.666z M289.917,132.339
		c1.046,0.563,2.089,1.131,3.136,1.693c-0.287,0.845,0.075,1.791,0.889,2.206c0.803,0.413,1.771,0.184,2.303-0.506
		c1.266,0.677,2.533,1.352,3.802,2.025c-0.338,1.039,0.114,2.201,1.122,2.715c0.986,0.513,2.175,0.233,2.834-0.607
		c1.014,0.537,2.028,1.07,3.043,1.604c-0.39,1.24,0.152,2.623,1.345,3.243c1.185,0.611,2.617,0.26,3.406-0.754
		c1.583,0.829,3.164,1.663,4.749,2.488c-0.397,1.032-0.736,2.088-1.013,3.162c-6.152-1.336-12.31-2.651-18.47-3.96
		c0.08-2.515-1.637-4.816-4.175-5.368c-2.569-0.562-5.112,0.839-6.069,3.193c-0.221-0.047-0.441-0.095-0.663-0.141
		C287.048,139.544,288.306,135.86,289.917,132.339z M285.772,145.102c0.22,0.05,0.438,0.098,0.658,0.147
		c-0.112,2.538,1.614,4.874,4.176,5.436c2.546,0.56,5.069-0.82,6.043-3.141c6.144,1.378,12.286,2.75,18.434,4.101
		c-0.197,1.086-0.329,2.188-0.4,3.3c-1.781,0.089-3.563,0.188-5.346,0.281c-0.294-1.252-1.455-2.167-2.784-2.106
		c-1.343,0.066-2.41,1.094-2.575,2.388c-1.144,0.063-2.288,0.124-3.433,0.188c-0.256-1.037-1.215-1.787-2.319-1.734
		c-1.134,0.047-2.03,0.913-2.161,2c-1.434,0.084-2.868,0.168-4.302,0.255c-0.187-0.851-0.973-1.461-1.873-1.421
		c-0.914,0.039-1.635,0.746-1.736,1.635c-1.186,0.074-2.37,0.154-3.555,0.23C284.603,152.745,285.005,148.876,285.772,145.102z
		 M284.59,157.098c1.196-0.035,2.392-0.065,3.588-0.103c0.182,0.872,0.967,1.517,1.881,1.474c0.903-0.047,1.626-0.729,1.732-1.597
		c1.437-0.048,2.873-0.098,4.311-0.147c0.234,1.07,1.202,1.85,2.336,1.797c1.107-0.059,1.993-0.893,2.148-1.951
		c1.146-0.042,2.29-0.088,3.435-0.132c0.285,1.271,1.444,2.199,2.78,2.14c1.344-0.069,2.404-1.079,2.581-2.359
		c1.751-0.071,3.502-0.138,5.252-0.214c-0.03,1.129,0.007,2.267,0.113,3.409c-9.647,3.09-19.264,6.294-28.851,9.595
		C285.043,165.031,284.615,161.043,284.59,157.098z M289.406,180.016c9.728-2.855,19.424-5.806,29.08-8.869
		c0.574,0.994,1.203,1.944,1.882,2.849c-1.472,0.951-2.938,1.909-4.406,2.863c-0.884-0.941-2.342-1.153-3.468-0.431
		c-1.128,0.729-1.537,2.153-1.033,3.355c-0.961,0.627-1.922,1.253-2.882,1.882c-0.738-0.776-1.942-0.947-2.875-0.349
		c-0.957,0.617-1.295,1.807-0.865,2.814c-1.2,0.789-2.399,1.579-3.598,2.371c-0.599-0.642-1.579-0.782-2.342-0.299
		c-0.769,0.494-1.041,1.468-0.68,2.289c-0.998,0.663-1.991,1.33-2.988,1.994C292.968,187.255,291.011,183.754,289.406,180.016z
		 M295.49,190.837c1.011-0.624,2.023-1.243,3.033-1.869c0.589,0.666,1.594,0.831,2.362,0.335c0.76-0.492,1.047-1.447,0.711-2.253
		c1.218-0.758,2.435-1.518,3.652-2.278c0.735,0.811,1.966,1.001,2.918,0.385c0.935-0.599,1.283-1.768,0.885-2.758
		c0.972-0.609,1.94-1.222,2.91-1.833c0.882,0.958,2.351,1.182,3.482,0.456c1.118-0.717,1.532-2.13,1.052-3.326
		c1.508-0.955,3.019-1.906,4.523-2.864c0.701,0.866,1.447,1.688,2.236,2.46c-4.232,4.659-8.449,9.334-12.662,14.014
		c-2.141-1.33-4.991-0.995-6.742,0.93c-1.771,1.938-1.818,4.84-0.256,6.845c-0.152,0.17-0.305,0.339-0.457,0.509
		C300.328,196.952,297.76,194.028,295.49,190.837z M304.47,200.806c0.155-0.169,0.31-0.338,0.466-0.506
		c2.143,1.367,5.024,1.049,6.797-0.89c1.749-1.924,1.812-4.798,0.29-6.803c4.268-4.633,8.528-9.269,12.773-13.918
		c0.849,0.717,1.736,1.382,2.658,1.994c-0.815,1.59-1.622,3.185-2.433,4.776c-1.235-0.371-2.604,0.174-3.214,1.356
		c-0.615,1.197-0.255,2.635,0.778,3.425c-0.518,1.022-1.036,2.043-1.552,3.066c-1.027-0.302-2.155,0.159-2.661,1.149
		c-0.524,0.999-0.227,2.204,0.652,2.862c-0.645,1.284-1.288,2.568-1.93,3.854c-0.83-0.26-1.755,0.114-2.172,0.91
		c-0.42,0.814-0.169,1.794,0.552,2.325c-0.527,1.062-1.049,2.127-1.574,3.189C310.55,205.658,307.391,203.381,304.47,200.806z
		 M314.283,207.809c0.563-1.047,1.131-2.092,1.693-3.14c0.842,0.28,1.795-0.079,2.22-0.894c0.408-0.801,0.175-1.775-0.519-2.302
		c0.677-1.268,1.352-2.536,2.025-3.806c1.041,0.333,2.201-0.112,2.724-1.123c0.508-0.982,0.227-2.172-0.615-2.836
		c0.535-1.013,1.068-2.026,1.602-3.04c1.243,0.391,2.627-0.152,3.246-1.343c0.612-1.195,0.268-2.625-0.754-3.412
		c0.814-1.554,1.633-3.105,2.443-4.662c0.972,0.595,1.974,1.138,3.009,1.613c-2.148,9.898-4.182,19.826-6.116,29.777
		C321.43,211.403,317.757,209.787,314.283,207.809z M336.53,215.117c2.392-9.852,4.684-19.724,6.858-29.619
		c1.13-0.001,2.267-0.073,3.406-0.212c0.088,1.752,0.185,3.504,0.276,5.256c-1.256,0.292-2.167,1.445-2.109,2.778
		c0.068,1.352,1.101,2.416,2.392,2.578c0.062,1.144,0.124,2.288,0.188,3.432c-1.042,0.251-1.79,1.217-1.738,2.322
		c0.048,1.133,0.916,2.024,2.003,2.154c0.084,1.435,0.168,2.87,0.255,4.305c-0.851,0.192-1.464,0.977-1.425,1.869
		c0.042,0.926,0.753,1.648,1.639,1.741c0.074,1.189,0.155,2.378,0.231,3.567C344.472,215.647,340.463,215.58,336.53,215.117z
		 M348.94,215.254c-0.035-1.188-0.065-2.373-0.103-3.561c0.874-0.18,1.514-0.968,1.47-1.875c-0.042-0.903-0.729-1.626-1.594-1.738
		c-0.047-1.436-0.098-2.872-0.147-4.308c1.07-0.227,1.85-1.201,1.796-2.333c-0.053-1.105-0.89-1.995-1.95-2.149
		c-0.042-1.146-0.088-2.29-0.132-3.436c1.273-0.285,2.2-1.444,2.139-2.79c-0.064-1.325-1.081-2.396-2.358-2.569
		c-0.073-1.783-0.142-3.566-0.219-5.349c1.083-0.173,2.167-0.416,3.246-0.719c1.92,5.998,3.859,11.99,5.807,17.982
		c-2.219,1.187-3.354,3.827-2.567,6.299c0.802,2.505,3.29,4.008,5.806,3.662c0.068,0.208,0.136,0.417,0.204,0.626
		C356.549,214.141,352.737,214.888,348.94,215.254z M362.057,212.448c-0.065-0.209-0.131-0.418-0.196-0.627
		c2.26-1.174,3.422-3.839,2.62-6.343c-0.793-2.479-3.247-3.979-5.743-3.658c-1.879-6.013-3.764-12.021-5.668-18.024
		c1.057-0.378,2.082-0.807,3.066-1.293c0.968,1.498,1.944,2.991,2.916,4.487c-0.941,0.883-1.15,2.345-0.437,3.461
		c0.731,1.135,2.156,1.541,3.358,1.037c0.627,0.96,1.253,1.921,1.882,2.881c-0.778,0.741-0.946,1.952-0.35,2.881
		c0.614,0.951,1.811,1.295,2.817,0.863c0.789,1.2,1.578,2.399,2.37,3.598c-0.637,0.595-0.777,1.579-0.29,2.338
		c0.49,0.772,1.464,1.044,2.281,0.684c0.656,0.989,1.317,1.974,1.975,2.961C369.351,209.593,365.808,211.19,362.057,212.448z
		 M373.034,207.473c-0.626-1.015-1.247-2.03-1.875-3.043c0.67-0.59,0.831-1.589,0.333-2.367c-0.488-0.758-1.439-1.042-2.25-0.705
		c-0.758-1.219-1.52-2.437-2.28-3.654c0.81-0.736,1.002-1.961,0.392-2.916c-0.6-0.935-1.772-1.285-2.765-0.889
		c-0.609-0.971-1.222-1.939-1.833-2.91c0.96-0.877,1.185-2.346,0.458-3.48c-0.721-1.123-2.133-1.538-3.327-1.052
		c-0.938-1.481-1.873-2.966-2.814-4.445c1.009-0.546,1.978-1.145,2.899-1.797c7.499,6.811,15.082,13.535,22.735,20.185
		C379.765,203.054,376.533,205.43,373.034,207.473z M390.478,191.852c-7.336-6.997-14.737-13.916-22.217-20.745
		c0.569-0.987,1.072-2.011,1.521-3.059c1.561,0.8,3.127,1.592,4.69,2.389c-0.376,1.238,0.17,2.604,1.361,3.218
		c1.19,0.619,2.635,0.258,3.421-0.781c1.021,0.517,2.041,1.035,3.063,1.551c-0.297,1.027,0.157,2.159,1.146,2.67
		c1.01,0.521,2.211,0.216,2.866-0.66c1.284,0.645,2.568,1.289,3.854,1.932c-0.259,0.835,0.112,1.759,0.913,2.176
		c0.818,0.42,1.797,0.166,2.322-0.555c1.066,0.529,2.134,1.053,3.2,1.581C394.931,185.191,392.87,188.635,390.478,191.852z
		 M396.811,181.175c-1.045-0.562-2.086-1.13-3.132-1.69c0.28-0.85-0.081-1.798-0.898-2.209c-0.797-0.413-1.769-0.181-2.296,0.507
		c-1.267-0.677-2.534-1.351-3.803-2.024c0.339-1.043-0.12-2.204-1.123-2.719c-0.984-0.507-2.169-0.232-2.839,0.608
		c-1.013-0.536-2.026-1.068-3.039-1.602c0.386-1.241-0.154-2.624-1.345-3.245c-1.184-0.611-2.618-0.263-3.408,0.755
		c-1.583-0.829-3.162-1.662-4.747-2.487c0.398-1.033,0.737-2.09,1.015-3.166c6.15,1.335,12.306,2.65,18.464,3.959
		c-0.08,2.518,1.642,4.82,4.183,5.371c2.569,0.564,5.113-0.838,6.069-3.194c0.221,0.046,0.44,0.094,0.661,0.14
		C399.679,173.968,398.421,177.653,396.811,181.175z M400.955,168.416c-0.219-0.05-0.438-0.098-0.656-0.147
		c0.112-2.539-1.617-4.88-4.176-5.442c-2.553-0.553-5.074,0.822-6.051,3.146c-6.142-1.378-12.283-2.749-18.43-4.1
		c0.198-1.088,0.33-2.19,0.4-3.304c1.783-0.089,3.565-0.188,5.349-0.28c0.293,1.254,1.457,2.168,2.785,2.104
		c1.341-0.062,2.408-1.094,2.574-2.385c1.144-0.062,2.286-0.124,3.43-0.188c0.256,1.041,1.222,1.788,2.322,1.735
		c1.131-0.046,2.029-0.915,2.16-2.001c1.434-0.084,2.866-0.168,4.298-0.255c0.191,0.85,0.979,1.465,1.876,1.422
		c0.915-0.037,1.639-0.749,1.734-1.636c1.188-0.074,2.373-0.155,3.56-0.231C402.125,160.771,401.722,164.641,400.955,168.416z
		 M402.138,156.417c-1.198,0.036-2.396,0.066-3.594,0.104c-0.178-0.876-0.965-1.516-1.88-1.473
		c-0.901,0.042-1.622,0.727-1.733,1.597c-1.435,0.047-2.87,0.097-4.305,0.147c-0.233-1.068-1.199-1.852-2.337-1.799
		c-1.11,0.055-1.995,0.893-2.15,1.952c-1.145,0.042-2.288,0.088-3.433,0.132c-0.29-1.274-1.448-2.199-2.788-2.143
		c-1.335,0.066-2.402,1.082-2.574,2.361c-1.751,0.072-3.503,0.139-5.254,0.215c0.03-1.131-0.007-2.271-0.114-3.413
		c9.647-3.09,19.265-6.295,28.854-9.597C401.684,148.481,402.114,152.471,402.138,156.417z"/>
</g>
</svg>
